SplineFontDB: 3.2
FontName: tp6-captcha-zh1
FullName: zh1
FamilyName: tp6-captcha
Weight: custom
Copyright: \nCreated by webfont\n
Version: 1.1
DefaultBaseFilename: 1
ItalicAngle: 0
UnderlinePosition: 0
UnderlineWidth: 0
Ascent: 896
Descent: 128
InvalidEm: 0
sfntRevision: 0x00010000
LayerCount: 2
Layer: 0 1 "+gMxmbwAA" 1
Layer: 1 1 "+Uk1mbwAA" 0
XUID: [1021 389 -1013409464 30525]
StyleMap: 0x0040
FSType: 8
OS2Version: 1
OS2_WeightWidthSlopeOnly: 0
OS2_UseTypoMetrics: 0
CreationTime: 1578929702
ModificationTime: 1584754584
PfmFamily: 17
TTFWeight: 400
TTFWidth: 5
LineGap: 96
VLineGap: 0
Panose: 2 0 5 3 0 0 0 0 0 0
OS2TypoAscent: 884
OS2TypoAOffset: 0
OS2TypoDescent: -216
OS2TypoDOffset: 0
OS2TypoLinegap: 96
OS2WinAscent: 884
OS2WinAOffset: 0
OS2WinDescent: 224
OS2WinDOffset: 0
HheadAscent: 884
HheadAOffset: 0
HheadDescent: -216
HheadDOffset: 0
OS2SubXSize: 648
OS2SubYSize: 768
OS2SubXOff: 0
OS2SubYOff: 152
OS2SupXSize: 648
OS2SupYSize: 768
OS2SupXOff: 0
OS2SupYOff: 528
OS2StrikeYSize: 52
OS2StrikeYPos: 280
OS2Vendor: 'PfEd'
OS2CodePages: 00000001.00000000
OS2UnicodeRanges: 00000000.00000000.00000000.00000000
Lookup: 4 0 1 "'liga' +aAdRxn7EVAgA +Z+VifgAA 0" { "'liga' +aAdRxn7EVAgA +Z+VifgAA 0+Zv9O44ho"  } [' RQD' ('DFLT' <'dflt' > ) 'liga' ('DFLT' <'dflt' > ) ]
MarkAttachClasses: 1
DEI: 91125
ShortTable: maxp 16
  1
  0
  99
  159
  7
  0
  0
  2
  0
  10
  10
  0
  255
  0
  0
  0
EndShort
LangName: 1033 "" "" "Regular" "" "" "Version 1.0" "" "" "" "" "Generated by svg2ttf from Fontello project." "http://fontello.com"
Encoding: UnicodeFull
Compacted: 1
UnicodeInterp: none
NameList: AGL For New Fonts
DisplaySize: -48
AntiAlias: 1
FitToEm: 0
WinInfo: 0 38 12
BeginPrivate: 0
EndPrivate
BeginChars: 1114113 98

StartChar: uni4E3A
Encoding: 20026 20026 0
Width: 1044
VWidth: 1126
Flags: W
LayerCount: 2
Fore
SplineSet
482 876 m 1,0,-1
 516 876 l 2,1,2
 537 876 537 876 587 800 c 1,3,4
 541 661 541 661 528 599 c 1,5,6
 683 616 683 616 747 620 c 2,7,-1
 814 632 l 1,8,9
 919 561 919 561 919 519 c 0,10,11
 869 212 869 212 742 -10 c 0,12,13
 717 -52 717 -52 675 -52 c 1,14,15
 608 -10 608 -10 568 44 c 0,16,17
 528 100 528 100 528 150 c 1,18,19
 625 87 625 87 663 91 c 0,20,21
 734 66 734 66 801 452 c 1,22,-1
 801 498 l 2,23,24
 788 544 788 544 717 532 c 0,25,26
 604 528 604 528 507 515 c 1,27,28
 402 297 402 297 351.5 227.5 c 128,-1,29
 301 158 301 158 171 40 c 1,30,-1
 129 40 l 1,31,-1
 129 70 l 1,32,33
 373 377 373 377 398 502 c 1,34,-1
 285 481 l 2,35,36
 247 481 247 481 222 515 c 2,37,-1
 167 561 l 1,38,-1
 406 590 l 1,39,-1
 406 586 l 1,40,41
 368 620 368 620 293 712 c 1,42,43
 415 754 415 754 457 683 c 1,44,45
 482 792 482 792 482 876 c 1,0,-1
474 427 m 1,46,-1
 520 427 l 2,47,48
 583 427 583 427 684 364 c 1,49,50
 680 276 680 276 646 250 c 1,51,52
 570 321 570 321 474 385 c 1,53,-1
 474 427 l 1,46,-1
EndSplineSet
Validated: 37
EndChar

StartChar: uni4E3D
Encoding: 20029 20029 1
Width: 1044
VWidth: 1126
Flags: W
LayerCount: 2
Fore
SplineSet
731 822 m 1,0,1
 777 772 777 772 777 759 c 2,2,-1
 777 713 l 1,3,4
 743 713 743 713 718 726 c 0,5,6
 567 713 567 713 327 675 c 1,7,8
 184 678 184 678 185 700 c 2,9,-1
 197 738 l 1,10,11
 647 822 647 822 731 822 c 1,0,1
806 658 m 1,12,13
 840 641 840 641 899 583 c 1,14,-1
 886 448 l 1,15,-1
 886 176 l 2,16,17
 886 -30 886 -30 836 -30 c 2,18,-1
 823 -30 l 1,19,-1
 680 45 l 1,20,21
 789 100 789 100 789 104 c 2,22,-1
 794 293 l 2,23,24
 790 289 790 289 743 318 c 0,25,26
 655 352 655 352 626 352 c 2,27,-1
 621 352 l 1,28,-1
 621 171 l 1,29,-1
 609 108 l 1,30,-1
 579 108 l 2,31,32
 562 108 562 108 529 159 c 1,33,-1
 529 226 l 2,34,35
 529 251 529 251 533 286.5 c 128,-1,36
 537 322 537 322 537 406 c 1,37,38
 537 402 537 402 525 402 c 2,39,-1
 537 461 l 1,40,-1
 537 554 l 2,41,42
 537 620 537 620 806 658 c 1,12,13
382 621 m 0,43,44
 420 621 420 621 462 545 c 1,45,-1
 462 373 l 2,46,47
 462 323 462 323 453 243 c 1,48,-1
 462 226 l 1,49,50
 441 24 441 24 399 24 c 2,51,-1
 374 24 l 1,52,53
 298 104 298 104 256 121 c 1,54,-1
 281 159 l 1,55,56
 348 155 348 155 348 142 c 1,57,58
 356 142 356 142 361 222 c 1,59,-1
 353 260 l 2,60,61
 361 298 361 298 361 318 c 1,62,63
 231 377 231 377 214 377 c 2,64,-1
 210 377 l 1,65,-1
 210 327 l 1,66,-1
 201 188 l 1,67,-1
 201 112 l 2,68,69
 201 78 201 78 168 79 c 2,70,-1
 159 79 l 1,71,-1
 117 108 l 1,72,73
 117 146 117 146 134 528 c 1,74,-1
 117 591 l 1,75,76
 180 591 180 591 180 583 c 0,77,78
 205 570 205 570 210 570 c 0,79,80
 348 621 348 621 382 621 c 0,43,44
613 532 m 2,81,-1
 613 461 l 2,82,83
 613 427 613 427 710 423 c 0,84,85
 773 422 773 422 798 406 c 1,86,-1
 798 398 l 1,87,-1
 798 541 l 2,88,89
 794 570 794 570 777 574 c 0,90,91
 613 560 613 560 613 532 c 2,81,-1
218 457 m 1,92,93
 252 436 252 436 361 423 c 1,94,-1
 369 503 l 1,95,-1
 369 524 l 2,96,97
 369 532 369 532 348 541 c 0,98,99
 218 520 218 520 218 457 c 1,92,93
EndSplineSet
Validated: 37
EndChar

StartChar: uni4E43
Encoding: 20035 20035 2
Width: 1044
VWidth: 1126
Flags: W
LayerCount: 2
Fore
SplineSet
668 814 m 1,0,1
 706 772 706 772 705 738 c 1,2,3
 655 683 655 683 630 486 c 1,4,-1
 630 486 l 1,5,6
 739 507 739 507 848 507 c 1,7,8
 911 482 911 482 911 410 c 2,9,-1
 911 377 l 1,10,11
 835 20 835 20 768 -14 c 1,12,-1
 735 -14 l 1,13,14
 559 87 559 87 525 125 c 1,15,-1
 525 154 l 1,16,-1
 563 154 l 1,17,-1
 710 100 l 1,18,-1
 714 100 l 2,19,20
 756 100 756 100 810 368 c 1,21,-1
 810 402 l 1,22,-1
 600 390 l 2,23,24
 533 390 533 390 542 507 c 1,25,26
 571 625 571 625 571 675 c 2,27,-1
 571 696 l 1,28,-1
 546 696 l 1,29,30
 433 679 433 679 416 654 c 0,31,32
 366 293 366 293 290 209 c 0,33,34
 256 158 256 158 147 74 c 1,35,-1
 105 74 l 1,36,-1
 105 116 l 1,37,38
 319 343 319 343 319 654 c 1,39,-1
 302 654 l 2,40,41
 243 654 243 654 235 700 c 2,42,-1
 235 704 l 1,43,-1
 252 730 l 1,44,45
 336 743 336 743 668 814 c 1,0,1
EndSplineSet
Validated: 37
EndChar

StartChar: uni4E91
Encoding: 20113 20113 3
Width: 1044
VWidth: 1126
Flags: W
LayerCount: 2
Fore
SplineSet
604 805 m 1,0,-1
 655 755 l 1,1,-1
 646 721 l 1,2,3
 533 696 533 696 407 679 c 1,4,-1
 377 683 l 1,5,-1
 340 725 l 1,6,-1
 340 767 l 1,7,8
 579 805 579 805 604 805 c 1,0,-1
823 549 m 1,9,10
 941 507 941 507 928 486 c 2,11,-1
 928 473 l 2,12,13
 928 456 928 456 890 435 c 1,14,15
 491 448 491 448 495 431 c 0,16,17
 474 347 474 347 327 179 c 1,18,-1
 327 175 l 1,19,20
 407 171 407 171 646 192 c 1,21,22
 587 297 587 297 655 297 c 1,23,24
 831 154 831 154 810 36 c 1,25,-1
 747 7 l 1,26,-1
 680 112 l 1,27,28
 516 83 516 83 214 57 c 1,29,-1
 205 62 l 2,30,31
 188 62 188 62 172 104 c 1,32,-1
 172 120 l 1,33,34
 252 212 252 212 365 402 c 1,35,-1
 373 419 l 1,36,37
 260 411 260 411 188 398 c 1,38,39
 117 419 117 419 100 456 c 1,40,41
 113 494 113 494 134 494 c 2,42,-1
 260 498 l 2,43,44
 663 528 663 528 823 549 c 1,9,10
EndSplineSet
Validated: 33
EndChar

StartChar: uni4EBA
Encoding: 20154 20154 4
Width: 1044
VWidth: 1126
Flags: W
LayerCount: 2
Fore
SplineSet
487 759 m 1,0,-1
 499 759 l 2,1,2
 537 750 537 750 537 712 c 0,3,4
 487 606 487 606 457 502 c 1,5,6
 709 212 709 212 810 183 c 2,7,-1
 957 133 l 1,8,-1
 957 104 l 2,9,10
 957 58 957 58 882 57 c 0,11,12
 680 61 680 61 432 410 c 1,13,-1
 420 423 l 1,14,-1
 315 259 l 2,15,16
 269 200 269 200 96 87 c 1,17,-1
 67 87 l 1,18,-1
 67 129 l 1,19,20
 315 356 315 356 394 608 c 0,21,22
 432 730 432 730 487 759 c 1,0,-1
EndSplineSet
Validated: 1
EndChar

StartChar: uni4F10
Encoding: 20240 20240 5
Width: 1044
VWidth: 1126
Flags: W
LayerCount: 2
Fore
SplineSet
449 855 m 1,0,-1
 491 855 l 2,1,2
 541 855 541 855 579 615 c 0,3,4
 583 615 583 615 600 607 c 2,5,-1
 714 632 l 1,6,7
 769 615 769 615 768 590 c 2,8,-1
 768 544 l 1,9,10
 751 544 751 544 752 519 c 1,11,-1
 710 544 l 1,12,-1
 705 544 l 2,13,14
 617 531 617 531 617 519 c 0,15,16
 634 397 634 397 647 397 c 2,17,-1
 659 397 l 1,18,19
 722 485 722 485 743 485 c 2,20,-1
 760 485 l 1,21,22
 785 460 785 460 785 439 c 2,23,-1
 689 305 l 1,24,25
 781 141 781 141 852 116 c 1,26,27
 869 166 869 166 869 216 c 1,28,-1
 920 216 l 1,29,30
 945 140 945 140 945 90 c 2,31,-1
 945 48 l 1,32,-1
 932 -19 l 1,33,-1
 882 -19 l 1,34,35
 752 31 752 31 621 242 c 1,36,-1
 609 242 l 1,37,38
 458 145 458 145 395 158 c 1,39,-1
 395 204 l 1,40,41
 437 204 437 204 584 313 c 1,42,-1
 584 317 l 1,43,44
 542 502 542 502 508 502 c 0,45,46
 500 502 500 502 453 485 c 1,47,48
 340 506 340 506 340 565 c 1,49,50
 504 565 504 565 504 590 c 2,51,-1
 449 855 l 1,0,-1
655 800 m 1,52,-1
 663 792 l 1,53,54
 713 805 713 805 760 737 c 1,55,-1
 760 704 l 2,56,57
 760 670 760 670 722 670 c 1,58,59
 634 716 634 716 613 767 c 1,60,61
 621 800 621 800 655 800 c 1,52,-1
281 746 m 1,62,-1
 315 746 l 2,63,64
 349 746 349 746 348 704 c 2,65,-1
 348 687 l 1,66,-1
 231 557 l 1,67,68
 273 481 273 481 273 372 c 2,69,-1
 273 363 l 2,70,71
 273 275 273 275 243 36 c 1,72,-1
 206 36 l 1,73,-1
 159 69 l 1,74,75
 176 216 176 216 176 355 c 2,76,-1
 176 485 l 1,77,-1
 172 498 l 1,78,79
 101 448 101 448 71 447 c 1,80,-1
 71 481 l 1,81,-1
 281 746 l 1,62,-1
EndSplineSet
Validated: 33
EndChar

StartChar: uni4F4D
Encoding: 20301 20301 6
Width: 1044
VWidth: 1126
Flags: W
LayerCount: 2
Fore
SplineSet
302 764 m 2,0,1
 319 764 319 764 357 710 c 0,2,3
 357 681 357 681 256 554 c 1,4,-1
 239 521 l 1,5,6
 260 508 260 508 260 416 c 2,7,-1
 260 336 l 2,8,9
 274 140 274 140 248 -8 c 1,10,-1
 201 -8 l 1,11,-1
 168 29 l 1,12,-1
 168 441 l 2,13,14
 154 428 154 428 58 370 c 1,15,-1
 58 412 l 1,16,17
 247 689 247 689 281 764 c 1,18,-1
 302 764 l 2,0,1
487 768 m 1,19,-1
 508 768 l 2,20,21
 588 755 588 755 646 668 c 1,22,-1
 722 680 l 1,23,24
 810 664 810 664 810 622 c 2,25,-1
 810 613 l 2,26,27
 810 579 810 579 760 550 c 1,28,-1
 714 567 l 1,29,30
 538 512 538 512 386 512 c 1,31,-1
 369 554 l 1,32,-1
 369 600 l 1,33,34
 550 600 550 600 533 630 c 1,35,36
 533 676 533 676 487 726 c 1,37,-1
 487 768 l 1,19,-1
705 508 m 1,38,-1
 730 508 l 2,39,40
 776 508 776 508 777 441 c 0,41,42
 772 386 772 386 688 231 c 2,43,-1
 668 189 l 1,44,45
 962 202 962 202 962 126 c 0,46,47
 962 84 962 84 920 59 c 1,48,-1
 886 59 l 1,49,50
 746 88 746 88 730 88 c 2,51,-1
 567 88 l 2,52,53
 525 88 525 88 382 50 c 1,54,55
 285 58 285 58 285 100.5 c 128,-1,56
 285 143 285 143 340 147 c 2,57,-1
 420 151 l 2,58,59
 584 176 584 176 617 286 c 2,60,-1
 705 508 l 1,38,-1
420 445 m 1,61,62
 512 446 512 446 550 244 c 0,63,64
 546 219 546 219 546 189 c 1,65,-1
 487 189 l 1,66,67
 466 210 466 210 445 210 c 1,68,69
 445 311 445 311 420 445 c 1,61,62
EndSplineSet
Validated: 37
EndChar

StartChar: uni4F59
Encoding: 20313 20313 7
Width: 1044
VWidth: 1126
Flags: W
LayerCount: 2
Fore
SplineSet
490 856 m 1,0,1
 570 680 570 680 948 537 c 1,2,-1
 948 520 l 2,3,4
 948 482 948 482 918 482 c 0,5,6
 805 440 805 440 469 738 c 1,7,-1
 461 738 l 2,8,9
 457 738 457 738 339 587 c 1,10,11
 226 486 226 486 112 415 c 1,12,-1
 112 461 l 1,13,14
 318 688 318 688 452 856 c 1,15,-1
 490 856 l 1,0,1
566 600 m 1,16,-1
 604 541 l 1,17,18
 512 498 512 498 511 490 c 0,19,20
 511 448 511 448 532 448 c 0,21,22
 554 448 554 448 688 461 c 1,23,-1
 721 406 l 1,24,25
 708 356 708 356 646 356 c 2,26,-1
 536 356 l 1,27,-1
 536 121 l 2,28,29
 523 -64 523 -64 473 -64 c 0,30,31
 424 -64 424 -64 310 37 c 1,32,-1
 310 83 l 1,33,-1
 423 50 l 2,34,35
 431 50 431 50 452 234 c 1,36,37
 444 326 444 326 431 327 c 2,38,-1
 389 327 l 1,39,-1
 226 302 l 2,40,41
 205 306 205 306 179 306 c 1,42,-1
 179 369 l 1,43,44
 436 411 436 411 436 432 c 0,45,46
 436 503 436 503 347 503 c 1,47,-1
 347 574 l 1,48,49
 461 600 461 600 566 600 c 1,16,-1
230 255 m 1,50,-1
 272 255 l 2,51,52
 310 256 310 256 310 218 c 0,53,54
 310 134 310 134 213 58 c 1,55,56
 175 58 175 58 175 100 c 2,57,-1
 230 255 l 1,50,-1
629 268 m 1,58,-1
 666 268 l 1,59,60
 742 226 742 226 856 112 c 1,61,-1
 856 92 l 1,62,63
 839 92 839 92 839 75 c 1,64,65
 738 113 738 113 629 222 c 1,66,-1
 629 268 l 1,58,-1
EndSplineSet
Validated: 33
EndChar

StartChar: uni5149
Encoding: 20809 20809 8
Width: 1044
VWidth: 1126
Flags: W
LayerCount: 2
Fore
SplineSet
470 871 m 2,0,1
 520 871 520 871 524 770 c 0,2,3
 520 636 520 636 516 598 c 1,4,-1
 512 594 l 2,5,6
 520 594 520 594 667 779 c 1,7,-1
 726 779 l 1,8,-1
 738 695 l 1,9,-1
 545 518 l 1,10,-1
 545 539 l 1,11,12
 675 539 675 539 776 556 c 1,13,14
 831 531 831 531 843 459 c 1,15,-1
 806 459 l 1,16,-1
 738 451 l 1,17,18
 226 409 226 409 205 409 c 1,19,-1
 205 401 l 1,20,21
 159 409 159 409 121 409 c 1,22,-1
 92 476 l 1,23,24
 411 510 411 510 411 522 c 0,25,26
 428 665 428 665 428 724 c 2,27,-1
 428 762 l 1,28,-1
 419 863 l 1,29,-1
 470 871 l 2,0,1
272 724 m 1,30,-1
 327 724 l 2,31,32
 369 724 369 724 411 573 c 1,33,-1
 411 531 l 1,34,-1
 360 531 l 2,35,36
 326 531 326 531 272 678 c 1,37,-1
 272 724 l 1,30,-1
507 455 m 1,38,-1
 537 455 l 2,39,40
 596 442 596 442 591 359 c 0,41,42
 578 233 578 233 579 203 c 0,43,44
 596 90 596 90 764 98 c 2,45,-1
 835 107 l 2,46,47
 860 124 860 124 860 279 c 1,48,-1
 927 279 l 1,49,50
 952 128 952 128 952 86 c 0,51,52
 952 2 952 2 806 -11 c 0,53,54
 495 -15 495 -15 482 203 c 1,55,56
 490 392 490 392 507 455 c 1,38,-1
339 443 m 1,57,-1
 411 443 l 1,58,59
 411 418 411 418 423 396 c 1,60,61
 352 169 352 169 108 23 c 1,62,-1
 108 90 l 1,63,64
 314 304 314 304 339 443 c 1,57,-1
EndSplineSet
Validated: 37
EndChar

StartChar: uni5188
Encoding: 20872 20872 9
Width: 1044
VWidth: 1126
Flags: W
LayerCount: 2
Fore
SplineSet
747 810 m 1,0,1
 848 755 848 755 848 625 c 0,2,3
 861 402 861 402 860 163 c 1,4,5
 839 -39 839 -39 789 -38 c 1,6,7
 634 33 634 33 558 96 c 1,8,-1
 558 147 l 1,9,10
 722 105 722 105 743 105 c 2,11,-1
 751 105 l 1,12,-1
 755 222 l 2,13,14
 780 709 780 709 713 709 c 1,15,-1
 671 722 l 1,16,17
 339 709 339 709 268 663 c 1,18,-1
 256 138 l 2,19,20
 256 109 256 109 260 50 c 0,21,22
 256 29 256 29 256 8 c 1,23,-1
 222 8 l 2,24,25
 172 8 172 8 172 92 c 0,26,27
 168 302 168 302 172 579 c 2,28,-1
 172 693 l 2,29,30
 167 760 167 760 747 810 c 1,0,1
583 659 m 1,31,-1
 608 613 l 1,32,33
 591 508 591 508 562 474 c 1,34,-1
 558 457 l 1,35,-1
 692 348 l 1,36,-1
 692 264 l 1,37,-1
 671 264 l 2,38,39
 633 264 633 264 512 373 c 1,40,-1
 495 352 l 1,41,42
 348 247 348 247 272 222 c 1,43,-1
 264 273 l 1,44,45
 361 332 361 332 432 424 c 0,46,47
 432 428 432 428 331 504 c 1,48,-1
 352 550 l 1,49,50
 465 500 465 500 474 499 c 0,51,52
 512 545 512 545 554 659 c 1,53,-1
 583 659 l 1,31,-1
EndSplineSet
Validated: 33
EndChar

StartChar: uni51AC
Encoding: 20908 20908 10
Width: 1044
VWidth: 1126
Flags: W
LayerCount: 2
Fore
SplineSet
395 889 m 1,0,-1
 437 881 l 2,1,2
 466 881 466 881 483 834 c 1,3,-1
 483 805 l 1,4,5
 533 813 533 813 630 839 c 0,6,7
 672 839 672 839 701 776 c 1,8,9
 541 558 541 558 542 545 c 0,10,11
 630 482 630 482 743 440 c 1,12,13
 991 398 991 398 991 356 c 0,14,15
 991 331 991 331 920 318 c 2,16,-1
 916 318 l 2,17,18
 714 326 714 326 567 423 c 0,19,20
 508 448 508 448 458 477 c 1,21,-1
 466 477 l 1,22,23
 294 305 294 305 122 284 c 1,24,-1
 17 284 l 1,25,-1
 105 347 l 1,26,27
 197 368 197 368 374 524 c 1,28,-1
 298 578 l 1,29,-1
 273 578 l 1,30,-1
 239 561 l 1,31,-1
 210 561 l 1,32,-1
 210 603 l 1,33,34
 391 763 391 763 395 847 c 2,35,-1
 395 889 l 1,0,-1
370 637 m 1,36,37
 412 603 412 603 445 599 c 1,38,39
 479 624 479 624 550 729 c 1,40,-1
 550 725 l 1,41,42
 391 696 391 696 370 637 c 1,36,37
386 364 m 1,43,-1
 420 364 l 1,44,45
 613 318 613 318 609 259 c 2,46,-1
 609 217 l 1,47,48
 592 217 592 217 592 204 c 1,49,50
 403 271 403 271 386 322 c 1,51,-1
 386 364 l 1,43,-1
374 175 m 1,52,-1
 407 167 l 2,53,54
 466 159 466 159 605 28 c 1,55,-1
 601 -77 l 1,56,-1
 546 -69 l 1,57,-1
 365 129 l 1,58,-1
 374 175 l 1,52,-1
EndSplineSet
Validated: 37
EndChar

StartChar: uni51FA
Encoding: 20986 20986 11
Width: 1044
VWidth: 1126
Flags: W
LayerCount: 2
Fore
SplineSet
474 851 m 1,0,-1
 499 851 l 1,1,2
 541 813 541 813 535 670.5 c 128,-1,3
 529 528 529 528 525 528 c 2,4,-1
 583 528 l 2,5,6
 646 528 646 528 646 540 c 2,7,-1
 646 658 l 2,8,9
 654 692 654 692 684 692 c 0,10,11
 743 692 743 692 743 549 c 2,12,-1
 743 490 l 1,13,-1
 730 414 l 1,14,15
 705 414 705 414 630 436 c 1,16,-1
 583 436 l 2,17,18
 533 432 533 432 533 423 c 2,19,-1
 533 171 l 1,20,-1
 781 171 l 2,21,22
 777 171 777 171 777 192 c 0,23,24
 769 280 769 280 768 322 c 1,25,-1
 827 322 l 1,26,27
 877 200 877 200 877 120 c 2,28,-1
 877 78 l 2,29,30
 881 70 881 70 877 38.5 c 128,-1,31
 873 7 873 7 873 -22 c 1,32,-1
 793 -43 l 1,33,34
 772 -4 772 -4 772 16 c 2,35,-1
 772 62 l 2,36,37
 764 58 764 58 688 62 c 0,38,39
 474 58 474 58 155 -10 c 1,40,-1
 142 58 l 1,41,42
 188 226 188 226 231 230 c 2,43,-1
 252 230 l 1,44,-1
 264 162 l 1,45,-1
 264 116 l 1,46,-1
 256 116 l 2,47,48
 432 124 432 124 432 154 c 2,49,-1
 432 398 l 2,50,51
 436 398 436 398 420 406 c 0,52,53
 286 360 286 360 250 360 c 128,-1,54
 214 360 214 360 214 402 c 1,55,56
 239 457 239 457 239 511 c 2,57,-1
 239 612 l 1,58,-1
 310 612 l 1,59,-1
 327 540 l 1,60,-1
 327 482 l 1,61,-1
 352 482 l 2,62,63
 423 482 423 482 432 515 c 2,64,-1
 432 843 l 1,65,-1
 474 851 l 1,0,-1
EndSplineSet
Validated: 37
EndChar

StartChar: uni5217
Encoding: 21015 21015 12
Width: 1044
VWidth: 1126
Flags: W
LayerCount: 2
Fore
SplineSet
807 847 m 1,0,-1
 870 847 l 1,1,-1
 891 763 l 1,2,-1
 908 82 l 2,3,4
 900 44 900 44 900 -23 c 1,5,-1
 870 -23 l 1,6,7
 782 11 782 11 643 145 c 1,8,-1
 643 192 l 1,9,-1
 668 192 l 2,10,11
 681 192 681 192 799 133 c 1,12,-1
 811 133 l 1,13,-1
 811 128 l 2,14,15
 807 250 807 250 807 666 c 2,16,-1
 807 847 l 1,0,-1
475 767 m 1,17,18
 522 742 522 742 522 721 c 2,19,-1
 522 712 l 2,20,21
 522 683 522 683 374 649 c 1,22,23
 357 614 357 614 358 590 c 1,24,-1
 366 586 l 1,25,-1
 488 620 l 1,26,27
 526 599 526 599 542 561 c 0,28,29
 542 544 542 544 454 376 c 1,30,-1
 454 372 l 2,31,32
 454 364 454 364 488 313 c 1,33,34
 488 276 488 276 433 276 c 2,35,-1
 404 284 l 1,36,37
 291 129 291 129 223 74 c 1,38,-1
 72 2 l 1,39,-1
 156 108 l 2,40,41
 290 268 290 268 312 322 c 1,42,43
 253 339 253 339 236 389 c 1,44,-1
 236 444 l 1,45,46
 261 418 261 418 278 422 c 0,47,48
 337 409 337 409 362 414 c 1,49,-1
 362 414 l 1,50,51
 387 438 387 438 408 506 c 1,52,53
 341 498 341 498 307 469 c 2,54,-1
 144 343 l 1,55,-1
 114 343 l 1,56,-1
 114 376 l 1,57,58
 265 548 265 548 274 624 c 1,59,60
 224 599 224 599 156 666 c 1,61,-1
 156 700 l 1,62,63
 399 754 399 754 475 767 c 1,17,18
656 620 m 0,64,65
 715 620 715 620 694 276 c 1,66,-1
 652 276 l 1,67,-1
 614 301 l 1,68,-1
 622 528 l 2,69,70
 622 541 622 541 614 565 c 0,71,72
 631 620 631 620 656 620 c 0,64,65
EndSplineSet
Validated: 37
EndChar

StartChar: uni5236
Encoding: 21046 21046 13
Width: 1044
VWidth: 1126
Flags: W
LayerCount: 2
Fore
SplineSet
356 934 m 1,0,-1
 398 934 l 1,1,-1
 436 896 l 1,2,-1
 423 867 l 1,3,-1
 428 762 l 1,4,5
 478 775 478 775 520 741 c 1,6,-1
 520 673 l 1,7,8
 423 669 423 669 423 665 c 2,9,-1
 423 627 l 2,10,11
 424 619 424 619 428 619 c 2,12,-1
 478 619 l 2,13,14
 491 619 491 619 507 640 c 1,15,16
 591 611 591 611 591 573 c 1,17,18
 566 531 566 531 512 531 c 2,19,-1
 448 531 l 2,20,21
 440 531 440 531 432 518 c 2,22,-1
 432 497 l 1,23,-1
 436 497 l 2,24,25
 486 497 486 497 486 522 c 1,26,27
 570 493 570 493 570 409 c 0,28,29
 545 170 545 170 478 169 c 1,30,31
 478 182 478 182 432 216 c 1,32,-1
 428 216 l 2,33,34
 411 212 411 212 411 174 c 2,35,-1
 411 39 l 2,36,37
 411 -28 411 -28 369 -36 c 0,38,39
 322 -36 322 -36 322 165 c 0,40,41
 330 346 330 346 331 379 c 1,42,-1
 322 384 l 1,43,-1
 302 384 l 2,44,45
 274 384 274 384 260 367 c 2,46,-1
 268 270 l 1,47,-1
 268 190 l 2,48,49
 268 156 268 156 230 157 c 2,50,-1
 192 157 l 1,51,-1
 188 224 l 1,52,-1
 188 295 l 2,53,54
 188 375 188 375 163 375 c 1,55,56
 163 430 163 430 327 480 c 0,57,58
 331 488 331 488 331 505 c 1,59,-1
 331 505 l 1,60,61
 339 505 339 505 318 510 c 0,62,63
 137 451 137 451 79 451 c 1,64,-1
 66 484 l 1,65,-1
 66 505 l 1,66,67
 175 572 175 572 213 690 c 0,68,69
 238 820 238 820 280 820 c 2,70,-1
 327 820 l 1,71,72
 327 774 327 774 318 762 c 0,73,74
 326 745 326 745 327 749 c 1,75,-1
 327 749 l 1,76,77
 339 749 339 749 356 934 c 1,0,-1
885 871 m 1,78,-1
 894 871 l 2,79,80
 923 871 923 871 940 808 c 2,81,-1
 952 136 l 1,82,-1
 978 136 l 1,83,-1
 952 94 l 1,84,-1
 952 27 l 2,85,86
 952 -65 952 -65 902 -66 c 1,87,88
 755 31 755 31 705 102 c 1,89,-1
 705 136 l 1,90,-1
 742 136 l 1,91,-1
 831 77 l 1,92,-1
 856 77 l 1,93,-1
 856 787 l 2,94,95
 848 804 848 804 848 846 c 1,96,-1
 885 871 l 1,78,-1
226 577 m 0,97,98
 230 573 l 1,99,100
 293 573 293 573 331 610 c 1,101,-1
 331 644 l 2,102,103
 331 648 331 648 327 648 c 0,104,105
 264 648 264 648 226 577 c 0,97,98
684 602 m 1,106,-1
 722 602 l 1,107,108
 739 451 739 451 738 337 c 0,109,110
 725 316 725 316 726 295 c 1,111,-1
 688 295 l 2,112,113
 663 295 663 295 646 337 c 1,114,-1
 654 438 l 1,115,-1
 650 589 l 1,116,-1
 684 602 l 1,106,-1
423 409 m 2,117,-1
 423 304 l 2,118,119
 423 296 423 296 440 287 c 2,120,-1
 465 287 l 2,121,122
 470 287 470 287 470 295 c 2,123,-1
 470 417 l 1,124,-1
 432 417 l 2,125,126
 423 413 423 413 423 409 c 2,117,-1
EndSplineSet
Validated: 33
EndChar

StartChar: uni5251
Encoding: 21073 21073 14
Width: 1044
VWidth: 1126
Flags: W
LayerCount: 2
Fore
SplineSet
883 844 m 2,0,1
 942 865 942 865 937 113 c 0,2,3
 937 -76 937 -76 883 -76 c 1,4,5
 711 33 711 33 664 100 c 1,6,-1
 710 130 l 1,7,8
 765 101 765 101 836 67 c 1,9,-1
 841 67 l 1,10,-1
 845 159 l 1,11,-1
 841 835 l 1,12,-1
 883 844 l 2,0,1
404 823 m 1,13,14
 438 802 438 802 437 781 c 2,15,-1
 429 730 l 1,16,-1
 580 634 l 1,17,18
 580 613 580 613 584 592 c 2,19,-1
 559 558 l 1,20,-1
 530 558 l 1,21,22
 450 621 450 621 404 655 c 1,23,-1
 341 520 l 1,24,-1
 341 525 l 1,25,-1
 320 525 l 2,26,27
 433 533 433 533 484 562 c 1,28,29
 551 545 551 545 551 516 c 2,30,-1
 551 508 l 2,31,32
 543 474 543 474 286 432 c 1,33,34
 156 264 156 264 93 264 c 2,35,-1
 47 264 l 1,36,37
 274 533 274 533 370 802 c 1,38,-1
 404 823 l 1,13,14
706 562 m 1,39,40
 761 562 761 562 757 466 c 0,41,42
 761 269 761 269 710 235 c 1,43,-1
 664 273 l 1,44,45
 668 433 668 433 673 483 c 2,46,-1
 673 541 l 1,47,-1
 706 562 l 1,39,40
408 226 m 1,48,49
 362 272 362 272 320 420 c 1,50,-1
 374 432 l 2,51,52
 416 428 416 428 437 331 c 0,53,54
 450 281 450 281 408 226 c 1,48,49
425 247 m 1,55,-1
 450 302 l 1,56,-1
 517 457 l 1,57,-1
 559 457 l 2,58,59
 597 457 597 457 597 407 c 1,60,61
 551 327 551 327 509 273 c 2,62,-1
 505 264 l 1,63,-1
 496 264 l 2,64,65
 509 264 509 264 605 302 c 1,66,-1
 605 239 l 1,67,68
 479 172 479 172 211 12 c 1,69,70
 165 12 165 12 164 46 c 2,71,-1
 164 92 l 1,72,73
 307 155 307 155 316 163 c 2,74,-1
 311 168 l 1,75,76
 269 168 269 168 219 319 c 0,77,78
 211 353 211 353 244 369 c 1,79,-1
 274 369 l 1,80,81
 324 289 324 289 362 201 c 1,82,-1
 408 226 l 1,83,-1
 425 247 l 1,55,-1
EndSplineSet
Validated: 37
EndChar

StartChar: uni53D1
Encoding: 21457 21457 15
Width: 1044
VWidth: 1126
Flags: W
LayerCount: 2
Fore
SplineSet
446 880 m 1,0,-1
 488 880 l 2,1,2
 526 867 526 867 526 808 c 0,3,4
 526 770 526 770 500 624 c 1,5,-1
 622 636 l 2,6,7
 643 636 643 636 660 649 c 1,8,9
 736 615 736 615 736 586 c 2,10,-1
 736 552 l 1,11,12
 438 552 438 552 438 451 c 1,13,-1
 438 451 l 1,14,15
 468 450 468 450 648 476 c 0,16,17
 669 476 669 476 719 418 c 1,18,-1
 580 204 l 1,19,-1
 580 195 l 1,20,21
 618 132 618 132 845 69 c 1,22,23
 937 64 937 64 937 14 c 2,24,-1
 937 -15 l 1,25,-1
 862 -32 l 1,26,27
 719 -32 719 -32 505 120 c 1,28,29
 324 -23 324 -23 194 -11 c 0,30,31
 169 -3 169 -3 148 -2 c 1,32,-1
 148 44 l 1,33,34
 375 103 375 103 429 178 c 2,35,-1
 438 191 l 1,36,37
 366 262 366 262 332 292 c 1,38,39
 156 140 156 140 144 140 c 2,40,-1
 43 132 l 1,41,42
 270 329 270 329 349 502 c 1,43,-1
 349 506 l 2,44,45
 349 510 349 510 345 510 c 2,46,-1
 278 510 l 2,47,48
 286 510 286 510 286 502 c 1,49,50
 248 510 248 510 219 510 c 1,51,-1
 219 544 l 1,52,-1
 307 762 l 1,53,54
 366 737 366 737 379 712 c 2,55,-1
 379 682 l 1,56,-1
 349 594 l 1,57,-1
 370 594 l 1,58,59
 441 640 441 640 442 829 c 2,60,-1
 446 880 l 1,0,-1
614 804 m 1,61,-1
 656 804 l 1,62,63
 782 762 782 762 782 703 c 0,64,65
 782 666 782 666 744 666 c 0,66,67
 614 721 614 721 614 766 c 2,68,-1
 614 804 l 1,61,-1
396 355 m 2,69,-1
 396 346 l 1,70,71
 463 266 463 266 509 266 c 0,72,73
 534 266 534 266 584 397 c 1,74,-1
 584 384 l 1,75,-1
 568 384 l 1,76,77
 396 359 396 359 396 355 c 2,69,-1
EndSplineSet
Validated: 37
EndChar

StartChar: uni53F7
Encoding: 21495 21495 16
Width: 1044
VWidth: 1126
Flags: W
LayerCount: 2
Fore
SplineSet
646 881 m 1,0,1
 692 860 692 860 705 834 c 1,2,3
 684 716 684 716 592 582 c 0,4,5
 579 582 579 582 529 595 c 0,6,7
 449 595 449 595 357 524 c 1,8,-1
 357 540 l 1,9,10
 336 540 336 540 310 662 c 0,11,12
 289 704 289 704 281 755 c 0,13,14
 281 835 281 835 411 864 c 0,15,16
 520 881 520 881 646 881 c 1,0,1
369 755 m 1,17,-1
 369 742 l 1,18,19
 403 654 403 654 415 654 c 0,20,21
 600 654 600 654 592 767 c 2,22,-1
 592 797 l 1,23,-1
 529 797 l 1,24,25
 474 814 474 814 369 755 c 1,17,-1
793 578 m 0,26,27
 932 578 932 578 932 515 c 2,28,-1
 932 498 l 2,29,30
 932 464 932 464 890 465 c 0,31,32
 831 482 831 482 646.5 471.5 c 128,-1,33
 462 461 462 461 436 419 c 1,34,-1
 428 360 l 1,35,-1
 415 360 l 1,36,37
 608 410 608 410 663 410 c 0,38,39
 730 410 730 410 751 288 c 1,40,41
 667 -2 667 -2 588 -73 c 1,42,43
 475 -52 475 -52 361 36 c 1,44,-1
 361 83 l 1,45,-1
 390 83 l 2,46,47
 424 83 424 83 499 66 c 2,48,-1
 546 58 l 1,49,50
 634 171 634 171 642 276 c 2,51,-1
 642 310 l 1,52,-1
 579 310 l 2,53,54
 541 310 541 310 331 234 c 1,55,-1
 289 297 l 1,56,57
 356 376 356 376 357 414 c 1,58,-1
 348 419 l 1,59,-1
 310 419 l 1,60,61
 218 398 218 398 142 377 c 0,62,63
 129 385 129 385 92 385 c 1,64,-1
 92 427 l 2,65,66
 92 465 92 465 567 553 c 0,67,68
 566 570 566 570 793 578 c 0,26,27
EndSplineSet
Validated: 37
EndChar

StartChar: uni540A
Encoding: 21514 21514 17
Width: 1044
VWidth: 1130
Flags: W
LayerCount: 2
Fore
SplineSet
622 857 m 1,0,1
 706 828 706 828 706 786 c 2,2,-1
 706 773 l 1,3,-1
 638 580 l 1,4,5
 537 567 537 567 538 559 c 0,6,7
 546 530 546 530 546 492 c 1,8,-1
 643 504 l 1,9,-1
 756 513 l 1,10,11
 832 484 832 484 832 399 c 0,12,13
 777 122 777 122 697 122 c 0,14,15
 668 122 668 122 584 181 c 1,16,-1
 584 240 l 1,17,-1
 605 240 l 1,18,-1
 672 227 l 2,19,20
 701 226 701 226 718 382 c 1,21,-1
 718 412 l 1,22,-1
 638 412 l 2,23,24
 541 408 541 408 538 391 c 2,25,-1
 542 34 l 2,26,27
 542 -33 542 -33 512 -113 c 1,28,-1
 462 -71 l 1,29,-1
 449 26 l 2,30,31
 436 219 436 219 441 378 c 1,32,-1
 420 378 l 1,33,-1
 286 357 l 1,34,35
 307 206 307 206 307 189 c 0,36,37
 286 168 286 168 286 152 c 1,38,-1
 235 152 l 2,39,40
 201 152 201 152 202 185 c 2,41,-1
 202 244 l 2,42,43
 202 294 202 294 176 458 c 1,44,-1
 281 458 l 2,45,46
 441 471 441 471 441 475 c 2,47,-1
 441 538 l 1,48,-1
 449 538 l 1,49,-1
 336 530 l 2,50,51
 286 530 286 530 269 769 c 0,52,53
 269 824 269 824 496 844 c 2,54,-1
 622 857 l 1,0,1
357 735 m 0,55,56
 353 646 353 646 395 634 c 0,57,58
 580 630 580 630 592 718 c 2,59,-1
 592 744 l 2,60,61
 592 748 592 748 575 756 c 0,62,63
 357 743 357 743 357 735 c 0,55,56
EndSplineSet
Validated: 37
EndChar

StartChar: uni5415
Encoding: 21525 21525 18
Width: 1044
VWidth: 1126
Flags: W
LayerCount: 2
Fore
SplineSet
563 809 m 0,0,1
 634 801 634 801 634 818 c 1,2,3
 714 784 714 784 714 750 c 2,4,-1
 714 725 l 1,5,-1
 630 486 l 2,6,7
 626 486 626 486 626 469 c 2,8,-1
 559 486 l 1,9,10
 391 457 391 457 357 448 c 1,11,12
 298 465 298 465 298 494 c 2,13,-1
 277 646 l 1,14,-1
 269 746 l 1,15,16
 332 792 332 792 563 809 c 0,0,1
361 708 m 1,17,18
 378 553 378 553 382 553 c 0,19,20
 613 550 613 550 592 688 c 1,21,-1
 592 730 l 1,22,23
 592 730 l 1,24,25
 432 722 432 722 361 708 c 1,17,18
668 402 m 1,26,27
 828 368 828 368 828 305 c 1,28,29
 752 186 752 186 722 120 c 1,30,-1
 722 116 l 2,31,32
 730 103 730 103 731 49 c 1,33,34
 722 48 722 48 722 36 c 1,35,36
 592 49 592 49 504 70 c 1,37,38
 311 66 311 66 311 49 c 0,39,40
 311 -10 311 -10 273 -10 c 1,41,42
 231 15 231 15 214 62 c 0,43,44
 214 87 214 87 218 104 c 0,45,46
 196 234 196 234 176 385 c 1,47,-1
 206 385 l 2,48,49
 235 385 235 385 273 356 c 1,50,51
 487 402 487 402 668 402 c 1,26,27
286 284 m 1,52,-1
 294 238 l 1,53,-1
 311 158 l 2,54,55
 312 154 312 154 324 142 c 0,56,57
 349 142 349 142 483 158 c 1,58,-1
 592 158 l 2,59,60
 642 166 642 166 689 297 c 0,61,62
 685 310 685 310 651 310 c 2,63,-1
 487 310 l 2,64,65
 387 310 387 310 286 284 c 1,52,-1
EndSplineSet
Validated: 37
EndChar

StartChar: uni5468
Encoding: 21608 21608 19
Width: 1044
VWidth: 1126
Flags: W
LayerCount: 2
Fore
SplineSet
605 843 m 2,0,-1
 748 848 l 2,1,2
 891 844 891 844 878 675 c 1,3,4
 907 -60 907 -60 821.5 -60 c 128,-1,5
 736 -60 736 -60 639 50 c 1,6,-1
 639 87 l 1,7,8
 740 66 740 66 778 66 c 0,9,10
 791 74 791 74 797 267.5 c 128,-1,11
 803 461 803 461 794 591 c 2,12,-1
 790 667 l 2,13,14
 794 751 794 751 731 759 c 0,15,16
 697 763 697 763 597 751 c 2,17,-1
 589 751 l 1,18,-1
 589 663 l 1,19,20
 665 684 665 684 689 646 c 1,21,-1
 689 621 l 2,22,23
 676 579 676 579 593 579 c 2,24,-1
 589 579 l 1,25,-1
 593 503 l 2,26,27
 593 507 593 507 765 524 c 1,28,-1
 778 474 l 2,29,30
 778 440 778 440 740 440 c 2,31,-1
 605 423 l 2,32,33
 567 423 567 423 370 386 c 1,34,-1
 332 386 l 1,35,36
 332 239 332 239 131 16 c 1,37,-1
 97 16 l 1,38,-1
 97 62 l 1,39,40
 257 297 257 297 257 587 c 0,41,42
 261 654 261 654 261 709 c 2,43,-1
 261 743 l 2,44,45
 261 822 261 822 605 843 c 2,0,-1
353 722 m 1,46,-1
 349 604 l 1,47,-1
 337 465 l 1,48,-1
 332 465 l 1,49,50
 504 486 504 486 500 503 c 2,51,-1
 500 528 l 1,52,-1
 505 566 l 1,53,-1
 433 562 l 1,54,-1
 400 562 l 1,55,-1
 400 596 l 2,56,57
 400 638 400 638 500 654 c 1,58,-1
 509 667 l 1,59,-1
 509 734 l 2,60,61
 509 742 509 742 496 747 c 0,62,63
 466 747 466 747 353 722 c 1,46,-1
605 398 m 1,64,65
 748 394 748 394 748 310 c 1,66,67
 698 150 698 150 643 150 c 0,68,69
 530 150 530 150 425 121 c 0,70,71
 370 121 370 121 362 352 c 1,72,73
 387 352 387 352 605 398 c 1,64,65
454 281 m 0,74,75
 458 235 458 235 458 234 c 1,76,-1
 509 234 l 2,77,78
 635 242 635 242 635 264 c 2,79,-1
 635 302 l 2,80,81
 639 310 639 310 622 310 c 2,82,-1
 568 310 l 1,83,84
 454 294 454 294 454 281 c 0,74,75
EndSplineSet
Validated: 37
EndChar

StartChar: uni54B8
Encoding: 21688 21688 20
Width: 1044
VWidth: 1126
Flags: W
LayerCount: 2
Fore
SplineSet
491 888 m 1,0,1
 541 888 541 888 596 720 c 0,2,3
 604 716 604 716 613 716 c 2,4,-1
 672 729 l 1,5,6
 731 708 731 708 731 683 c 2,7,-1
 731 636 l 1,8,9
 630 632 630 632 630 628 c 0,10,11
 651 502 651 502 710 380 c 1,12,-1
 714 456 l 1,13,-1
 706 456 l 1,14,15
 714 494 714 494 714 523 c 1,16,-1
 760 523 l 2,17,18
 781 515 781 515 794 473 c 1,19,20
 786 402 786 402 743 288 c 0,21,22
 743 242 743 242 878 95 c 1,23,-1
 886 95 l 2,24,25
 894 99 894 99 894 137 c 2,26,-1
 894 187 l 1,27,-1
 882 221 l 1,28,-1
 916 237 l 1,29,30
 971 237 971 237 974 116 c 2,31,-1
 970 11 l 1,32,-1
 978 11 l 1,33,34
 970 -27 970 -27 970 -52 c 1,35,-1
 916 -52 l 1,36,37
 815 19 815 19 697 195 c 1,38,39
 680 178 680 178 571 90 c 1,40,-1
 516 90 l 1,41,-1
 516 124 l 1,42,43
 638 242 638 242 638 275 c 2,44,-1
 529 620 l 1,45,-1
 533 620 l 1,46,47
 294 591 294 591 294 594 c 2,48,-1
 286 578 l 1,49,-1
 294 578 l 1,50,-1
 286 464 l 1,51,-1
 286 372 l 2,52,53
 286 364 286 364 311 359 c 0,54,55
 391 388 391 388 533 405 c 1,56,-1
 542 405 l 2,57,58
 562 405 562 405 600 359 c 1,59,60
 550 183 550 183 516 149 c 1,61,-1
 357 128 l 2,62,63
 277 120 277 120 252 279 c 1,64,-1
 256 279 l 1,65,66
 159 73 159 73 50 40 c 1,67,-1
 34 74 l 1,68,-1
 34 99 l 1,69,70
 105 120 105 120 197 368 c 0,71,72
 205 418 205 418 206 464 c 2,73,-1
 206 536 l 1,74,-1
 197 670 l 1,75,76
 508 687 508 687 508 716.5 c 128,-1,77
 508 746 508 746 458 872 c 1,78,-1
 491 888 l 1,0,1
617 872 m 1,79,-1
 668 872 l 2,80,81
 727 872 727 872 781 800 c 1,82,-1
 781 762 l 1,83,-1
 748 762 l 2,84,85
 681 762 681 762 617 821 c 1,86,-1
 617 872 l 1,79,-1
496 523 m 1,87,88
 551 506 551 506 550 473 c 2,89,-1
 550 443 l 1,90,91
 395 401 395 401 382 401 c 2,92,-1
 365 401 l 2,93,94
 344 401 344 401 311 452 c 1,95,-1
 311 481 l 1,96,97
 404 489 404 489 496 523 c 1,87,88
332 284 m 0,98,99
 332 259 332 259 361 216 c 1,100,101
 491 237 491 237 491 313 c 1,102,-1
 466 313 l 2,103,104
 340 309 340 309 332 284 c 0,98,99
EndSplineSet
Validated: 37
EndChar

StartChar: uni5510
Encoding: 21776 21776 21
Width: 1044
VWidth: 1126
Flags: W
LayerCount: 2
Fore
SplineSet
445 892 m 1,0,-1
 470 892 l 1,1,2
 558 875 558 875 558 837 c 2,3,-1
 554 808 l 1,4,-1
 760 829 l 1,5,-1
 785 787 l 1,6,-1
 785 736 l 1,7,8
 768 736 768 736 768 720 c 2,9,-1
 701 736 l 1,10,11
 567 736 567 736 369 678 c 1,12,-1
 369 619 l 2,13,14
 369 569 369 569 356 476 c 1,15,-1
 361 476 l 1,16,17
 558 493 558 493 558 522 c 2,18,-1
 558 526 l 2,19,20
 558 539 558 539 432 552 c 1,21,-1
 432 577 l 2,22,23
 432 615 432 615 541 619 c 1,24,-1
 541 724 l 1,25,-1
 596 724 l 1,26,27
 613 636 613 636 625 636 c 2,28,-1
 671 636 l 2,29,30
 696 636 696 636 768 652 c 1,31,32
 802 623 802 623 810 543 c 1,33,-1
 898 543 l 2,34,35
 957 543 957 543 986 493 c 0,36,37
 986 472 986 472 936 438 c 1,38,39
 894 464 894 464 831 464 c 2,40,-1
 793 464 l 2,41,42
 789 464 789 464 781 447 c 2,43,-1
 781 342 l 1,44,-1
 705 342 l 2,45,46
 642 342 642 342 634 316 c 2,47,-1
 634 300 l 1,48,-1
 768 300 l 2,49,50
 839 300 839 300 856 254 c 1,51,-1
 856 212 l 1,52,53
 822 170 822 170 751 31 c 1,54,-1
 734 31 l 2,55,56
 503 31 503 31 503 -28 c 1,57,-1
 478 -28 l 2,58,59
 419 -28 419 -28 403 186 c 1,60,-1
 403 190 l 2,61,62
 403 228 403 228 541 283 c 1,63,-1
 541 304 l 1,64,-1
 524 304 l 2,65,66
 486 304 486 304 449 287 c 0,67,68
 428 296 428 296 403 296 c 1,69,-1
 403 329 l 1,70,-1
 550 409 l 1,71,-1
 550 422 l 1,72,-1
 558 422 l 2,73,74
 335 422 335 422 310 300 c 0,75,76
 251 128 251 128 92 31 c 1,77,-1
 62 31 l 1,78,-1
 46 77 l 1,79,80
 285 224 285 224 285 652 c 0,81,82
 277 711 277 711 277 741 c 1,83,-1
 306 758 l 1,84,-1
 377 758 l 2,85,86
 411 758 411 758 491 791 c 1,87,88
 445 850 445 850 445 892 c 1,0,-1
634 543 m 2,89,-1
 634 526 l 1,90,-1
 634 522 l 1,91,-1
 705 522 l 2,92,93
 709 522 709 522 718 543 c 2,94,-1
 718 548 l 2,95,96
 718 552 718 552 701 560 c 2,97,-1
 646 560 l 2,98,99
 642 560 642 560 634 543 c 2,89,-1
634 430 m 2,100,-1
 634 417 l 1,101,-1
 688 417 l 1,102,-1
 688 442 l 1,103,-1
 646 442 l 2,104,105
 638 442 638 442 634 430 c 2,100,-1
487 174 m 0,106,107
 487 103 487 103 558 102 c 0,108,109
 747 123 747 123 747 203 c 1,110,111
 751 202 751 202 751 190 c 2,112,-1
 751 216 l 1,113,-1
 743 216 l 1,114,115
 487 191 487 191 487 174 c 0,106,107
EndSplineSet
Validated: 5
EndChar

StartChar: uni56FD
Encoding: 22269 22269 22
Width: 1044
VWidth: 1126
Flags: W
LayerCount: 2
Fore
SplineSet
546 713 m 1,0,1
 630 709 630 709 630 671 c 2,2,-1
 630 637 l 1,3,4
 508 612 508 612 508 608 c 2,5,-1
 508 599 l 2,6,7
 504 536 504 536 516 532 c 2,8,-1
 621 536 l 1,9,-1
 646 494 l 1,10,11
 646 460 646 460 520 431 c 1,12,-1
 520 322 l 1,13,-1
 588 322 l 1,14,-1
 651 318 l 2,15,16
 701 314 701 314 701 280 c 2,17,-1
 701 268 l 2,18,19
 701 226 701 226 663 226 c 2,20,-1
 579 226 l 2,21,22
 495 226 495 226 294 196 c 1,23,24
 294 221 294 221 281 268 c 1,25,26
 428 293 428 293 428 305 c 2,27,-1
 428 419 l 1,28,-1
 357 394 l 1,29,-1
 332 457 l 1,30,31
 429 503 429 503 428 515 c 2,32,-1
 428 574 l 2,33,34
 428 578 428 578 416 591 c 2,35,-1
 340 591 l 1,36,-1
 340 646 l 1,37,-1
 546 713 l 1,0,1
722 394 m 1,38,39
 726 331 726 331 672 331 c 1,40,41
 622 356 622 356 600 394 c 1,42,-1
 600 436 l 1,43,-1
 663 436 l 2,44,45
 688 432 688 432 722 394 c 1,38,39
752 112 m 1,46,-1
 760 112 l 1,47,-1
 764 230 l 2,48,49
 781 768 781 768 743 784 c 1,50,-1
 684 780 l 1,51,52
 382 776 382 776 256 734 c 1,53,54
 256 629 256 629 249.5 522 c 128,-1,55
 243 415 243 415 243 322 c 0,56,57
 243 263 243 263 247.5 192 c 128,-1,58
 252 121 252 121 252 125 c 1,59,-1
 252 125 l 1,60,61
 533 171 533 171 726 167 c 1,62,-1
 752 125 l 1,63,-1
 752 112 l 1,46,-1
710 66 m 1,64,-1
 537 66 l 2,65,66
 487 66 487 66 252 20 c 1,67,68
 155 28 155 28 151 100 c 2,69,-1
 151 360 l 2,70,71
 151 801 151 801 201 801 c 1,72,73
 294 851 294 851 668 877 c 0,74,75
 865 894 865 894 861 746 c 2,76,-1
 856 704 l 2,77,78
 864 620 864 620 869 192 c 2,79,-1
 869 7 l 2,80,81
 869 -60 869 -60 819 -73 c 1,82,83
 731 7 731 7 710 66 c 1,64,-1
EndSplineSet
Validated: 33
EndChar

StartChar: uni5730
Encoding: 22320 22320 23
Width: 1044
VWidth: 1126
Flags: W
LayerCount: 2
Fore
SplineSet
151 695 m 1,0,-1
 189 695 l 1,1,2
 265 657 265 657 239 615 c 1,3,-1
 239 527 l 1,4,-1
 340 527 l 1,5,-1
 340 438 l 1,6,7
 248 434 248 434 235 430 c 2,8,-1
 239 292 l 1,9,-1
 243 296 l 2,10,11
 277 309 277 309 294 308 c 2,12,-1
 327 308 l 1,13,-1
 327 270 l 1,14,15
 226 169 226 169 92 77 c 1,16,17
 67 98 67 98 50 98 c 2,18,-1
 25 140 l 1,19,-1
 142 224 l 1,20,-1
 147 292 l 2,21,22
 151 359 151 359 147 409 c 1,23,24
 151 409 151 409 71 405 c 1,25,-1
 46 480 l 1,26,-1
 155 510 l 1,27,-1
 155 573 l 1,28,-1
 151 695 l 1,0,-1
537 842 m 1,29,-1
 567 842 l 2,30,31
 626 829 626 829 630 678 c 2,32,-1
 630 619 l 2,33,34
 626 623 626 623 638 632 c 0,35,36
 676 653 676 653 735 661 c 1,37,38
 802 644 802 644 806 598 c 0,39,40
 777 270 777 270 743 241 c 1,41,42
 638 296 638 296 638 321 c 2,43,-1
 638 363 l 1,44,45
 702 338 702 338 710 564 c 1,46,-1
 726 564 l 1,47,48
 629 526 629 526 630 514 c 2,49,-1
 630 485 l 2,50,51
 630 288 630 288 575 287 c 1,52,-1
 533 329 l 1,53,-1
 537 422 l 1,54,-1
 537 485 l 1,55,56
 508 472 508 472 483 455 c 1,57,-1
 478 296 l 2,58,59
 474 144 474 144 558 144 c 0,60,61
 646 131 646 131 747 132 c 2,62,-1
 848 132 l 2,63,64
 877 132 877 132 882 144 c 2,65,-1
 890 300 l 1,66,-1
 945 283 l 1,67,68
 974 199 974 199 995 90 c 1,69,-1
 995 77 l 1,70,71
 974 14 974 14 928 18 c 2,72,-1
 739 14 l 2,73,74
 512 22 512 22 436 82 c 0,75,76
 381 116 381 116 386 216 c 2,77,-1
 390 413 l 1,78,-1
 348 392 l 1,79,80
 306 434 306 434 306 468 c 1,81,-1
 386 514 l 1,82,-1
 394 678 l 2,83,84
 394 724 394 724 434 724 c 128,-1,85
 474 724 474 724 478 560 c 1,86,-1
 474 560 l 1,87,-1
 542 590 l 1,88,-1
 537 842 l 1,29,-1
EndSplineSet
Validated: 37
EndChar

StartChar: uni5750
Encoding: 22352 22352 24
Width: 1044
VWidth: 1126
Flags: W
LayerCount: 2
Fore
SplineSet
453 834 m 1,0,-1
 495 826 l 2,1,2
 541 826 541 826 546 696 c 2,3,-1
 546 565 l 1,4,-1
 542 444 l 1,5,-1
 537 460 l 1,6,7
 608 544 608 544 617 658 c 2,8,-1
 621 733 l 2,9,10
 629 767 629 767 659 767 c 0,11,12
 709 767 709 767 714 649 c 1,13,14
 693 611 693 611 672 498 c 1,15,16
 856 442 856 442 856 380 c 2,17,-1
 856 326 l 1,18,-1
 819 334 l 1,19,-1
 634 427 l 2,20,21
 634 444 634 444 542 338 c 1,22,-1
 542 313 l 1,23,-1
 668 305 l 1,24,-1
 726 309 l 1,25,-1
 768 242 l 1,26,-1
 743 200 l 1,27,-1
 668 200 l 2,28,29
 584 204 584 204 542 200 c 1,30,-1
 537 128 l 1,31,-1
 533 128 l 1,32,-1
 823 116 l 1,33,34
 915 91 915 91 915 49 c 2,35,-1
 915 32 l 2,36,37
 907 -6 907 -6 676 15 c 1,38,39
 344 15 344 15 201 -10 c 1,40,41
 142 14 142 14 142 44 c 2,42,-1
 142 82 l 1,43,44
 432 102 432 102 436 128 c 2,45,-1
 432 183 l 2,46,47
 424 200 424 200 428 200 c 1,48,49
 357 179 357 179 285 183 c 1,50,-1
 285 254 l 1,51,52
 432 278 432 278 436 296 c 2,53,-1
 436 355 l 2,54,55
 428 372 428 372 361 422 c 1,56,-1
 344 427 l 1,57,58
 252 297 252 297 176 280 c 1,59,-1
 105 284 l 1,60,-1
 105 334 l 1,61,62
 236 351 236 351 332 666 c 1,63,64
 332 742 332 742 369 742 c 0,65,66
 419 738 419 738 420 662 c 0,67,68
 420 637 420 637 390 515 c 1,69,70
 436 469 436 469 445 469 c 0,71,72
 458 490 458 490 458 540 c 2,73,-1
 462 738 l 2,74,75
 453 788 453 788 453 834 c 1,0,-1
EndSplineSet
Validated: 37
EndChar

StartChar: uni5782
Encoding: 22402 22402 25
Width: 1044
VWidth: 1126
Flags: W
LayerCount: 2
Fore
SplineSet
596 855 m 1,0,-1
 626 818 l 1,1,-1
 626 771 l 1,2,3
 517 754 517 754 516 742 c 0,4,5
 520 704 520 704 525 704 c 2,6,-1
 546 704 l 2,7,8
 575 704 575 704 630 708 c 0,9,10
 701 691 701 691 701 658 c 0,11,12
 701 608 701 608 521 595 c 1,13,-1
 516 561 l 2,14,15
 520 524 520 524 525 524 c 2,16,-1
 550 524 l 2,17,18
 621 524 621 524 621 561 c 2,19,-1
 621 595 l 1,20,-1
 668 595 l 1,21,-1
 722 544 l 1,22,-1
 844 544 l 1,23,24
 978 523 978 523 978 465 c 2,25,-1
 978 435 l 1,26,27
 944 435 944 435 928 423 c 1,28,29
 857 444 857 444 836 444 c 2,30,-1
 710 444 l 2,31,32
 706 444 706 444 600 314 c 1,33,-1
 600 318 l 1,34,-1
 605 318 l 2,35,36
 731 318 731 318 752 246 c 1,37,-1
 752 204 l 1,38,39
 731 204 731 204 731 183 c 1,40,41
 672 217 672 217 598 217 c 0,42,43
 524 216 524 216 525 166 c 2,44,-1
 525 99 l 1,45,-1
 659 116 l 1,46,47
 840 87 840 87 840 24 c 2,48,-1
 840 -39 l 1,49,50
 693 16 693 16 676 15 c 0,51,52
 395 -2 395 -2 256 -39 c 0,53,54
 235 -31 235 -31 210 -31 c 1,55,-1
 210 40 l 1,56,57
 437 69 437 69 437 120 c 2,58,-1
 437 204 l 2,59,60
 437 200 437 200 428 200 c 0,61,62
 302 154 302 154 252 154 c 1,63,-1
 252 196 l 1,64,65
 315 234 315 234 315 339 c 2,66,-1
 315 368 l 1,67,-1
 290 389 l 1,68,69
 261 390 261 390 122 356 c 1,70,-1
 59 356 l 1,71,72
 59 385 59 385 38 427 c 1,73,74
 298 465 298 465 298 528 c 1,75,-1
 340 528 l 1,76,-1
 369 507 l 1,77,-1
 395 507 l 2,78,79
 437 507 437 507 437 553 c 2,80,-1
 437 570 l 2,81,82
 437 574 437 574 420 586 c 2,83,-1
 416 586 l 1,84,85
 252 562 252 562 252 566 c 2,86,-1
 210 570 l 1,87,-1
 210 637 l 1,88,89
 437 671 437 671 437 683 c 2,90,-1
 437 725 l 1,91,-1
 437 721 l 1,92,-1
 424 721 l 2,93,94
 399 721 399 721 323 700 c 1,95,-1
 306 738 l 1,96,-1
 306 776 l 1,97,98
 344 776 344 776 596 855 c 1,0,-1
533 435 m 2,99,-1
 533 326 l 1,100,-1
 529 326 l 1,101,-1
 588 427 l 1,102,-1
 588 444 l 1,103,104
 533 439 533 439 533 435 c 2,99,-1
399 410 m 1,105,106
 403 355 403 355 403 351 c 2,107,-1
 399 284 l 1,108,-1
 437 284 l 2,109,110
 445 284 445 284 445 351 c 2,111,-1
 445 410 l 2,112,113
 445 414 445 414 420 423 c 1,114,-1
 399 410 l 1,105,106
EndSplineSet
Validated: 37
EndChar

StartChar: uni591C
Encoding: 22812 22812 26
Width: 1044
VWidth: 1126
Flags: W
LayerCount: 2
Fore
SplineSet
411 863 m 1,0,-1
 470 863 l 2,1,2
 491 863 491 863 529 805 c 1,3,-1
 529 754 l 1,4,-1
 474 754 l 2,5,6
 449 754 449 754 411 809 c 1,7,-1
 411 863 l 1,0,-1
672 771 m 1,8,9
 781 767 781 767 793 695 c 1,10,11
 755 674 755 674 739 674 c 0,12,13
 697 678 697 678 676 679 c 0,14,15
 613 679 613 679 352 645 c 0,16,17
 197 641 197 641 189 687 c 2,18,-1
 189 708 l 1,19,20
 206 733 206 733 231 733 c 2,21,-1
 260 721 l 1,22,23
 542 746 542 746 672 771 c 1,8,9
537 687 m 1,24,-1
 583 687 l 1,25,26
 583 662 583 662 596 662 c 1,27,28
 558 570 558 570 558 548 c 2,29,-1
 558 544 l 2,30,31
 558 540 558 540 554 540 c 1,32,33
 697 582 697 582 772 582 c 0,34,35
 814 569 814 569 802 527 c 0,36,37
 747 363 747 363 613 208 c 1,38,39
 701 116 701 116 924 49 c 1,40,-1
 961 23 l 1,41,42
 961 -27 961 -27 873 -35 c 1,43,44
 776 -22 776 -22 541 137 c 1,45,-1
 546 137 l 1,46,47
 365 -6 365 -6 323 -6 c 2,48,-1
 289 -6 l 1,49,-1
 289 40 l 1,50,51
 478 170 478 170 478 196 c 0,52,53
 478 204 478 204 319 343 c 1,54,55
 415 443 415 443 537 687 c 1,24,-1
344 641 m 1,56,-1
 407 641 l 1,57,-1
 407 603 l 2,58,59
 407 565 407 565 268 406 c 1,60,-1
 298 301 l 1,61,62
 290 24 290 24 256 -27 c 1,63,-1
 239 -27 l 2,64,65
 201 -27 201 -27 201 15 c 0,66,67
 209 208 209 208 210 330 c 1,68,-1
 201 334 l 1,69,70
 109 246 109 246 63 246 c 1,71,-1
 63 288 l 1,72,73
 180 418 180 418 344 641 c 1,56,-1
428 347 m 0,74,75
 428 326 428 326 533 259 c 1,76,77
 588 259 588 259 676 485 c 1,78,-1
 676 473 l 1,79,-1
 680 473 l 1,80,81
 499 452 499 452 478 427 c 0,82,83
 441 381 441 381 428 347 c 0,74,75
520 452 m 1,84,85
 608 418 608 418 609 385 c 2,86,-1
 609 359 l 1,87,-1
 600 317 l 1,88,89
 482 359 482 359 478 401 c 2,90,-1
 478 431 l 1,91,92
 499 431 499 431 520 452 c 1,84,85
EndSplineSet
Validated: 37
EndChar

StartChar: uni5929
Encoding: 22825 22825 27
Width: 1044
VWidth: 1126
Flags: W
LayerCount: 2
Fore
SplineSet
534 826 m 1,0,1
 605 802 605 802 605 772 c 2,2,-1
 605 755 l 2,3,4
 605 730 605 730 479 704 c 1,5,-1
 463 574 l 1,6,-1
 479 566 l 1,7,-1
 500 566 l 1,8,-1
 698 604 l 1,9,10
 795 570 795 570 794 540 c 2,11,-1
 794 515 l 1,12,-1
 778 478 l 1,13,14
 711 495 711 495 689 494 c 0,15,16
 479 481 479 481 479 473 c 0,17,18
 727 120 727 120 950 49 c 1,19,-1
 962 24 l 1,20,-1
 962 -18 l 1,21,22
 920 -18 920 -18 807 -10 c 0,23,24
 694 15 694 15 450 385 c 0,25,26
 442 394 442 394 437 394 c 0,27,28
 370 260 370 260 311 179 c 0,29,30
 206 40 206 40 110 16 c 1,31,-1
 22 16 l 1,32,33
 287 218 287 218 349 444 c 1,34,-1
 349 448 l 1,35,-1
 332 444 l 2,36,37
 189 423 189 423 118 423 c 1,38,-1
 118 469 l 2,39,40
 118 498 118 498 366 540 c 1,41,-1
 370 578 l 1,42,-1
 374 692 l 1,43,44
 298 704 298 704 299 750 c 2,45,-1
 299 767 l 1,46,47
 412 788 412 788 534 826 c 1,0,1
EndSplineSet
Validated: 33
EndChar

StartChar: uni59CB
Encoding: 22987 22987 28
Width: 1044
VWidth: 1126
Flags: W
LayerCount: 2
Fore
SplineSet
608 826 m 1,0,-1
 646 826 l 2,1,2
 675 826 675 826 701 733 c 1,3,-1
 608 532 l 1,4,-1
 592 507 l 2,5,6
 575 507 575 507 596 502 c 0,7,8
 722 536 722 536 814 549 c 1,9,-1
 814 553 l 1,10,11
 793 578 793 578 793 637 c 1,12,-1
 835 637 l 1,13,14
 940 557 940 557 995 490 c 1,15,-1
 995 435 l 1,16,17
 932 435 932 435 902 469 c 1,18,19
 713 469 713 469 512 385 c 1,20,21
 491 406 491 406 470 406 c 1,22,-1
 470 456 l 1,23,24
 529 532 529 532 608 746 c 1,25,-1
 608 826 l 1,0,-1
323 759 m 2,26,-1
 344 759 l 1,27,-1
 360 691 l 1,28,29
 347 561 347 561 348 574 c 1,30,31
 457 570 457 570 457 490 c 0,32,33
 456 435 456 435 360 192 c 1,34,-1
 360 171 l 2,35,36
 360 167 360 167 444 78 c 1,37,-1
 444 32 l 1,38,-1
 394 32 l 1,39,40
 310 112 310 112 285 112 c 2,41,-1
 281 112 l 1,42,-1
 92 40 l 1,43,-1
 92 78 l 1,44,-1
 218 179 l 1,45,-1
 218 183 l 1,46,-1
 180 238 l 1,47,48
 180 276 180 276 222 431 c 1,49,-1
 222 435 l 1,50,-1
 88 410 l 1,51,52
 63 423 63 423 41 423 c 1,53,-1
 41 452 l 2,54,55
 41 490 41 490 251 528 c 1,56,57
 289 759 289 759 323 759 c 2,26,-1
260 263 m 2,58,59
 260 259 260 259 264 259 c 2,60,-1
 281 259 l 1,61,62
 365 335 365 335 365 469 c 1,63,-1
 369 469 l 2,64,65
 285 469 285 469 260 292 c 1,66,-1
 260 263 l 2,58,59
848 402 m 2,67,-1
 869 402 l 2,68,69
 940 402 940 402 965 330 c 1,70,71
 965 275 965 275 898 175 c 1,72,-1
 898 158 l 1,73,74
 915 82 915 82 915 53 c 1,75,76
 890 53 890 53 869 49 c 2,77,-1
 776 53 l 2,78,79
 612 53 612 53 612 -6 c 1,80,-1
 566 -6 l 2,81,82
 532 -6 532 -6 533 45 c 2,83,-1
 512 334 l 1,84,85
 621 402 621 402 848 402 c 2,67,-1
592 263 m 0,86,87
 609 145 609 145 617 145 c 2,88,-1
 734 145 l 2,89,90
 834 145 834 145 864 309 c 1,91,-1
 864 313 l 1,92,-1
 831 318 l 1,93,94
 592 318 592 318 592 263 c 0,86,87
EndSplineSet
Validated: 37
EndChar

StartChar: uni59DC
Encoding: 23004 23004 29
Width: 1044
VWidth: 1126
Flags: W
LayerCount: 2
Fore
SplineSet
596 886 m 1,0,-1
 654 886 l 2,1,2
 675 886 675 886 709 835 c 1,3,-1
 709 814 l 1,4,5
 650 754 650 754 650 738 c 2,6,-1
 667 718 l 1,7,-1
 667 671 l 1,8,-1
 545 659 l 1,9,-1
 545 638 l 2,10,11
 545 625 545 625 667 617 c 1,12,-1
 667 541 l 1,13,14
 545 541 545 541 545 503 c 2,15,-1
 545 478 l 1,16,-1
 562 478 l 2,17,18
 604 478 604 478 726 503 c 1,19,20
 781 474 781 474 789 453 c 0,21,22
 789 403 789 403 507 373 c 1,23,-1
 486 310 l 1,24,-1
 495 310 l 2,25,26
 650 323 650 323 696 323 c 2,27,-1
 780 323 l 2,28,29
 1003 331 1003 331 1003 247 c 2,30,-1
 1003 234 l 1,31,-1
 974 205 l 1,32,33
 882 234 882 234 680 234 c 1,34,35
 672 196 672 196 591 92 c 1,36,37
 746 37 746 37 780 -9 c 1,38,39
 788 -68 788 -68 789 -102 c 1,40,41
 516 24 516 24 499 24 c 0,42,43
 394 -18 394 -18 213 -64 c 1,44,-1
 192 -13 l 1,45,46
 331 42 331 42 373 71 c 2,47,-1
 364 62 l 1,48,-1
 264 88 l 1,49,-1
 264 125 l 1,50,-1
 327 201 l 1,51,-1
 327 192 l 1,52,-1
 108 180 l 1,53,-1
 41 192 l 1,54,-1
 41 256 l 1,55,-1
 108 260 l 1,56,-1
 230 272 l 1,57,58
 406 272 406 272 406 365 c 1,59,-1
 419 365 l 1,60,-1
 415 365 l 2,61,62
 381 365 381 365 243 348 c 1,63,-1
 222 377 l 1,64,65
 222 406 222 406 448 466 c 1,66,-1
 448 503 l 1,67,-1
 448 499 l 1,68,-1
 373 491 l 2,69,70
 356 499 356 499 327 499 c 1,71,-1
 327 562 l 1,72,73
 424 562 424 562 465 612 c 1,74,-1
 465 612 l 1,75,76
 452 641 452 641 436 642 c 2,77,-1
 373 621 l 1,78,79
 352 642 352 642 327 642 c 1,80,-1
 327 671 l 1,81,-1
 419 722 l 1,82,-1
 381 793 l 1,83,-1
 381 844 l 1,84,-1
 415 844 l 1,85,-1
 516 751 l 1,86,-1
 520 751 l 1,87,88
 596 802 596 802 596 886 c 1,0,-1
373 142 m 1,89,90
 436 130 436 130 474 130 c 2,91,-1
 507 130 l 1,92,-1
 570 214 l 1,93,-1
 570 222 l 1,94,95
 381 222 381 222 381 159 c 1,96,-1
 373 142 l 1,89,90
EndSplineSet
Validated: 37
EndChar

StartChar: uni5B57
Encoding: 23383 23383 30
Width: 1044
VWidth: 1126
Flags: W
LayerCount: 2
Fore
SplineSet
466 880 m 0,0,1
 500 876 500 876 520 817 c 1,2,-1
 617 821 l 2,3,4
 840 825 840 825 839 721 c 1,5,6
 684 616 684 616 629 616 c 1,7,-1
 629 649 l 1,8,9
 696 712 696 712 696 721 c 0,10,11
 675 742 675 742 537 733 c 0,12,13
 285 695 285 695 285 687 c 2,14,-1
 289 540 l 1,15,-1
 256 540 l 2,16,17
 218 544 218 544 197 586 c 1,18,-1
 197 658 l 2,19,20
 197 687 197 687 180 687 c 1,21,22
 180 767 180 767 419 792 c 1,23,-1
 419 792 l 1,24,25
 402 826 402 826 382 851 c 1,26,-1
 382 884 l 1,27,28
 442 897 442 897 466 880 c 0,0,1
570 653 m 0,29,30
 591 640 591 640 617 641 c 1,31,-1
 617 590 l 1,32,33
 558 514 558 514 499 448 c 1,34,35
 524 435 524 435 558 389 c 1,36,37
 638 389 638 389 776 393 c 0,38,39
 906 401 906 401 906 351 c 0,40,41
 898 330 898 330 898 309 c 1,42,-1
 583 296 l 1,43,44
 604 187 604 187 604 154 c 0,45,46
 604 53 604 53 516 -61 c 1,47,48
 361 10 361 10 335 53 c 1,49,-1
 335 86 l 1,50,-1
 365 86 l 1,51,52
 458 69 458 69 466 70 c 2,53,-1
 478 70 l 2,54,55
 486 70 486 70 512 145 c 1,56,57
 512 292 512 292 491 288 c 2,58,-1
 470 288 l 1,59,-1
 142 259 l 1,60,-1
 130 292 l 1,61,-1
 130 330 l 1,62,-1
 453 364 l 1,63,-1
 453 372 l 1,64,-1
 407 427 l 1,65,66
 407 473 407 473 470 548 c 1,67,-1
 470 548 l 1,68,69
 404 531 404 531 340 548 c 1,70,-1
 327 574 l 1,71,-1
 327 599 l 1,72,73
 436 636 436 636 570 653 c 0,29,30
EndSplineSet
Validated: 37
EndChar

StartChar: uni5B87
Encoding: 23431 23431 31
Width: 1044
VWidth: 1126
Flags: W
LayerCount: 2
Fore
SplineSet
423 864 m 1,0,-1
 474 864 l 2,1,2
 550 860 550 860 549 814 c 1,3,-1
 528 767 l 1,4,5
 423 796 423 796 423 839 c 2,6,-1
 423 864 l 1,0,-1
654 776 m 1,7,8
 889 776 889 776 873 700 c 1,9,-1
 873 675 l 1,10,11
 709 574 709 574 663 574 c 1,12,-1
 663 604 l 1,13,14
 739 667 739 667 738 688 c 1,15,16
 696 709 696 709 616 692 c 2,17,-1
 276 650 l 1,18,-1
 289 549 l 1,19,-1
 289 515 l 1,20,-1
 251 515 l 2,21,22
 222 515 222 515 184 688 c 0,23,24
 192 705 192 705 192 734 c 1,25,-1
 222 734 l 1,26,27
 251 713 251 713 255 713 c 0,28,29
 335 742 335 742 654 776 c 1,7,8
587 633 m 0,30,31
 616 625 616 625 646 625 c 1,32,-1
 646 570 l 1,33,34
 591 549 591 549 570 545 c 1,35,-1
 574 536 l 2,36,37
 587 507 587 507 591 469 c 1,38,-1
 797 490 l 2,39,40
 885 490 885 490 889 440 c 2,41,-1
 889 419 l 1,42,-1
 877 385 l 1,43,-1
 742 394 l 1,44,-1
 591 373 l 1,45,-1
 591 335 l 2,46,47
 599 -60 599 -60 520 -60 c 1,48,49
 453 -31 453 -31 381 66 c 1,50,-1
 381 95 l 1,51,52
 431 95 431 95 478 66 c 0,53,54
 495 70 495 70 495 108 c 2,55,-1
 499 352 l 1,56,-1
 490 364 l 1,57,58
 381 356 381 356 213 318 c 0,59,60
 175 322 175 322 159 339 c 1,61,-1
 159 389 l 1,62,63
 424 448 424 448 486 457 c 1,64,65
 486 533 486 533 482 532 c 2,66,-1
 432 520 l 1,67,68
 386 533 386 533 360 532 c 1,69,-1
 360 557 l 2,70,71
 360 595 360 595 587 633 c 0,30,31
EndSplineSet
Validated: 37
EndChar

StartChar: uni5B98
Encoding: 23448 23448 32
Width: 1044
VWidth: 1126
Flags: W
LayerCount: 2
Fore
SplineSet
398 892 m 1,0,1
 544 850 544 850 544 821 c 0,2,3
 544 779 544 779 498 779 c 0,4,5
 398 800 398 800 398 838 c 2,6,-1
 398 892 l 1,0,1
692 792 m 1,7,-1
 738 792 l 1,8,9
 935 754 935 754 935 716 c 2,10,-1
 935 695 l 1,11,12
 742 531 742 531 662 531 c 1,13,14
 633 485 633 485 633 468 c 2,15,-1
 633 384 l 1,16,17
 398 346 398 346 398 330 c 2,18,-1
 402 271 l 2,19,20
 402 258 402 258 423 262 c 0,21,22
 587 300 587 300 641 300 c 2,23,-1
 708 300 l 2,24,25
 763 300 763 300 801 246 c 0,26,27
 801 229 801 229 746 128 c 1,28,-1
 746 128 l 1,29,30
 771 48 771 48 771 36 c 0,31,32
 754 7 754 7 725 6 c 2,33,-1
 666 23 l 1,34,-1
 603 23 l 2,35,36
 364 24 364 24 364 -52 c 1,37,-1
 305 -52 l 1,38,39
 313 364 313 364 326 418 c 2,40,-1
 322 506 l 1,41,-1
 314 586 l 1,42,-1
 666 649 l 1,43,44
 666 611 666 611 696 607 c 1,45,46
 780 649 780 649 780 695 c 0,47,48
 776 699 776 699 675 708 c 1,49,50
 247 662 247 662 246 615 c 0,51,52
 254 514 254 514 225 414 c 1,53,54
 154 439 154 439 156 483 c 128,-1,55
 158 527 158 527 158 548 c 2,56,-1
 158 615 l 2,57,58
 158 636 158 636 133 733 c 1,59,60
 146 734 146 734 146 746 c 2,61,-1
 196 733 l 1,62,-1
 250 733 l 2,63,64
 292 733 292 733 692 792 c 1,7,-1
410 418 m 1,65,-1
 414 414 l 1,66,67
 578 443 578 443 578 540 c 2,68,-1
 578 531 l 1,69,-1
 519 531 l 2,70,71
 418 531 418 531 418 489 c 0,72,73
 410 443 410 443 410 418 c 1,65,-1
389 103 m 2,74,75
 390 94 390 94 398 94 c 2,76,-1
 418 94 l 1,77,78
 674 112 674 112 675 158 c 2,79,-1
 675 212 l 1,80,81
 381 208 381 208 389 132 c 2,82,-1
 389 103 l 2,74,75
EndSplineSet
Validated: 37
EndChar

StartChar: uni5B99
Encoding: 23449 23449 33
Width: 1044
VWidth: 1126
Flags: W
LayerCount: 2
Fore
SplineSet
378 851 m 1,0,-1
 407 851 l 1,1,2
 516 817 516 817 516 775 c 2,3,-1
 516 725 l 1,4,-1
 483 725 l 2,5,6
 462 725 462 725 378 792 c 1,7,-1
 378 851 l 1,0,-1
781 737 m 1,8,9
 903 687 903 687 903 615 c 1,10,11
 756 527 756 527 672 527 c 1,12,-1
 672 569 l 1,13,14
 743 649 743 649 743 645 c 1,15,16
 726 662 726 662 684 653 c 0,17,18
 466 657 466 657 222 599 c 1,19,20
 235 376 235 376 176 439 c 0,21,22
 155 439 155 439 134 494 c 0,23,24
 130 536 130 536 130 582 c 2,25,-1
 130 590 l 2,26,27
 130 607 130 607 109 674 c 1,28,-1
 109 712 l 1,29,-1
 214 691 l 1,30,31
 659 754 659 754 781 737 c 1,8,9
466 607 m 1,32,33
 529 590 529 590 521 456 c 1,34,-1
 701 464 l 2,35,36
 768 464 768 464 832 363 c 1,37,38
 803 111 803 111 697 -15 c 1,39,40
 658 -15 658 -15 642 -6 c 2,41,-1
 424 -6 l 1,42,-1
 306 -15 l 2,43,44
 235 -15 235 -15 218 32 c 1,45,-1
 218 61 l 1,46,47
 193 229 193 229 189 359 c 1,48,49
 223 451 223 451 441 452 c 1,50,-1
 428 594 l 1,51,-1
 466 607 l 1,32,33
521 355 m 1,52,-1
 529 284 l 1,53,-1
 609 288 l 1,54,-1
 668 288 l 1,55,-1
 655 229 l 2,56,57
 655 191 655 191 525 174 c 1,58,-1
 525 90 l 1,59,-1
 638 90 l 1,60,61
 688 107 688 107 714 355 c 0,62,63
 706 368 706 368 689 368 c 0,64,65
 584 363 584 363 521 355 c 1,52,-1
290 258 m 2,66,67
 290 77 290 77 332 78 c 2,68,-1
 437 86 l 1,69,-1
 437 187 l 2,70,71
 437 170 437 170 428 170 c 2,72,-1
 298 170 l 1,73,-1
 298 233 l 1,74,75
 319 254 319 254 437 279 c 1,76,-1
 437 351 l 1,77,-1
 395 347 l 2,78,79
 290 347 290 347 286 330 c 2,80,-1
 290 258 l 2,66,67
EndSplineSet
Validated: 37
EndChar

StartChar: uni5BD2
Encoding: 23506 23506 34
Width: 1044
VWidth: 1126
Flags: W
LayerCount: 2
Fore
SplineSet
381 888 m 1,0,-1
 432 888 l 1,1,-1
 516 854 l 1,2,-1
 512 787 l 1,3,-1
 474 787 l 2,4,5
 411 791 411 791 381 859 c 1,6,-1
 381 888 l 1,0,-1
659 812 m 1,7,8
 861 799 861 799 860 733 c 2,9,-1
 860 720 l 1,10,11
 688 602 688 602 642 602 c 2,12,-1
 621 602 l 1,13,-1
 621 649 l 1,14,15
 663 674 663 674 701 720 c 1,16,-1
 696 720 l 2,17,18
 654 720 654 720 591 724 c 0,19,20
 415 716 415 716 415 708 c 0,21,22
 411 666 411 666 440 657 c 0,23,24
 507 653 507 653 512 720 c 1,25,-1
 537 720 l 2,26,27
 566 720 566 720 596 649 c 1,28,-1
 591 582 l 1,29,30
 679 561 679 561 680 535 c 0,31,32
 680 493 680 493 570 481 c 1,33,-1
 575 456 l 1,34,-1
 633 456 l 1,35,36
 679 473 679 473 663 384 c 1,37,38
 764 266 764 266 986 199 c 1,39,-1
 995 166 l 1,40,-1
 995 136 l 1,41,-1
 957 136 l 1,42,43
 806 119 806 119 562 363 c 1,44,-1
 558 363 l 2,45,46
 386 366 386 366 360 266 c 1,47,48
 255 132 255 132 117 65 c 1,49,-1
 45 65 l 1,50,51
 272 254 272 254 285 317 c 2,52,-1
 285 308 l 1,53,54
 239 291 239 291 222 292 c 2,55,-1
 201 292 l 1,56,-1
 201 350 l 1,57,58
 356 392 356 392 356 409 c 2,59,-1
 356 439 l 1,60,-1
 365 439 l 1,61,-1
 251 430 l 1,62,-1
 251 489 l 1,63,-1
 356 514 l 1,64,-1
 360 552 l 2,65,66
 360 556 360 556 306 560 c 1,67,-1
 306 602 l 1,68,69
 352 644 352 644 352 661 c 0,70,71
 348 690 348 690 327 691 c 0,72,73
 298 695 298 695 247 678 c 1,74,-1
 243 510 l 1,75,-1
 209 510 l 2,76,77
 188 510 188 510 159 560 c 1,78,-1
 159 632 l 1,79,-1
 150 766 l 1,80,-1
 180 766 l 2,81,82
 205 766 205 766 213 762 c 2,83,-1
 659 812 l 1,7,8
432 565 m 0,84,85
 445 548 445 548 444 548 c 1,86,-1
 470 544 l 2,87,88
 504 544 504 544 507 560 c 2,89,-1
 507 590 l 1,90,91
 507 590 l 1,92,-1
 486 590 l 2,93,94
 432 594 432 594 432 565 c 0,84,85
440 464 m 1,95,-1
 440 443 l 1,96,-1
 478 439 l 1,97,-1
 478 460 l 1,98,-1
 440 464 l 1,95,-1
465 292 m 0,99,100
 583 250 583 250 583 220 c 2,101,-1
 583 178 l 1,102,103
 558 178 558 178 541 170 c 0,104,105
 470 170 470 170 423 254 c 1,106,107
 431 300 431 300 465 292 c 0,99,100
398 132 m 1,108,-1
 453 132 l 1,109,110
 613 48 613 48 612 31 c 2,111,-1
 608 -40 l 1,112,113
 532 -40 532 -40 398 86 c 1,114,-1
 398 132 l 1,108,-1
EndSplineSet
Validated: 37
EndChar

StartChar: uni5C81
Encoding: 23681 23681 35
Width: 1044
VWidth: 1126
Flags: W
LayerCount: 2
Fore
SplineSet
467 885 m 1,0,-1
 513 885 l 2,1,2
 538 885 538 885 572 830 c 1,3,-1
 563 759 l 1,4,-1
 559 700 l 1,5,6
 706 704 706 704 706 717 c 2,7,-1
 706 822 l 1,8,-1
 752 822 l 2,9,10
 802 822 802 822 820 675 c 1,11,-1
 820 595 l 1,12,-1
 790 595 l 2,13,14
 769 595 769 595 715 629 c 1,15,-1
 547 608 l 2,16,17
 530 608 530 608 509 545 c 1,18,-1
 488 545 l 1,19,-1
 685 570 l 1,20,21
 740 553 740 553 740 524 c 0,22,23
 664 381 664 381 664 364 c 0,24,25
 664 360 664 360 706 310 c 1,26,-1
 689 213 l 1,27,-1
 626 255 l 1,28,-1
 610 263 l 1,29,30
 585 229 585 229 492 125 c 1,31,32
 143 -182 143 -182 215 -22 c 1,33,34
 433 192 433 192 505 314 c 1,35,36
 438 364 438 364 437 389 c 2,37,-1
 437 423 l 1,38,39
 559 402 559 402 571.5 402 c 128,-1,40
 584 402 584 402 610 478 c 1,41,-1
 610 469 l 1,42,-1
 622 469 l 2,43,44
 488 477 488 477 414.5 393.5 c 128,-1,45
 341 310 341 310 164 234 c 1,46,47
 378 456 378 456 437 582 c 1,48,-1
 446 582 l 2,49,50
 387 582 387 582 286 549 c 1,51,-1
 248 549 l 1,52,53
 248 675 248 675 269 767 c 1,54,-1
 349 763 l 1,55,-1
 349 658 l 1,56,-1
 353 658 l 1,57,58
 433 676 433 676 458 688 c 1,59,-1
 467 885 l 1,0,-1
EndSplineSet
Validated: 37
EndChar

StartChar: uni5DE8
Encoding: 24040 24040 36
Width: 1044
VWidth: 1126
Flags: W
LayerCount: 2
Fore
SplineSet
646 822 m 1,0,-1
 697 780 l 1,1,2
 697 734 697 734 663 733 c 2,3,-1
 537 733 l 2,4,5
 453 733 453 733 331 691 c 1,6,-1
 289 691 l 1,7,8
 289 561 289 561 302 561 c 2,9,-1
 314 561 l 1,10,-1
 634 612 l 1,11,12
 684 587 684 587 697 565 c 1,13,-1
 646 393 l 1,14,-1
 646 381 l 1,15,-1
 663 297 l 1,16,17
 289 280 289 280 289 250 c 0,18,19
 289 158 289 158 268 91 c 1,20,-1
 256 91 l 2,21,22
 396 104 396 104 756 120 c 0,23,24
 819 120 819 120 852 61 c 1,25,-1
 852 11 l 1,26,-1
 487 19 l 1,27,-1
 230 -2 l 2,28,29
 175 2 175 2 176 70 c 0,30,31
 210 209 210 209 210 385 c 2,32,-1
 210 578 l 1,33,-1
 197 704 l 2,34,35
 197 776 197 776 646 822 c 1,0,-1
298 469 m 2,36,-1
 298 360 l 1,37,-1
 319 351 l 1,38,39
 579 359 579 359 579 452 c 2,40,-1
 575 511 l 2,41,42
 575 515 575 515 571 515 c 0,43,44
 306 469 306 469 298 469 c 2,36,-1
EndSplineSet
Validated: 37
EndChar

StartChar: uni5E08
Encoding: 24072 24072 37
Width: 1044
VWidth: 1130
Flags: W
LayerCount: 2
Fore
SplineSet
667 823 m 1,0,-1
 679 823 l 2,1,2
 708 823 708 823 721 773 c 2,3,-1
 721 739 l 1,4,5
 633 722 633 722 641 723 c 2,6,-1
 646 597 l 1,7,-1
 847 630 l 1,8,9
 944 571 944 571 944 525 c 2,10,-1
 864 277 l 2,11,12
 851 231 851 231 814 181 c 1,13,-1
 797 181 l 2,14,15
 755 181 755 181 658 256 c 1,16,-1
 675 298 l 1,17,-1
 755 290 l 1,18,19
 801 340 801 340 835 508 c 1,20,-1
 835 529 l 1,21,-1
 805 534 l 1,22,23
 666 534 666 534 646 517 c 1,24,25
 659 416 659 416 650 164 c 2,26,-1
 650 88 l 1,27,-1
 641 -75 l 1,28,-1
 578 -75 l 1,29,-1
 570 67 l 1,30,-1
 566 492 l 1,31,-1
 562 492 l 2,32,33
 524 492 524 492 440 479 c 1,34,-1
 440 487 l 1,35,36
 465 365 465 365 465 282 c 2,37,-1
 465 256 l 2,38,39
 465 218 465 218 406 219 c 1,40,-1
 406 219 l 1,41,42
 385 219 385 219 377 378 c 1,43,-1
 347 538 l 1,44,45
 544 580 544 580 566 588 c 1,46,-1
 566 597 l 2,47,48
 562 706 562 706 574 710 c 1,49,50
 515 697 515 697 473 697 c 1,51,-1
 457 748 l 1,52,-1
 457 760 l 2,53,54
 457 785 457 785 667 823 c 1,0,-1
242 798 m 1,55,-1
 276 798 l 1,56,57
 331 777 331 777 331 693 c 2,58,-1
 331 655 l 2,59,60
 331 311 331 311 268 164 c 128,-1,61
 205 17 205 17 129 17 c 1,62,-1
 129 46 l 1,63,64
 247 315 247 315 247 441 c 2,65,-1
 247 639 l 1,66,-1
 242 798 l 1,55,-1
158 601 m 1,67,68
 208 563 208 563 209 370 c 1,69,-1
 175 361 l 1,70,-1
 154 361 l 2,71,72
 112 369 112 369 112 450 c 2,73,-1
 112 534 l 2,74,75
 116 601 116 601 158 601 c 1,67,68
EndSplineSet
Validated: 37
EndChar

StartChar: uni5E1D
Encoding: 24093 24093 38
Width: 1040
VWidth: 1126
Flags: W
LayerCount: 2
Fore
SplineSet
431 931 m 1,0,1
 498 881 498 881 544 851 c 1,2,3
 628 860 628 860 678 860 c 0,4,5
 699 860 699 860 746 801 c 1,6,-1
 678 767 l 1,7,-1
 628 780 l 2,8,9
 590 780 590 780 552 683 c 0,10,11
 540 683 540 683 532 666 c 1,12,-1
 574 666 l 1,13,14
 738 683 738 683 758 683 c 2,15,-1
 775 683 l 1,16,17
 930 658 930 658 930 616 c 128,-1,18
 930 574 930 574 750 511 c 1,19,-1
 750 557 l 1,20,-1
 767 586 l 1,21,-1
 767 582 l 2,22,23
 754 582 754 582 716 595 c 0,24,25
 246 578 246 578 246 540 c 2,26,-1
 246 351 l 1,27,-1
 208 351 l 2,28,29
 187 351 187 351 162 393 c 0,30,31
 162 414 162 414 174 502 c 1,32,33
 154 599 154 599 154 637 c 1,34,-1
 179 637 l 2,35,36
 238 628 238 628 267 628 c 0,37,38
 355 628 355 628 359 650 c 2,39,-1
 359 687 l 2,40,41
 359 750 359 750 292 788 c 1,42,43
 292 843 292 843 414 843 c 2,44,-1
 418 843 l 1,45,-1
 418 838 l 1,46,-1
 380 889 l 1,47,48
 381 931 381 931 431 931 c 1,0,1
431 763 m 2,49,50
 431 776 431 776 443 666 c 1,51,-1
 439 666 l 1,52,53
 506 721 506 721 506 767 c 2,54,-1
 506 763 l 1,55,-1
 431 763 l 2,49,50
452 578 m 1,56,57
 528 578 528 578 544 519 c 1,58,-1
 552 519 l 2,59,60
 745 519 745 519 746 431 c 2,61,-1
 746 393 l 1,62,63
 679 221 679 221 649 221 c 2,64,-1
 590 221 l 1,65,-1
 590 272 l 1,66,67
 653 322 653 322 653 435 c 1,68,-1
 645 440 l 1,69,-1
 565 440 l 2,70,71
 561 440 561 440 561 431 c 0,72,73
 552 175 552 175 552 57 c 0,74,75
 552 28 552 28 544 -106 c 1,76,-1
 481 -115 l 1,77,-1
 477 66 l 1,78,-1
 460 414 l 1,79,-1
 418 414 l 2,80,81
 376 414 376 414 368 393 c 2,82,-1
 368 188 l 1,83,-1
 338 188 l 2,84,85
 322 188 322 188 280 242 c 1,86,-1
 292 272 l 1,87,-1
 292 280 l 2,88,89
 292 339 292 339 284 490 c 1,90,-1
 460 494 l 2,91,92
 456 494 456 494 452 578 c 1,56,57
EndSplineSet
Validated: 37
EndChar

StartChar: uni5E73
Encoding: 24179 24179 39
Width: 1044
VWidth: 1126
Flags: W
LayerCount: 2
Fore
SplineSet
603 844 m 1,0,1
 679 823 679 823 679 789 c 2,2,-1
 679 760 l 1,3,4
 528 726 528 726 372 726 c 0,5,6
 301 739 301 739 301 785 c 1,7,-1
 360 819 l 1,8,-1
 423 806 l 1,9,10
 603 827 603 827 603 844 c 1,0,1
461 726 m 1,11,-1
 524 726 l 1,12,13
 545 621 545 621 540 525 c 1,14,-1
 540 525 l 1,15,16
 611 596 611 596 650 705 c 1,17,-1
 687 705 l 2,18,19
 729 705 729 705 729 672 c 2,20,-1
 729 613 l 1,21,-1
 591 478 l 1,22,-1
 839 487 l 2,23,24
 936 487 936 487 956 424 c 1,25,-1
 956 373 l 1,26,-1
 927 373 l 1,27,28
 839 402 839 402 713 386 c 1,29,30
 558 390 558 390 553 369 c 0,31,32
 540 226 540 226 545 -5 c 1,33,34
 528 -72 528 -72 494.5 -72 c 128,-1,35
 461 -72 461 -72 461 -34 c 2,36,-1
 461 365 l 1,37,-1
 389 365 l 2,38,39
 347 365 347 365 162 340 c 0,40,41
 128 348 128 348 108 348 c 1,42,-1
 108 373 l 2,43,44
 108 407 108 407 461 466 c 1,45,-1
 461 726 l 1,11,-1
288 680 m 1,46,-1
 339 680 l 2,47,48
 385 680 385 680 427 466 c 1,49,-1
 385 453 l 1,50,51
 326 453 326 453 288 680 c 1,46,-1
EndSplineSet
Validated: 37
EndChar

StartChar: uni5F20
Encoding: 24352 24352 40
Width: 1044
VWidth: 1126
Flags: W
LayerCount: 2
Fore
SplineSet
432 856 m 1,0,-1
 490 856 l 1,1,2
 507 797 507 797 520 768 c 2,3,-1
 512 705 l 1,4,-1
 512 612 l 2,5,6
 512 591 512 591 507 591 c 2,7,-1
 512 591 l 1,8,9
 596 667 596 667 667 810 c 1,10,-1
 692 810 l 2,11,12
 726 810 726 810 742 768 c 1,13,-1
 742 734 l 1,14,15
 650 632 650 632 524 532 c 1,16,-1
 524 537 l 1,17,-1
 541 537 l 1,18,-1
 806 591 l 1,19,20
 852 574 852 574 877 532 c 1,21,22
 878 498 878 498 554 453 c 1,23,-1
 558 453 l 1,24,25
 856 209 856 209 965 188 c 1,26,27
 1011 154 1011 154 1011 138 c 2,28,-1
 1011 100 l 1,29,30
 788 92 788 92 554 369 c 1,31,-1
 516 394 l 1,32,-1
 507 394 l 1,33,-1
 512 243 l 1,34,-1
 512 163 l 2,35,36
 520 142 520 142 520 146 c 2,37,-1
 524 146 l 1,38,-1
 658 264 l 1,39,-1
 658 201 l 1,40,41
 528 33 528 33 486 -64 c 1,42,43
 452 -64 452 -64 415 -9 c 1,44,45
 419 302 419 302 432 419 c 1,46,-1
 415 423 l 1,47,-1
 373 419 l 1,48,-1
 373 406 l 1,49,-1
 381 406 l 1,50,-1
 373 373 l 1,51,-1
 373 344 l 2,52,53
 374 201 374 201 260 -22 c 1,54,-1
 213 -22 l 1,55,56
 150 12 150 12 33 108 c 1,57,-1
 33 163 l 1,58,-1
 62 163 l 1,59,-1
 180 87 l 1,60,-1
 196 87 l 2,61,62
 246 87 246 87 280 352 c 1,63,-1
 272 356 l 1,64,-1
 255 356 l 2,65,66
 200 356 200 356 92 314 c 0,67,68
 54 314 54 314 54 356 c 2,69,-1
 54 373 l 1,70,71
 79 398 79 398 125 587 c 1,72,73
 272 587 272 587 289 696 c 1,74,-1
 289 688 l 2,75,76
 293 688 293 688 276 696 c 2,77,-1
 176 680 l 1,78,79
 105 693 105 693 104 726 c 2,80,-1
 104 751 l 1,81,-1
 339 793 l 1,82,-1
 390 751 l 1,83,84
 356 533 356 533 255 532.5 c 128,-1,85
 154 532 154 532 154 423 c 1,86,-1
 171 423 l 2,87,88
 318 427 318 427 318 474 c 1,89,90
 431 504 431 504 432 512 c 2,91,-1
 432 856 l 1,0,-1
EndSplineSet
Validated: 37
EndChar

StartChar: uni5F80
Encoding: 24448 24448 41
Width: 1044
VWidth: 1126
Flags: W
LayerCount: 2
Fore
SplineSet
529 805 m 1,0,1
 596 805 596 805 672 704 c 1,2,-1
 786 713 l 2,3,4
 807 713 807 713 861 629 c 1,5,6
 672 616 672 616 672 608 c 0,7,8
 676 486 676 486 680 486 c 2,9,-1
 722 486 l 1,10,-1
 781 503 l 1,11,-1
 806 448 l 1,12,-1
 806 440 l 2,13,14
 806 384 806 384 685 372 c 1,15,16
 668 221 668 221 676 167 c 1,17,-1
 886 171 l 2,18,19
 948 171 948 171 974 87 c 1,20,-1
 962 49 l 1,21,-1
 865 62 l 1,22,23
 722 54 722 54 613 53 c 2,24,-1
 378 45 l 2,25,26
 357 53 357 53 340 53 c 1,27,-1
 340 142 l 1,28,29
 571 155 571 155 571 167 c 2,30,-1
 576 238 l 1,31,-1
 576 347 l 1,32,-1
 588 347 l 2,33,34
 491 334 491 334 458 335 c 1,35,-1
 445 368 l 1,36,-1
 445 389 l 2,37,38
 445 414 445 414 580 456 c 1,39,-1
 588 473 l 1,40,-1
 588 574 l 2,41,42
 588 582 588 582 567 595 c 1,43,44
 483 570 483 570 466.5 574 c 128,-1,45
 450 578 450 578 428 578 c 1,46,-1
 428 650 l 1,47,-1
 576 679 l 1,48,-1
 576 692 l 1,49,-1
 529 750 l 1,50,-1
 529 805 l 1,0,1
298 784 m 1,51,-1
 328 784 l 1,52,-1
 357 692 l 1,53,-1
 189 582 l 1,54,-1
 151 582 l 1,55,-1
 151 612 l 1,56,-1
 298 784 l 1,51,-1
307 591 m 1,57,-1
 349 591 l 1,58,-1
 366 524 l 1,59,60
 312 469 312 469 282 452 c 1,61,62
 295 364 295 364 294 326 c 2,63,-1
 273 3 l 1,64,-1
 248 3 l 2,65,66
 231 4 231 4 193 58 c 1,67,68
 201 218 201 218 202 251 c 2,69,-1
 198 394 l 1,70,-1
 72 305 l 1,71,-1
 30 305 l 1,72,-1
 30 335 l 1,73,-1
 307 591 l 1,57,-1
EndSplineSet
Validated: 37
EndChar

StartChar: uni5F8B
Encoding: 24459 24459 42
Width: 1044
VWidth: 1126
Flags: W
LayerCount: 2
Fore
SplineSet
547 934 m 1,0,1
 627 938 627 938 635 821 c 1,2,-1
 715 825 l 2,3,4
 795 817 795 817 795 779 c 2,5,-1
 799 712 l 2,6,7
 803 708 803 708 807 708 c 0,8,9
 853 716 853 716 879 716 c 0,10,11
 921 699 921 699 946 657 c 1,12,-1
 946 624 l 1,13,-1
 807 624 l 2,14,15
 761 624 761 624 765 523 c 2,16,-1
 765 489 l 1,17,18
 744 489 744 489 719 481 c 0,19,20
 664 489 664 489 639 485 c 1,21,-1
 639 460 l 1,22,23
 639 460 l 1,24,-1
 715 460 l 1,25,-1
 715 397 l 1,26,-1
 631 355 l 1,27,-1
 631 338 l 1,28,-1
 635 330 l 1,29,30
 765 347 765 347 870 346 c 1,31,32
 937 329 937 329 942 254 c 1,33,34
 929 254 929 254 929 246 c 1,35,36
 811 254 811 254 765 254 c 2,37,-1
 706 254 l 2,38,39
 651 258 651 258 635 241 c 1,40,41
 643 -45 643 -45 601 -95 c 1,42,-1
 576 -95 l 1,43,44
 559 -66 559 -66 555 -40.5 c 128,-1,45
 551 -15 551 -15 555 170 c 1,46,-1
 551 183 l 2,47,48
 547 229 547 229 543 233 c 2,49,-1
 526 233 l 1,50,51
 387 216 387 216 375 216 c 2,52,-1
 362 216 l 2,53,54
 324 216 324 216 324 250 c 2,55,-1
 324 279 l 1,56,57
 538 308 538 308 538 325 c 2,58,-1
 538 351 l 1,59,-1
 488 359 l 1,60,-1
 484 430 l 1,61,62
 534 434 534 434 534 443 c 2,63,-1
 534 460 l 1,64,-1
 538 460 l 1,65,66
 500 443 500 443 446 460 c 1,67,-1
 425 460 l 1,68,69
 425 485 425 485 400 523 c 1,70,71
 547 544 547 544 555 561 c 2,72,-1
 555 586 l 2,73,74
 555 590 555 590 543 590 c 0,75,76
 367 582 367 582 341 535 c 0,77,78
 333 506 333 506 282 451 c 1,79,-1
 282 342 l 2,80,81
 290 -23 290 -23 253 -23 c 2,82,-1
 244 -23 l 2,83,84
 227 -23 227 -23 198 15 c 1,85,86
 211 166 211 166 198 388 c 2,87,-1
 198 384 l 1,88,89
 169 371 169 371 60 309 c 1,90,-1
 30 309 l 1,91,-1
 30 342 l 1,92,93
 206 493 206 493 320 632 c 1,94,95
 375 657 375 657 543 682 c 1,96,-1
 551 691 l 1,97,-1
 547 724 l 2,98,99
 547 728 547 728 538 729 c 2,100,-1
 442 729 l 1,101,-1
 442 766 l 2,102,103
 442 795 442 795 551 813 c 1,104,-1
 547 934 l 1,0,1
278 792 m 1,105,-1
 295 792 l 2,106,107
 320 792 320 792 337 750 c 1,108,-1
 337 729 l 1,109,110
 291 662 291 662 186 590 c 1,111,-1
 156 590 l 1,112,-1
 156 636 l 1,113,114
 207 691 207 691 278 792 c 1,105,-1
639 729 m 2,115,-1
 631 687 l 1,116,-1
 631 682 l 1,117,118
 702 690 702 690 698 708 c 2,119,-1
 698 745 l 1,120,-1
 631 741 l 2,121,122
 639 742 639 742 639 729 c 2,115,-1
635 603 m 1,123,-1
 635 565 l 1,124,125
 635 565 l 1,126,-1
 664 561 l 2,127,128
 672 561 672 561 690 586 c 1,129,-1
 690 607 l 1,130,-1
 635 598 l 1,131,-1
 635 603 l 1,123,-1
EndSplineSet
Validated: 37
EndChar

StartChar: uni6210
Encoding: 25104 25104 43
Width: 1044
VWidth: 1126
Flags: W
LayerCount: 2
Fore
SplineSet
416 856 m 1,0,1
 500 856 500 856 559 671 c 1,2,3
 551 671 551 671 571 667 c 0,4,5
 642 684 642 684 697 683 c 1,6,-1
 735 629 l 1,7,-1
 735 604 l 1,8,9
 647 579 647 579 601 574 c 1,10,-1
 601 574 l 1,11,12
 668 351 668 351 678.5 351.5 c 128,-1,13
 689 352 689 352 718 499 c 1,14,-1
 752 499 l 2,15,16
 781 486 781 486 798 427 c 1,17,-1
 735 259 l 1,18,19
 806 133 806 133 823 129 c 1,20,21
 836 251 836 251 882 251 c 2,22,-1
 903 251 l 1,23,-1
 916 188 l 2,24,25
 916 159 916 159 924 87 c 0,26,27
 928 7 928 7 928 -52 c 1,28,-1
 878 -52 l 1,29,30
 811 -2 811 -2 672 179 c 1,31,-1
 680 179 l 1,32,33
 529 24 529 24 424 24 c 1,34,35
 609 209 609 209 626 259 c 1,36,37
 534 494 534 494 496 557 c 1,38,39
 294 557 294 557 294 536 c 0,40,41
 286 502 286 502 286 457 c 2,42,-1
 290 469 l 1,43,44
 366 486 366 486 466 486 c 1,45,46
 504 431 504 431 504 410 c 0,47,48
 496 179 496 179 470 137 c 1,49,-1
 412 137 l 1,50,51
 341 183 341 183 340 205 c 2,52,-1
 340 242 l 1,53,54
 399 242 399 242 399 276 c 0,55,56
 420 368 420 368 420 381 c 2,57,-1
 399 394 l 1,58,-1
 286 389 l 1,59,60
 282 334 282 334 231 205 c 0,61,62
 189 125 189 125 122 53 c 1,63,-1
 76 53 l 1,64,-1
 76 79 l 1,65,66
 194 276 194 276 214 515 c 1,67,-1
 198 562 l 1,68,69
 198 625 198 625 475 641 c 1,70,-1
 479 650 l 1,71,72
 442 755 442 755 408 818 c 1,73,-1
 416 856 l 1,0,1
588 830 m 1,74,-1
 660 830 l 1,75,76
 731 792 731 792 731 751 c 2,77,-1
 731 742 l 2,78,79
 731 708 731 708 689 709 c 1,80,81
 609 759 609 759 588 793 c 1,82,-1
 588 830 l 1,74,-1
EndSplineSet
Validated: 37
EndChar

StartChar: uni62F1
Encoding: 25329 25329 44
Width: 1044
VWidth: 1126
Flags: W
LayerCount: 2
Fore
SplineSet
735 776 m 1,0,1
 748 654 748 654 743 654 c 1,2,3
 798 654 798 654 802 570 c 1,4,-1
 752 554 l 1,5,6
 748 436 748 436 748 382 c 1,7,-1
 832 386 l 1,8,9
 937 414 937 414 966 318 c 1,10,-1
 928 298 l 1,11,-1
 781 289 l 1,12,-1
 340 239 l 1,13,-1
 319 310 l 1,14,15
 483 339 483 339 500 331 c 1,16,-1
 500 499 l 2,17,18
 500 512 500 512 445 520 c 1,19,-1
 445 562 l 1,20,-1
 500 592 l 1,21,-1
 491 793 l 1,22,-1
 550 793 l 1,23,24
 588 688 588 688 588 646 c 2,25,-1
 584 612 l 1,26,-1
 659 634 l 1,27,28
 655 684 655 684 655 734 c 2,29,-1
 655 780 l 1,30,31
 672 818 672 818 735 776 c 1,0,1
260 814 m 0,32,33
 336 814 336 814 340 696 c 2,34,-1
 336 596 l 1,35,-1
 407 604 l 1,36,37
 403 507 403 507 340 491 c 1,38,-1
 348 444 l 1,39,40
 327 398 327 398 323 298 c 2,41,-1
 319 192 l 2,42,43
 322 62 322 62 306 -30 c 1,44,45
 226 -30 226 -30 122 96 c 1,46,-1
 122 138 l 1,47,-1
 227 100 l 1,48,49
 235 121 235 121 235 293 c 1,50,51
 130 188 130 188 71 184 c 1,52,-1
 46 260 l 1,53,54
 235 390 235 390 235 436 c 2,55,-1
 235 478 l 2,56,57
 235 474 235 474 151 453 c 1,58,-1
 126 545 l 1,59,60
 256 544 256 544 248 654 c 2,61,-1
 248 718 l 2,62,63
 248 739 248 739 235 772 c 0,64,65
 235 806 235 806 260 814 c 0,32,33
584 524 m 2,66,-1
 584 360 l 1,67,-1
 647 365 l 2,68,69
 664 373 664 373 659 537 c 1,70,-1
 630 537 l 2,71,72
 584 528 584 528 584 524 c 2,66,-1
516 197 m 2,73,-1
 538 197 l 1,74,75
 567 180 567 180 567 163 c 0,76,77
 575 117 575 117 407 -22 c 1,78,-1
 399 58 l 1,79,80
 487 197 487 197 516 197 c 2,73,-1
680 197 m 1,81,82
 748 197 748 197 874 79 c 1,83,-1
 869 -13 l 1,84,-1
 840 -13 l 1,85,86
 769 28 769 28 672 150 c 1,87,-1
 680 197 l 1,81,82
EndSplineSet
Validated: 37
EndChar

StartChar: uni63A8
Encoding: 25512 25512 45
Width: 1044
VWidth: 1126
Flags: W
LayerCount: 2
Fore
SplineSet
226 831 m 1,0,-1
 256 831 l 2,1,2
 302 831 302 831 327 709 c 1,3,4
 319 621 319 621 319 596 c 0,5,6
 319 592 319 592 399 600 c 1,7,8
 512 802 512 802 512 835 c 1,9,10
 588 797 588 797 588 772 c 0,11,12
 559 688 559 688 508 604 c 1,13,-1
 516 428 l 2,14,15
 512 331 512 331 516 260 c 2,16,-1
 516 222 l 2,17,18
 516 214 516 214 533 205 c 0,19,20
 646 209 646 209 655 222 c 2,21,-1
 655 310 l 1,22,-1
 558 310 l 1,23,24
 558 331 558 331 554 331 c 1,25,26
 554 394 554 394 655 403 c 1,27,-1
 659 411 l 1,28,-1
 659 449 l 1,29,30
 588 428 588 428 579 478 c 2,31,-1
 579 495 l 2,32,33
 579 516 579 516 655 541 c 1,34,-1
 646 592 l 2,35,36
 646 596 646 596 558 608 c 1,37,-1
 558 646 l 2,38,39
 558 692 558 692 789 714 c 1,40,-1
 802 714 l 2,41,42
 827 714 827 714 844 672 c 1,43,-1
 844 630 l 1,44,45
 739 626 739 626 739 621 c 2,46,-1
 747 566 l 1,47,-1
 831 554 l 1,48,-1
 844 524 l 1,49,-1
 844 499 l 1,50,-1
 751 466 l 1,51,-1
 751 420 l 1,52,-1
 823 432 l 1,53,54
 886 415 886 415 886 386 c 2,55,-1
 886 352 l 1,56,57
 802 326 802 326 751 314 c 1,58,-1
 747 222 l 1,59,-1
 806 222 l 2,60,61
 844 222 844 222 919 239 c 1,62,63
 986 218 986 218 1003 176 c 0,64,65
 1003 156 1003 156 953 126 c 1,66,-1
 688 126 l 2,67,68
 528 122 528 122 520 88 c 2,69,-1
 495 -59 l 1,70,-1
 470 -59 l 1,71,-1
 432 -30 l 1,72,-1
 432 462 l 2,73,74
 432 490 432 490 428 524 c 1,75,-1
 394 512 l 1,76,-1
 323 508 l 1,77,-1
 327 499 l 1,78,79
 407 524 407 524 319 403 c 1,80,81
 323 22 323 22 268 0 c 1,82,83
 171 17 171 17 84 138 c 1,84,-1
 84 168 l 1,85,-1
 117 168 l 1,86,87
 172 126 172 126 201 126 c 2,88,-1
 210 126 l 2,89,90
 214 126 214 126 222 146 c 2,91,-1
 218 331 l 1,92,-1
 231 331 l 1,93,94
 210 310 210 310 96 210 c 1,95,-1
 71 210 l 2,96,97
 25 210 25 210 21 289 c 1,98,99
 151 344 151 344 226 449 c 1,100,-1
 226 504 l 1,101,-1
 159 495 l 1,102,-1
 142 495 l 2,103,104
 108 495 108 495 109 533 c 2,105,-1
 109 571 l 1,106,107
 239 576 239 576 239 630 c 2,108,-1
 239 697 l 1,109,-1
 226 831 l 1,0,-1
634 831 m 1,110,111
 718 831 718 831 756 764 c 1,112,-1
 756 722 l 1,113,-1
 714 722 l 2,114,115
 689 722 689 722 634 789 c 1,116,-1
 634 831 l 1,110,111
EndSplineSet
Validated: 37
EndChar

StartChar: uni6536
Encoding: 25910 25910 46
Width: 1044
VWidth: 1126
Flags: W
LayerCount: 2
Fore
SplineSet
491 829 m 1,0,-1
 554 829 l 1,1,-1
 554 716 l 1,2,3
 596 716 596 716 718 741 c 1,4,5
 773 724 773 724 772.5 695 c 128,-1,6
 772 666 772 666 701 640 c 1,7,8
 701 506 701 506 621 304 c 1,9,10
 672 195 672 195 966 73 c 1,11,-1
 966 40 l 1,12,13
 937 27 937 27 936 15 c 1,14,15
 730 36 730 36 571 220 c 1,16,-1
 562 220 l 1,17,18
 423 77 423 77 264 52 c 1,19,20
 504 262 504 262 504 279 c 2,21,-1
 504 300 l 1,22,-1
 398 443 l 1,23,-1
 449 472 l 1,24,-1
 550 372 l 1,25,26
 584 410 584 410 613 582 c 0,27,28
 605 624 605 624 596 624 c 2,29,-1
 579 624 l 2,30,31
 504 624 504 624 420 464 c 0,32,33
 407 464 407 464 369 435 c 1,34,-1
 369 502 l 1,35,36
 491 665 491 665 491 829 c 1,0,-1
247 750 m 1,37,-1
 319 766 l 1,38,39
 340 669 340 669 327 468 c 0,40,41
 302 208 302 208 302 19 c 1,42,-1
 264 19 l 2,43,44
 239 19 239 19 222 73 c 1,45,46
 222 136 222 136 247 422 c 1,47,-1
 256 422 l 1,48,49
 240 405 240 405 126 233 c 1,50,-1
 113 233 l 2,51,52
 66 233 66 233 62 288 c 0,53,54
 84 414 84 414 84 460 c 2,55,-1
 84 586 l 2,56,57
 92 628 92 628 117 628 c 2,58,-1
 151 628 l 1,59,-1
 168 556 l 1,60,-1
 168 435 l 2,61,62
 176 435 176 435 247 527 c 1,63,-1
 247 750 l 1,37,-1
EndSplineSet
Validated: 37
EndChar

StartChar: uni6587
Encoding: 25991 25991 47
Width: 1044
VWidth: 1126
Flags: W
LayerCount: 2
Fore
SplineSet
449 826 m 1,0,1
 516 788 516 788 516 767 c 2,2,-1
 512 695 l 1,3,4
 449 695 449 695 377 796 c 1,5,-1
 377 834 l 1,6,7
 399 834 399 834 449 826 c 1,0,1
642 708 m 1,8,-1
 655 708 l 2,9,10
 718 708 718 708 734 658 c 0,11,12
 734 612 734 612 688 611 c 2,13,-1
 604 616 l 1,14,-1
 596 557 l 2,15,16
 571 448 571 448 512 309 c 1,17,18
 525 250 525 250 831 112 c 0,19,20
 898 91 898 91 974 57 c 1,21,-1
 974 28 l 1,22,-1
 953 -2 l 1,23,24
 709 -2 709 -2 461 225 c 1,25,-1
 453 225 l 1,26,27
 277 40 277 40 180 40 c 2,28,-1
 142 40 l 1,29,30
 75 22 75 22 58 90 c 1,31,-1
 167 116 l 2,32,33
 268 145 268 145 390 296 c 1,34,-1
 390 305 l 1,35,-1
 264 448 l 1,36,-1
 264 490 l 1,37,-1
 331 490 l 1,38,39
 402 419 402 419 449 376 c 0,40,41
 466 380 466 380 512 574 c 1,42,-1
 512 603 l 1,43,-1
 516 603 l 1,44,-1
 268 548 l 1,45,46
 218 577 218 577 218 603 c 2,47,-1
 218 632 l 1,48,-1
 642 708 l 1,8,-1
EndSplineSet
Validated: 37
EndChar

StartChar: uni65E5
Encoding: 26085 26085 48
Width: 1044
VWidth: 1126
Flags: W
LayerCount: 2
Fore
SplineSet
638 806 m 0,0,1
 701 806 701 806 768 718 c 1,2,-1
 760 671 l 1,3,-1
 760 214 l 2,4,5
 747 101 747 101 747 -5 c 1,6,-1
 705 -22 l 1,7,8
 638 33 638 33 613 79 c 1,9,10
 374 62 374 62 298 62 c 1,11,12
 264 79 264 79 248 121 c 1,13,14
 256 289 256 289 256 650 c 2,15,-1
 256 667 l 1,16,-1
 273 747 l 1,17,-1
 332 747 l 2,18,19
 361 747 361 747 638 806 c 0,0,1
411 684 m 2,20,-1
 361 684 l 2,21,22
 357 684 357 684 348 667 c 2,23,-1
 348 486 l 2,24,25
 348 482 348 482 365 482 c 128,-1,26
 382 482 382 482 571 533 c 1,27,-1
 596 533 l 2,28,29
 617 533 617 533 655 491 c 1,30,-1
 655 466 l 2,31,32
 655 428 655 428 399 402 c 1,33,-1
 353 411 l 1,34,35
 340 369 340 369 353 176 c 2,36,-1
 353 150 l 1,37,38
 353 150 l 1,39,40
 424 150 424 150 575 184 c 1,41,-1
 651 172 l 1,42,-1
 655 180 l 1,43,-1
 655 701 l 2,44,45
 655 709 655 709 584 713 c 1,46,47
 453 684 453 684 411 684 c 2,20,-1
EndSplineSet
Validated: 37
EndChar

StartChar: uni6606
Encoding: 26118 26118 49
Width: 1044
VWidth: 1126
Flags: W
LayerCount: 2
Fore
SplineSet
579 872 m 0,0,1
 655 872 655 872 705 788 c 1,2,3
 625 473 625 473 579 473 c 2,4,-1
 533 473 l 1,5,6
 533 330 533 330 529 330 c 2,7,-1
 533 330 l 1,8,9
 617 364 617 364 680 427 c 1,10,-1
 692 427 l 2,11,12
 730 427 730 427 726 343 c 1,13,14
 671 276 671 276 537 234 c 1,15,-1
 537 95 l 2,16,17
 533 40 533 40 684 49 c 0,18,19
 789 45 789 45 802 141 c 0,20,21
 802 175 802 175 814 230 c 1,22,-1
 844 230 l 1,23,-1
 856 217 l 2,24,25
 881 192 881 192 881 108 c 2,26,-1
 881 -22 l 1,27,28
 810 -60 810 -60 755 -60 c 0,29,30
 415 -73 415 -73 440 87 c 1,31,32
 432 158 432 158 436 209 c 2,33,-1
 440 188 l 1,34,-1
 428 175 l 1,35,36
 256 -52 256 -52 230 -52 c 2,37,-1
 205 -52 l 2,38,39
 159 -52 159 -52 151 49 c 2,40,-1
 163 389 l 1,41,-1
 193 389 l 1,42,43
 248 360 248 360 247 339 c 1,44,-1
 272 339 l 2,45,46
 318 339 318 339 403 360 c 1,47,-1
 436 339 l 1,48,-1
 445 444 l 1,49,-1
 440 452 l 1,50,-1
 256 419 l 1,51,52
 222 444 222 444 197 755 c 0,53,54
 197 834 197 834 579 872 c 0,0,1
298 645 m 2,55,56
 302 523 302 523 314 524 c 0,57,58
 574 549 574 549 575 624 c 2,59,-1
 575 620 l 1,60,-1
 566 624 l 1,61,-1
 529 624 l 2,62,63
 479 624 479 624 352 595 c 1,64,65
 331 608 331 608 306 608 c 1,66,-1
 306 641 l 2,67,68
 306 687 306 687 579 729 c 1,69,-1
 587 759 l 1,70,-1
 587 767 l 1,71,-1
 571 784 l 1,72,73
 311 776 311 776 293 721 c 1,74,-1
 298 645 l 2,55,56
247 99 m 1,75,-1
 239 99 l 2,76,77
 268 99 268 99 407 246 c 0,78,79
 428 246 428 246 432 263 c 1,80,-1
 432 263 l 1,81,82
 239 263 239 263 239 188 c 2,83,-1
 247 99 l 1,75,-1
EndSplineSet
Validated: 37
EndChar

StartChar: uni6691
Encoding: 26257 26257 50
Width: 1044
VWidth: 1126
Flags: W
LayerCount: 2
Fore
SplineSet
751 902 m 1,0,1
 751 881 751 881 781 868 c 1,2,3
 798 767 798 767 747 688 c 1,4,-1
 751 620 l 1,5,-1
 705 595 l 1,6,-1
 613 595 l 1,7,-1
 583 591 l 1,8,-1
 583 587 l 2,9,10
 587 549 587 549 592 549 c 0,11,12
 655 566 655 566 684 566 c 2,13,-1
 747 566 l 1,14,-1
 810 612 l 1,15,-1
 848 612 l 1,16,-1
 848 583 l 1,17,18
 751 461 751 461 747 448 c 2,19,-1
 852 457 l 2,20,21
 915 457 915 457 953 385 c 1,22,-1
 953 356 l 1,23,24
 928 356 928 356 907 352 c 0,25,26
 844 369 844 369 772 356 c 0,27,28
 617 356 617 356 566 289 c 1,29,-1
 566 301 l 1,30,-1
 554 301 l 2,31,32
 638 301 638 301 680 318 c 1,33,34
 764 318 764 318 768 158 c 1,35,-1
 776 116 l 1,36,37
 768 70 768 70 768 34.5 c 128,-1,38
 768 -1 768 -1 734 -102 c 1,39,-1
 705 -102 l 1,40,41
 663 -52 663 -52 634 -52 c 2,42,-1
 575 -52 l 1,43,44
 424 -72 424 -72 394 -72 c 1,45,46
 386 -43 386 -43 361 -43 c 1,47,48
 390 24 390 24 373 138 c 1,49,-1
 373 171 l 1,50,-1
 382 171 l 2,51,52
 365 171 365 171 142 41 c 1,53,-1
 79 20 l 1,54,-1
 79 66 l 1,55,56
 398 258 398 258 474 326 c 1,57,-1
 474 331 l 1,58,-1
 461 331 l 1,59,60
 251 293 251 293 201 293 c 1,61,-1
 159 322 l 1,62,-1
 159 352 l 1,63,-1
 482 415 l 1,64,-1
 482 440 l 2,65,66
 486 440 486 440 466 452 c 1,67,68
 416 439 416 439 382 440 c 2,69,-1
 335 440 l 1,70,-1
 335 482 l 1,71,72
 360 507 360 507 491 545 c 1,73,-1
 491 570 l 1,74,75
 491 570 l 1,76,-1
 407 570 l 2,77,78
 420 570 420 570 419 545 c 1,79,80
 377 570 377 570 352 570 c 1,81,82
 348 676 348 676 348 726 c 2,83,-1
 344 835 l 2,84,85
 344 873 344 873 751 902 c 1,0,1
550 797 m 1,86,-1
 524 805 l 1,87,-1
 491 805 l 2,88,89
 445 805 445 805 436 784 c 2,90,-1
 436 780 l 2,91,92
 436 776 436 776 440 776 c 2,93,-1
 667 805 l 1,94,-1
 701 805 l 2,95,96
 705 805 705 805 705 801 c 2,97,-1
 705 822 l 2,98,99
 705 826 705 826 701 826 c 2,100,-1
 655 826 l 2,101,102
 605 822 605 822 550 797 c 1,86,-1
457 692 m 2,103,-1
 457 675 l 2,104,105
 461 658 461 658 499 658 c 0,106,107
 659 676 659 676 659 726 c 2,108,-1
 659 713 l 1,109,-1
 667 713 l 2,110,111
 457 700 457 700 457 692 c 2,103,-1
583 444 m 1,112,-1
 583 448 l 2,113,114
 579 448 579 448 596 436 c 1,115,116
 642 454 642 454 650 474 c 1,117,-1
 604 474 l 2,118,119
 600 474 600 474 583 444 c 1,112,-1
466 180 m 1,120,121
 479 180 479 180 478 175 c 1,122,123
 491 175 491 175 638 192 c 0,124,125
 659 180 659 180 667 180 c 2,126,-1
 676 196 l 1,127,-1
 676 238 l 1,128,129
 676 238 l 1,130,131
 466 218 466 218 466 180 c 1,120,121
533 83 m 2,132,-1
 499 91 l 1,133,-1
 466 91 l 1,134,-1
 470 66 l 1,135,-1
 470 37 l 1,136,-1
 474 28 l 1,137,138
 676 24 676 24 676 70 c 2,139,-1
 676 112 l 1,140,-1
 684 112 l 1,141,142
 533 91 533 91 533 83 c 2,132,-1
EndSplineSet
Validated: 37
EndChar

StartChar: uni6708
Encoding: 26376 26376 51
Width: 1044
VWidth: 1126
Flags: W
LayerCount: 2
Fore
SplineSet
702 835 m 0,0,1
 778 835 778 835 769 667 c 1,2,3
 782 453 782 453 782 281 c 2,4,-1
 790 71 l 2,5,6
 782 -51 782 -51 732 -51 c 1,7,8
 572 30 572 30 555 88 c 1,9,10
 568 88 568 88 568 96 c 1,11,12
 660 88 660 88 690 88 c 2,13,-1
 681 88 l 1,14,-1
 681 192 l 2,15,16
 673 511 673 511 673 726 c 1,17,18
 656 738 656 738 635 738 c 2,19,-1
 618 738 l 2,20,21
 551 738 551 738 412 713 c 1,22,-1
 421 680 l 2,23,24
 429 630 429 630 425 579 c 1,25,-1
 429 579 l 1,26,27
 576 617 576 617 606 617 c 1,28,-1
 635 575 l 1,29,-1
 635 524 l 1,30,31
 471 498 471 498 421 486 c 1,32,-1
 408 394 l 1,33,34
 572 424 572 424 614 424 c 1,35,-1
 648 382 l 1,36,-1
 648 356 l 2,37,38
 648 322 648 322 429 302 c 1,39,-1
 391 302 l 1,40,41
 303 63 303 63 215 -1 c 1,42,-1
 186 -1 l 1,43,-1
 186 41 l 1,44,45
 308 268 308 268 320 524 c 0,46,47
 324 524 324 524 324 562 c 2,48,-1
 320 772 l 1,49,50
 496 835 496 835 702 835 c 0,0,1
EndSplineSet
Validated: 37
EndChar

StartChar: uni6709
Encoding: 26377 26377 52
Width: 1044
VWidth: 1126
Flags: W
LayerCount: 2
Fore
SplineSet
483 902 m 1,0,-1
 517 902 l 2,1,2
 546 902 546 902 559 839 c 1,3,-1
 521 725 l 1,4,-1
 521 721 l 1,5,-1
 529 721 l 2,6,7
 571 721 571 721 743 746 c 0,8,9
 756 746 756 746 865 725 c 1,10,-1
 865 700 l 1,11,12
 848 654 848 654 790 654 c 2,13,-1
 731 654 l 2,14,15
 475 650 475 650 470 570 c 1,16,17
 483 570 483 570 483 561 c 1,18,19
 601 569 601 569 718 587 c 0,20,21
 794 587 794 587 798 395.5 c 128,-1,22
 802 204 802 204 802 112 c 2,23,-1
 802 45 l 2,24,25
 802 16 802 16 769 -90 c 1,26,-1
 735 -90 l 1,27,28
 659 -31 659 -31 622 -31 c 1,29,-1
 622 36 l 1,30,-1
 697 41 l 2,31,32
 701 41 701 41 701 45 c 2,33,-1
 701 154 l 2,34,35
 701 221 701 221 693 351 c 1,36,-1
 697 351 l 1,37,-1
 512 318 l 1,38,-1
 470 322 l 1,39,-1
 470 246 l 1,40,-1
 470 255 l 1,41,42
 621 276 621 276 622 293 c 1,43,44
 710 272 710 272 710 242 c 2,45,-1
 710 230 l 2,46,47
 710 196 710 196 508 167 c 1,48,-1
 466 192 l 1,49,-1
 462 192 l 1,50,51
 462 192 l 1,52,-1
 462 167 l 1,53,-1
 449 -27 l 1,54,-1
 416 -48 l 1,55,56
 374 -23 374 -23 361 7 c 2,57,-1
 361 91 l 1,58,-1
 370 406 l 1,59,-1
 370 398 l 1,60,-1
 386 398 l 1,61,62
 189 180 189 180 143 179 c 1,63,-1
 143 209 l 1,64,65
 349 469 349 469 386 624 c 1,66,-1
 290 616 l 2,67,68
 231 616 231 616 214 658 c 1,69,-1
 214 700 l 1,70,-1
 286 700 l 1,71,-1
 424 713 l 2,72,73
 441 726 441 726 483 902 c 1,0,-1
462 469 m 2,74,-1
 462 402 l 2,75,76
 462 398 462 398 466 398 c 2,77,-1
 470 398 l 2,78,79
 533 398 533 398 630 423 c 1,80,-1
 693 414 l 1,81,-1
 693 406 l 1,82,-1
 689 498 l 1,83,-1
 701 498 l 2,84,85
 462 503 462 503 462 469 c 2,74,-1
EndSplineSet
Validated: 37
EndChar

StartChar: uni670D
Encoding: 26381 26381 53
Width: 1044
VWidth: 1126
Flags: W
LayerCount: 2
Fore
SplineSet
730 850 m 1,0,1
 785 829 785 829 793 796 c 2,2,-1
 793 741 l 2,3,4
 793 665 793 665 751 544 c 1,5,-1
 697 544 l 2,6,7
 676 544 676 544 642 611 c 1,8,9
 709 611 709 611 709 754 c 1,10,-1
 567 750 l 1,11,-1
 541 783 l 1,12,-1
 541 808 l 1,13,14
 680 850 680 850 730 850 c 1,0,1
352 813 m 1,15,16
 423 784 423 784 424 754 c 0,17,18
 411 594 411 594 411 523 c 2,19,-1
 407 120 l 1,20,-1
 411 57 l 2,21,22
 403 19 403 19 403 -6 c 1,23,-1
 344 -6 l 1,24,-1
 201 124 l 1,25,-1
 201 166 l 1,26,-1
 231 166 l 1,27,28
 294 128 294 128 306 128 c 2,29,-1
 310 136 l 1,30,-1
 310 372 l 1,31,-1
 302 372 l 1,32,-1
 193 313 l 1,33,34
 185 221 185 221 71 115 c 1,35,-1
 25 115 l 1,36,-1
 25 145 l 1,37,38
 122 267 122 267 121 439 c 0,39,40
 134 708 134 708 163 708 c 1,41,42
 150 708 150 708 151 733 c 1,43,44
 227 704 227 704 226 670 c 2,45,-1
 226 598 l 1,46,-1
 277 598 l 2,47,48
 315 598 315 598 319 615 c 2,49,-1
 319 712 l 2,50,51
 319 716 319 716 306 724 c 0,52,53
 256 716 256 716 218 716 c 2,54,-1
 193 716 l 1,55,-1
 193 754 l 2,56,57
 192 796 192 796 352 813 c 1,15,16
483 771 m 1,58,-1
 525 771 l 1,59,60
 567 754 567 754 567 691 c 2,61,-1
 567 615 l 1,62,-1
 558 498 l 1,63,-1
 562 498 l 1,64,65
 730 536 730 536 785 535 c 1,66,67
 814 506 814 506 814 481 c 0,68,69
 814 422 814 422 739 237 c 1,70,71
 781 191 781 191 915 120 c 1,72,73
 999 95 999 95 999 57 c 1,74,75
 974 32 974 32 957 31 c 0,76,77
 827 23 827 23 672 178 c 1,78,-1
 667 178 l 1,79,80
 541 65 541 65 474 65 c 0,81,82
 436 65 436 65 436 115 c 1,83,-1
 474 128 l 1,84,-1
 470 225 l 1,85,86
 478 548 478 548 478 724 c 0,87,88
 483 742 483 742 483 771 c 1,58,-1
218 439 m 1,89,90
 218 439 l 1,91,92
 310 452 310 452 310 456 c 2,93,-1
 310 514 l 1,94,-1
 302 514 l 1,95,96
 218 485 218 485 218 439 c 1,89,90
596 388 m 0,97,98
 596 359 596 359 667 317 c 1,99,100
 709 351 709 351 709 426 c 0,101,102
 709 430 709 430 693 439 c 0,103,104
 596 422 596 422 596 388 c 0,97,98
554 321 m 2,105,-1
 550 309 l 1,106,-1
 550 212 l 1,107,-1
 554 178 l 1,108,109
 613 220 613 220 613 241 c 0,110,111
 571 321 571 321 554 321 c 2,105,-1
EndSplineSet
Validated: 37
EndChar

StartChar: uni671D
Encoding: 26397 26397 54
Width: 1044
VWidth: 1126
Flags: W
LayerCount: 2
Fore
SplineSet
377 918 m 1,0,1
 436 918 436 918 432 825 c 2,2,-1
 432 783 l 1,3,-1
 524 783 l 1,4,-1
 524 745 l 2,5,6
 524 720 524 720 411 687 c 1,7,-1
 407 674 l 1,8,-1
 407 640 l 2,9,10
 407 636 407 636 415 636 c 0,11,12
 453 636 453 636 453 657 c 1,13,14
 554 657 554 657 554 510 c 0,15,16
 554 405 554 405 415 334 c 1,17,-1
 415 313 l 2,18,19
 419 300 419 300 415 300 c 2,20,-1
 432 300 l 1,21,22
 478 334 478 334 508 334 c 2,23,-1
 571 334 l 1,24,25
 588 418 588 418 587 451 c 2,26,-1
 587 640 l 2,27,28
 587 707 587 707 886 737 c 1,29,30
 899 720 899 720 898 552 c 1,31,32
 911 598 911 598 928 514 c 0,33,34
 945 266 945 266 944 141 c 2,35,-1
 944 -65 l 1,36,-1
 890 -65 l 1,37,38
 764 32 764 32 743 69 c 1,39,-1
 743 99 l 1,40,-1
 785 99 l 1,41,42
 823 70 823 70 839 69 c 2,43,-1
 844 78 l 1,44,-1
 844 435 l 1,45,-1
 839 435 l 1,46,47
 658 418 658 418 659 376 c 2,48,-1
 659 363 l 2,49,50
 663 355 663 355 676 346 c 0,51,52
 747 363 747 363 789 363 c 2,53,-1
 848 359 l 1,54,-1
 848 321 l 1,55,56
 814 271 814 271 655 250 c 1,57,-1
 638 250 l 1,58,59
 638 183 638 183 533 57 c 1,60,-1
 482 57 l 1,61,-1
 482 86 l 1,62,63
 545 178 545 178 558 258 c 2,64,-1
 558 250 l 1,65,66
 407 250 407 250 407 174 c 0,67,68
 403 -61 403 -61 352 -74 c 0,69,70
 314 -74 314 -74 314 -40 c 2,71,-1
 314 99 l 1,72,-1
 298 99 l 1,73,-1
 314 136 l 1,74,-1
 314 191 l 2,75,76
 314 199 314 199 289 204 c 0,77,78
 155 175 155 175 134 174 c 0,79,80
 109 187 109 187 88 187 c 1,81,-1
 88 241 l 1,82,83
 323 279 323 279 323 300 c 2,84,-1
 323 309 l 1,85,-1
 314 309 l 2,86,87
 289 301 289 301 289 275 c 1,88,89
 213 304 213 304 209 342 c 2,90,-1
 214 388 l 1,91,-1
 180 586 l 1,92,93
 323 611 323 611 323 632 c 2,94,-1
 323 674 l 1,95,-1
 310 674 l 1,96,-1
 247 661 l 2,97,98
 226 674 226 674 209 674 c 1,99,-1
 209 699 l 2,100,101
 209 741 209 741 344 754 c 1,102,-1
 352 771 l 1,103,-1
 352 859 l 1,104,-1
 348 901 l 1,105,-1
 377 918 l 1,0,1
671 632 m 1,106,-1
 671 640 l 2,107,108
 679 573 679 573 680 535 c 2,109,-1
 680 510 l 1,110,-1
 692 502 l 1,111,-1
 743 523 l 1,112,113
 806 519 806 519 831 506 c 1,114,-1
 831 661 l 1,115,116
 831 661 l 1,117,118
 700 632 700 632 671 632 c 1,106,-1
281 535 m 0,119,120
 298 522 298 522 310 523 c 0,121,122
 432 552 432 552 453 552 c 1,123,-1
 453 552 l 1,124,125
 453 556 453 556 432 565 c 0,126,127
 281 552 281 552 281 535 c 0,119,120
298 430 m 1,128,-1
 298 414 l 1,129,-1
 340 414 l 1,130,131
 441 435 441 435 440 464 c 1,132,-1
 440 464 l 1,133,134
 315 430 315 430 298 430 c 1,128,-1
EndSplineSet
Validated: 37
EndChar

StartChar: uni674E
Encoding: 26446 26446 55
Width: 1044
VWidth: 1126
Flags: W
LayerCount: 2
Fore
SplineSet
423 894 m 1,0,-1
 494 894 l 1,1,2
 515 818 515 818 511 713 c 1,3,-1
 520 713 l 2,4,5
 596 713 596 713 595 734 c 1,6,7
 671 713 671 713 671 688 c 2,8,-1
 679 646 l 1,9,-1
 532 625 l 1,10,-1
 532 629 l 1,11,12
 603 553 603 553 961 432 c 1,13,-1
 961 415 l 2,14,15
 961 394 961 394 910 365 c 1,16,17
 696 403 696 403 520 545 c 1,18,-1
 524 440 l 1,19,-1
 570 445 l 2,20,21
 562 445 562 445 562 461 c 1,22,23
 612 432 612 432 629 432 c 1,24,-1
 629 369 l 1,25,26
 558 277 558 277 545 256 c 1,27,-1
 801 272 l 2,28,29
 822 272 822 272 860 230 c 1,30,-1
 860 180 l 1,31,32
 826 180 826 180 826 172 c 2,33,-1
 793 180 l 1,34,-1
 595 163 l 1,35,-1
 604 100 l 2,36,37
 608 66 608 66 591 -1 c 0,38,39
 566 -93 566 -93 520 -114 c 1,40,-1
 461 -114 l 1,41,42
 390 -93 390 -93 305 -30 c 1,43,-1
 305 29 l 1,44,45
 431 -5 431 -5 465 -5 c 0,46,47
 507 -9 507 -9 507 100 c 0,48,49
 507 163 507 163 478 163 c 0,50,51
 243 129 243 129 242 117 c 1,52,53
 171 146 171 146 171 176 c 2,54,-1
 171 209 l 1,55,-1
 192 209 l 2,56,57
 293 209 293 209 465 251 c 1,58,59
 478 293 478 293 503 356 c 1,60,-1
 503 340 l 1,61,-1
 385 323 l 1,62,63
 343 357 343 357 343 398 c 1,64,65
 423 406 423 406 423 461 c 0,66,67
 427 524 427 524 427 566 c 2,68,-1
 436 533 l 1,69,70
 423 508 423 508 129 331 c 1,71,-1
 95 331 l 1,72,-1
 104 386 l 1,73,74
 301 525 301 525 335 575 c 2,75,-1
 343 592 l 2,76,77
 339 592 339 592 263 617 c 1,78,-1
 263 676 l 1,79,80
 284 676 284 676 284 684 c 1,81,82
 423 680 423 680 423 697 c 2,83,-1
 423 894 l 1,0,-1
EndSplineSet
Validated: 37
EndChar

StartChar: uni6765
Encoding: 26469 26469 56
Width: 1044
VWidth: 1126
Flags: W
LayerCount: 2
Fore
SplineSet
424 886 m 1,0,-1
 495 890 l 1,1,-1
 512 722 l 1,2,-1
 604 730 l 1,3,4
 663 713 663 713 663 688 c 2,5,-1
 663 642 l 1,6,-1
 516 642 l 1,7,-1
 516 646 l 2,8,9
 516 499 516 499 516 512 c 2,10,-1
 504 508 l 1,11,12
 559 592 559 592 558 642 c 1,13,-1
 651 608 l 1,14,-1
 651 583 l 1,15,16
 630 537 630 537 529 445 c 1,17,-1
 529 415 l 1,18,-1
 655 420 l 2,19,20
 878 428 878 428 877 340 c 1,21,22
 843 327 843 327 827 327 c 2,23,-1
 562 327 l 1,24,-1
 562 336 l 1,25,26
 680 210 680 210 911 109 c 1,27,-1
 911 62 l 1,28,-1
 856 50 l 1,29,30
 734 50 734 50 541 239 c 2,31,-1
 525 256 l 1,32,33
 521 30 521 30 520 -84 c 2,34,-1
 520 -114 l 1,35,-1
 466 -114 l 2,36,37
 428 -101 428 -101 428 -26 c 0,38,39
 436 129 436 129 436 176 c 2,40,-1
 436 210 l 1,41,42
 339 122 339 122 180 33 c 1,43,-1
 113 33 l 1,44,45
 331 235 331 235 373 298 c 2,46,-1
 382 310 l 1,47,-1
 394 310 l 1,48,49
 155 294 155 294 134 294 c 1,50,-1
 117 369 l 1,51,-1
 436 398 l 1,52,-1
 428 630 l 1,53,-1
 319 621 l 1,54,-1
 277 650 l 1,55,56
 277 696 277 696 420 714 c 0,57,58
 424 727 424 727 424 739 c 2,59,-1
 424 886 l 1,0,-1
348 617 m 1,60,61
 394 617 394 617 420 474 c 1,62,63
 399 415 399 415 365 415 c 1,64,65
 315 486 315 486 315 596 c 1,66,-1
 348 617 l 1,60,61
EndSplineSet
Validated: 37
EndChar

StartChar: uni679C
Encoding: 26524 26524 57
Width: 1044
VWidth: 1126
Flags: W
LayerCount: 2
Fore
SplineSet
646 840 m 1,0,1
 726 823 726 823 725 777 c 0,2,3
 658 475 658 475 608 475 c 2,4,-1
 536 475 l 1,5,-1
 536 437 l 2,6,7
 540 428 540 428 545 428 c 0,8,9
 747 450 747 450 788 450 c 0,10,11
 880 416 880 416 881 386 c 0,12,13
 881 340 881 340 847 340 c 2,14,-1
 536 353 l 1,15,-1
 545 332 l 1,16,17
 688 172 688 172 864 147 c 1,18,19
 952 92 952 92 952 76 c 0,20,21
 952 42 952 42 906 42 c 0,22,23
 717 42 717 42 528 214 c 1,24,-1
 536 214 l 1,25,26
 528 105 528 105 528 59 c 2,27,-1
 528 -12 l 1,28,-1
 511 -88 l 1,29,-1
 461 -76 l 2,30,31
 440 -76 440 -76 427 -17 c 0,32,33
 436 155 436 155 436 248 c 2,34,-1
 436 244 l 1,35,-1
 452 244 l 1,36,37
 158 -16 158 -16 112 59 c 1,38,39
 346 256 346 256 372 307 c 1,40,-1
 372 315 l 1,41,-1
 310 315 l 2,42,43
 268 315 268 315 133 286 c 1,44,-1
 120 328 l 1,45,-1
 108 382 l 1,46,47
 440 407 440 407 436 416 c 2,48,-1
 436 437 l 2,49,50
 436 445 436 445 431 458 c 2,51,-1
 330 441 l 1,52,53
 267 462 267 462 263 500 c 2,54,-1
 259 609 l 2,55,56
 246 714 246 714 246 786 c 1,57,-1
 301 836 l 1,58,-1
 381 836 l 2,59,60
 474 836 474 836 646 840 c 1,0,1
330 760 m 2,61,-1
 326 748 l 1,62,63
 347 652 347 652 347 576 c 2,64,-1
 347 554 l 2,65,66
 348 550 348 550 352 550 c 2,67,-1
 431 550 l 2,68,69
 439 550 439 550 444 563 c 2,70,-1
 444 613 l 1,71,-1
 419 613 l 2,72,73
 360 613 360 613 347 668 c 2,74,-1
 347 685 l 1,75,-1
 444 706 l 1,76,-1
 444 752 l 2,77,78
 444 760 444 760 436 760 c 0,79,80
 373 752 373 752 360 752 c 0,81,82
 338 760 338 760 330 760 c 2,61,-1
536 752 m 1,83,-1
 536 731 l 1,84,-1
 536 710 l 1,85,-1
 608 718 l 1,86,-1
 608 752 l 1,87,-1
 536 752 l 1,83,-1
532 563 m 1,88,-1
 536 559 l 1,89,90
 607 559 607 559 608 634 c 1,91,-1
 582 638 l 1,92,-1
 536 630 l 1,93,-1
 532 563 l 1,88,-1
EndSplineSet
Validated: 37
EndChar

StartChar: uni6C11
Encoding: 27665 27665 58
Width: 1044
VWidth: 1126
Flags: W
LayerCount: 2
Fore
SplineSet
499 856 m 1,0,1
 591 839 591 839 592 788 c 0,2,3
 592 586 592 586 470 578 c 1,4,-1
 470 578 l 1,5,6
 487 528 487 528 504 515 c 0,7,8
 630 536 630 536 630 566 c 1,9,10
 689 532 689 532 714 532 c 1,11,-1
 714 461 l 1,12,-1
 651 448 l 1,13,-1
 642 448 l 1,14,15
 566 431 566 431 541 423 c 1,16,17
 587 247 587 247 785 116 c 1,18,-1
 789 116 l 2,19,20
 802 120 802 120 802 158 c 2,21,-1
 810 226 l 1,22,-1
 831 289 l 1,23,-1
 856 289 l 2,24,25
 890 281 890 281 890 251 c 2,26,-1
 890 -10 l 2,27,28
 890 -52 890 -52 852 -52 c 1,29,30
 545 141 545 141 449 406 c 1,31,-1
 436 410 l 1,32,-1
 420 410 l 1,33,34
 244 385 244 385 243 368 c 2,35,-1
 235 192 l 1,36,-1
 239 192 l 1,37,-1
 420 335 l 1,38,-1
 420 276 l 1,39,40
 227 -5 227 -5 205 -5 c 0,41,42
 171 -5 171 -5 134 104 c 1,43,-1
 142 137 l 1,44,-1
 147 196 l 1,45,-1
 155 805 l 1,46,47
 360 822 360 822 499 856 c 1,0,1
252 734 m 2,48,-1
 252 629 l 1,49,-1
 281 629 l 1,50,51
 499 671 499 671 499 709 c 2,52,-1
 499 763 l 1,53,-1
 462 763 l 1,54,55
 252 726 252 726 252 734 c 2,48,-1
243 536 m 2,56,-1
 243 465 l 1,57,58
 243 465 l 1,59,60
 386 465 386 465 403 507 c 1,61,-1
 382 553 l 1,62,63
 243 549 243 549 243 536 c 2,56,-1
EndSplineSet
Validated: 37
EndChar

StartChar: uni6C34
Encoding: 27700 27700 59
Width: 1044
VWidth: 1126
Flags: W
LayerCount: 2
Fore
SplineSet
435 818 m 1,0,-1
 477 818 l 1,1,2
 553 755 553 755 536 600 c 1,3,-1
 540 495 l 2,4,5
 540 487 540 487 582 457 c 0,6,7
 784 285 784 285 880 239 c 0,8,9
 968 205 968 205 985 163 c 1,10,-1
 985 130 l 1,11,-1
 964 130 l 2,12,13
 800 143 800 143 721 239 c 1,14,-1
 544 390 l 1,15,-1
 540 390 l 1,16,17
 540 348 540 348 549 226 c 0,18,19
 553 29 553 29 511 -34 c 1,20,21
 398 -21 398 -21 280 100 c 1,22,-1
 280 150 l 1,23,-1
 309 150 l 1,24,25
 410 108 410 108 439 108 c 2,26,-1
 448 113 l 1,27,-1
 448 159 l 2,28,29
 448 600 448 600 435 818 c 1,0,-1
738 696 m 1,30,31
 788 688 788 688 788 654 c 0,32,33
 775 570 775 570 557 470 c 1,34,-1
 557 520 l 1,35,36
 633 591 633 591 738 696 c 1,30,31
385 558 m 2,37,38
 444 558 444 558 431 491 c 1,39,40
 288 196 288 196 87 108 c 1,41,-1
 87 146 l 1,42,43
 188 264 188 264 305 432 c 1,44,-1
 305 453 l 1,45,-1
 292 449 l 2,46,47
 191 420 191 420 157.5 419.5 c 128,-1,48
 124 419 124 419 124 457 c 2,49,-1
 124 486 l 1,50,-1
 385 558 l 2,37,38
EndSplineSet
Validated: 37
EndChar

StartChar: uni6C64
Encoding: 27748 27748 60
Width: 1044
VWidth: 1126
Flags: W
LayerCount: 2
Fore
SplineSet
642 831 m 1,0,1
 713 793 713 793 713 772 c 2,2,-1
 713 756 l 1,3,4
 629 668 629 668 558 533 c 1,5,-1
 558 524 l 1,6,-1
 571 524 l 1,7,8
 760 553 760 553 772 554 c 0,9,10
 923 562 923 562 957 474 c 1,11,12
 877 100 877 100 734 -55 c 1,13,14
 667 -55 667 -55 512 88 c 1,15,-1
 419 20 l 1,16,-1
 386 20 l 1,17,-1
 386 58 l 1,18,19
 634 340 634 340 634 420 c 0,20,21
 634 424 634 424 629 424 c 2,22,-1
 562 424 l 1,23,-1
 491 415 l 1,24,25
 520 365 520 365 520 344 c 0,26,27
 407 151 407 151 377 142 c 2,28,-1
 348 142 l 1,29,-1
 348 180 l 1,30,31
 419 344 419 344 419 348 c 2,32,-1
 419 365 l 2,33,34
 419 407 419 407 394 449 c 1,35,36
 461 533 461 533 545 676 c 2,37,-1
 566 714 l 2,38,39
 574 722 574 722 440 701 c 1,40,-1
 440 776 l 1,41,42
 562 796 562 796 642 831 c 1,0,1
151 743 m 1,43,-1
 205 743 l 1,44,45
 285 697 285 697 285 676 c 2,46,-1
 285 630 l 1,47,-1
 239 630 l 1,48,49
 151 680 151 680 151 709 c 2,50,-1
 151 743 l 1,43,-1
79 533 m 1,51,52
 167 533 167 533 209 457 c 1,53,-1
 209 420 l 1,54,55
 112 420 112 420 79 482 c 1,56,-1
 79 533 l 1,51,52
713 453 m 1,57,-1
 726 415 l 1,58,59
 726 339 726 339 566 151 c 1,60,-1
 558 134 l 1,61,62
 571 100 571 100 697 75 c 1,63,-1
 701 75 l 1,64,65
 756 96 756 96 831 348 c 0,66,67
 844 386 844 386 844 403 c 2,68,-1
 844 440 l 2,69,70
 840 457 840 457 806 457 c 2,71,-1
 722 457 l 1,72,-1
 713 453 l 1,57,-1
281 394 m 1,73,-1
 319 394 l 1,74,-1
 319 361 l 2,75,76
 319 252 319 252 151 -5 c 1,77,-1
 125 -5 l 2,78,79
 87 -5 87 -5 75 58 c 1,80,81
 151 142 151 142 281 394 c 1,73,-1
EndSplineSet
Validated: 33
EndChar

StartChar: uni6CB3
Encoding: 27827 27827 61
Width: 1044
VWidth: 1126
Flags: W
LayerCount: 2
Fore
SplineSet
861 830 m 1,0,1
 911 801 911 801 911 780 c 2,2,-1
 911 746 l 1,3,4
 525 700 525 700 504 692 c 0,5,6
 428 717 428 717 428 751 c 2,7,-1
 428 772 l 1,8,9
 664 796 664 796 861 830 c 1,0,1
243 763 m 0,10,11
 331 738 331 738 332 700 c 2,12,-1
 332 658 l 1,13,-1
 298 658 l 2,14,15
 214 658 214 658 193 726 c 1,16,17
 201 764 201 764 243 763 c 0,10,11
802 734 m 0,18,19
 857 712 857 712 857 662 c 2,20,-1
 865 314 l 2,21,22
 865 -30 865 -30 798 -30 c 2,23,-1
 773 -30 l 1,24,25
 723 -5 723 -5 575 163 c 1,26,-1
 634 163 l 1,27,28
 747 108 747 108 777 108 c 2,29,-1
 764 108 l 1,30,31
 772 536 772 536 773 658 c 2,32,-1
 773 667 l 2,33,34
 760 734 760 734 802 734 c 0,18,19
609 612 m 1,35,36
 701 578 701 578 701 549 c 2,37,-1
 701 536 l 2,38,39
 701 511 701 511 668 444 c 1,40,41
 685 410 685 410 684 381 c 1,42,43
 482 318 482 318 470 297 c 1,44,-1
 449 297 l 2,45,46
 403 297 403 297 374 541 c 0,47,48
 387 562 387 562 386 587 c 1,49,-1
 449 574 l 1,50,-1
 483 574 l 2,51,52
 529 574 529 574 609 612 c 1,35,36
479 478 m 0,53,54
 479 419 479 419 487 419 c 2,55,-1
 512 419 l 2,56,57
 562 418 562 418 600 494 c 1,58,-1
 600 516 l 1,59,-1
 575 516 l 1,60,61
 479 496 479 496 479 478 c 0,53,54
126 570 m 1,62,63
 181 570 181 570 243 486 c 1,64,-1
 243 474 l 1,65,-1
 222 415 l 1,66,67
 146 465 146 465 105 528 c 1,68,-1
 105 562 l 1,69,70
 126 562 126 562 126 570 c 1,62,63
315 465 m 1,71,-1
 353 465 l 1,72,-1
 353 419 l 1,73,74
 214 87 214 87 164 37 c 1,75,-1
 147 37 l 2,76,77
 109 36 109 36 109 74 c 2,78,-1
 109 108 l 1,79,-1
 315 465 l 1,71,-1
EndSplineSet
Validated: 37
EndChar

StartChar: uni6D2A
Encoding: 27946 27946 62
Width: 1044
VWidth: 1126
Flags: W
LayerCount: 2
Fore
SplineSet
646 847 m 1,0,-1
 684 847 l 2,1,2
 747 846 747 846 735 716 c 2,3,-1
 735 674 l 1,4,5
 823 688 823 688 810 612 c 2,6,-1
 810 595 l 1,7,8
 730 570 730 570 726 565 c 2,9,-1
 726 389 l 1,10,-1
 869 393 l 1,11,12
 949 368 949 368 949 336.5 c 128,-1,13
 949 305 949 305 806 301 c 2,14,-1
 365 242 l 2,15,16
 344 246 344 246 319 246 c 1,17,-1
 319 280 l 2,18,19
 319 314 319 314 470 343 c 1,20,-1
 470 343 l 1,21,22
 478 440 478 440 474 502 c 1,23,24
 436 488 436 488 399 548 c 1,25,26
 399 590 399 590 470 599 c 1,27,-1
 470 780 l 1,28,-1
 495 780 l 2,29,30
 558 780 558 780 558 641 c 1,31,-1
 562 620 l 1,32,-1
 630 637 l 2,33,34
 654 628 654 628 646 758 c 2,35,-1
 646 847 l 1,0,-1
558 422 m 2,36,-1
 558 351 l 2,37,38
 558 355 558 355 588 364 c 2,39,-1
 676 385 l 1,40,41
 617 -84 617 -84 642 528 c 0,42,43
 650 552 650 552 630 548 c 2,44,-1
 567 536 l 1,45,46
 562 498 562 498 558 422 c 2,36,-1
201 700 m 2,47,-1
 239 679 l 2,48,49
 260 666 260 666 281 616 c 1,50,-1
 281 578 l 1,51,-1
 210 574 l 1,52,-1
 159 654 l 1,53,54
 172 700 172 700 201 700 c 2,47,-1
130 515 m 0,55,56
 214 473 214 473 218 410 c 2,57,-1
 218 372 l 1,58,-1
 168 372 l 1,59,60
 88 452 88 452 88 473 c 0,61,62
 96 515 96 515 130 515 c 0,55,56
323 406 m 1,63,-1
 323 368 l 1,64,65
 298 267 298 267 164 40 c 1,66,-1
 134 40 l 2,67,68
 109 40 109 40 71 95 c 1,69,70
 176 204 176 204 290 406 c 1,71,-1
 323 406 l 1,63,-1
458 229 m 1,72,-1
 508 212 l 2,73,74
 546 204 546 204 546 179 c 2,75,-1
 546 162 l 1,76,77
 479 70 479 70 390 -10 c 1,78,-1
 306 -10 l 1,79,80
 433 141 433 141 458 229 c 1,72,-1
672 217 m 1,81,-1
 697 217 l 2,82,83
 773 217 773 217 882 61 c 1,84,-1
 882 -23 l 1,85,-1
 836 -23 l 1,86,87
 786 11 786 11 672 187 c 1,88,-1
 672 217 l 1,81,-1
EndSplineSet
Validated: 37
EndChar

StartChar: uni6D77
Encoding: 28023 28023 63
Width: 1044
VWidth: 1126
Flags: W
LayerCount: 2
Fore
SplineSet
481 864 m 2,0,-1
 498 864 l 2,1,2
 519 864 519 864 540 834 c 1,3,-1
 540 792 l 2,4,5
 540 784 540 784 569.5 780 c 128,-1,6
 599 776 599 776 754 796 c 1,7,8
 825 771 825 771 825.5 750 c 128,-1,9
 826 729 826 729 792 708 c 2,10,-1
 725 700 l 2,11,12
 570 696 570 696 494 687 c 1,13,14
 381 544 381 544 364 616 c 1,15,-1
 364 628 l 1,16,-1
 444 767 l 1,17,18
 452 864 452 864 481 864 c 2,0,-1
187 750 m 2,19,20
 242 750 242 750 271 700 c 0,21,22
 271 672 271 672 263 650 c 2,23,-1
 238 612 l 1,24,25
 196 646 196 646 145 742 c 1,26,-1
 187 750 l 2,19,20
591 666 m 2,27,-1
 700 666 l 1,28,29
 809 637 809 637 809 595 c 2,30,-1
 801 490 l 2,31,32
 801 486 801 486 817 486 c 2,33,-1
 939 486 l 1,34,35
 973 469 973 469 1002 469 c 1,36,-1
 1002 406 l 1,37,38
 889 385 889 385 788 389 c 1,39,-1
 771 259 l 1,40,-1
 817 259 l 2,41,42
 905 254 905 254 906 208 c 2,43,-1
 906 150 l 1,44,-1
 830 162 l 1,45,-1
 754 162 l 1,46,-1
 725 53 l 2,47,48
 696 -10 696 -10 628 -48 c 1,49,-1
 586 -48 l 1,50,51
 494 15 494 15 473 57 c 1,52,-1
 473 78 l 1,53,54
 523 78 523 78 586 53 c 1,55,-1
 599 53 l 1,56,57
 641 95 641 95 641 120 c 2,58,-1
 649 154 l 1,59,60
 527 150 527 150 418 150 c 0,61,62
 359 150 359 150 330 196 c 1,63,-1
 330 221 l 1,64,65
 376 309 376 309 393 360 c 2,66,-1
 397 376 l 1,67,-1
 280 376 l 1,68,69
 242 275 242 275 141 28 c 1,70,71
 49 78 49 78 70 154 c 1,72,73
 129 179 129 179 276 532 c 1,74,-1
 309 498 l 1,75,-1
 309 460 l 1,76,-1
 418 460 l 2,77,78
 426 460 426 460 473 641 c 1,79,80
 520 666 520 666 591 666 c 2,27,-1
511 477 m 1,81,82
 532 469 532 469 574 471 c 128,-1,83
 616 473 616 473 612 473 c 0,84,85
 574 507 574 507 574 532 c 2,86,-1
 574 578 l 1,87,88
 713 536 713 536 679 477 c 1,89,-1
 712 477 l 2,90,91
 716 485 716 485 717 532 c 2,92,-1
 717 566 l 2,93,94
 717 582 717 582 603 586 c 0,95,96
 532 582 532 582 528 532 c 2,97,-1
 511 477 l 1,81,82
70 553 m 1,98,-1
 91 553 l 2,99,100
 192 548 192 548 192 460 c 1,101,-1
 141 418 l 1,102,103
 74 502 74 502 70 532 c 2,104,-1
 70 553 l 1,98,-1
494 381 m 1,105,106
 477 352 477 352 439 238 c 1,107,-1
 452 234 l 1,108,109
 570 242 570 242 666 246 c 1,110,-1
 691 389 l 1,111,112
 658 385 658 385 494 381 c 1,105,106
523 368 m 1,113,-1
 565 368 l 2,114,115
 586 368 586 368 637 322 c 1,116,117
 637 259 637 259 603 259 c 2,118,-1
 582 259 l 2,119,120
 565 259 565 259 523 326 c 1,121,-1
 523 368 l 1,113,-1
EndSplineSet
Validated: 33
EndChar

StartChar: uni6DE1
Encoding: 28129 28129 64
Width: 1044
VWidth: 1126
Flags: W
LayerCount: 2
Fore
SplineSet
529 884 m 1,0,-1
 550 884 l 2,1,2
 579 884 579 884 609 812 c 1,3,-1
 584 607 l 1,4,-1
 588 607 l 1,5,6
 672 750 672 750 689 749 c 2,7,-1
 722 749 l 1,8,-1
 722 695 l 1,9,-1
 642 577 l 2,10,11
 642 569 642 569 789 472 c 1,12,-1
 810 376 l 1,13,-1
 777 376 l 2,14,15
 748 376 748 376 563 527 c 1,16,-1
 563 527 l 1,17,18
 496 393 496 393 348 308 c 1,19,20
 289 195 289 195 168 10 c 1,21,-1
 130 10 l 2,22,23
 96 10 96 10 96 61 c 1,24,25
 146 111 146 111 323 388 c 1,26,27
 420 438 420 438 466 535 c 1,28,-1
 407 644 l 1,29,-1
 407 682 l 1,30,-1
 449 682 l 1,31,-1
 508 636 l 1,32,-1
 512 636 l 2,33,34
 520 636 520 636 529 808 c 0,35,36
 529 812 529 812 512 838 c 1,37,38
 529 859 529 859 529 884 c 1,0,-1
176 703 m 1,39,-1
 222 703 l 1,40,-1
 327 670 l 1,41,-1
 327 632 l 1,42,-1
 302 594 l 1,43,44
 226 594 226 594 176 678 c 1,45,-1
 176 703 l 1,39,-1
96 493 m 1,46,-1
 134 493 l 2,47,48
 197 493 197 493 252 413 c 1,49,-1
 252 376 l 1,50,-1
 218 376 l 2,51,52
 155 376 155 376 96 460 c 1,53,-1
 96 493 l 1,46,-1
516 464 m 1,54,-1
 550 464 l 2,55,56
 579 464 579 464 609 376 c 1,57,-1
 600 321 l 1,58,-1
 600 271 l 1,59,60
 625 246 625 246 659 203 c 0,61,62
 735 94 735 94 920 48 c 1,63,-1
 920 -15 l 1,64,-1
 852 -32 l 1,65,66
 722 -24 722 -24 588 166 c 0,67,68
 571 187 571 187 558 187 c 0,69,70
 403 -10 403 -10 311 -11 c 1,71,-1
 290 27 l 1,72,73
 458 140 458 140 458 208 c 1,74,75
 399 300 399 300 399 334 c 1,76,-1
 441 359 l 1,77,78
 500 296 500 296 504 296 c 0,79,80
 517 309 517 309 516 346 c 2,81,-1
 504 418 l 2,82,83
 516 439 516 439 516 464 c 1,54,-1
684 371 m 1,84,-1
 735 371 l 1,85,-1
 735 334 l 1,86,87
 685 258 685 258 596 237 c 1,88,89
 646 350 646 350 684 371 c 1,84,-1
EndSplineSet
Validated: 37
EndChar

StartChar: uni706B
Encoding: 28779 28779 65
Width: 1044
VWidth: 1126
Flags: W
LayerCount: 2
Fore
SplineSet
394 842 m 1,0,-1
 440 842 l 1,1,2
 486 821 486 821 516 750 c 1,3,-1
 495 636 l 2,4,5
 482 514 482 514 478 485 c 2,6,-1
 462 410 l 1,7,8
 731 120 731 120 848 107 c 1,9,10
 953 62 953 62 953 32 c 2,11,-1
 953 10 l 1,12,-1
 886 -2 l 1,13,14
 672 -2 672 -2 445 334 c 1,15,-1
 440 342 l 1,16,17
 411 245 411 245 348 183 c 0,18,19
 176 23 176 23 75 23 c 1,20,-1
 75 61 l 1,21,22
 415 233 415 233 407 771 c 1,23,-1
 394 842 l 1,0,-1
596 624 m 1,24,25
 680 624 680 624 701 569 c 2,26,-1
 705 544 l 2,27,28
 705 502 705 502 520 380 c 1,29,-1
 482 380 l 1,30,-1
 482 418 l 1,31,32
 596 544 596 544 596 624 c 1,24,25
222 540 m 1,33,-1
 252 540 l 2,34,35
 302 540 302 540 348 368 c 1,36,-1
 298 368 l 2,37,38
 264 368 264 368 222 477 c 1,39,-1
 222 540 l 1,33,-1
EndSplineSet
Validated: 37
EndChar

StartChar: uni7231
Encoding: 29233 29233 66
Width: 1044
VWidth: 1126
Flags: W
LayerCount: 2
Fore
SplineSet
344 686 m 0,0,1
 382 623 382 623 390 623 c 0,2,3
 470 631 470 631 568.5 646 c 128,-1,4
 667 661 667 661 709 661 c 0,5,6
 806 674 806 674 894 606 c 1,7,-1
 894 556 l 1,8,9
 726 447 726 447 676 447 c 1,10,-1
 676 485 l 1,11,-1
 751 556 l 2,12,13
 751 564 751 564 718 569 c 0,14,15
 563 556 563 556 461 544 c 1,16,-1
 466 518 l 1,17,-1
 466 493 l 1,18,-1
 571 510 l 2,19,20
 588 510 588 510 621 485 c 1,21,-1
 621 460 l 2,22,23
 621 426 621 426 424 401 c 1,24,-1
 394 367 l 1,25,-1
 394 359 l 1,26,-1
 407 359 l 2,27,28
 445 359 445 359 604 392 c 1,29,30
 646 371 646 371 667 371 c 1,31,-1
 667 350 l 2,32,33
 667 279 667 279 545 149 c 1,34,-1
 545 149 l 1,35,36
 604 99 604 99 881 35 c 1,37,-1
 915 2 l 1,38,-1
 915 -40 l 1,39,40
 881 -40 881 -40 865 -44 c 0,41,42
 592 -27 592 -27 478 77 c 1,43,-1
 478 77 l 1,44,45
 255 -28 255 -28 134 -28 c 1,46,-1
 134 6 l 1,47,-1
 344 111 l 2,48,49
 352 111 352 111 390 149 c 1,50,-1
 390 144 l 1,51,52
 314 224 314 224 306 224 c 0,53,54
 197 132 197 132 125 136 c 1,55,-1
 125 166 l 1,56,57
 301 309 301 309 323 388 c 1,58,-1
 293 392 l 2,59,60
 243 413 243 413 243 455 c 1,61,62
 306 468 306 468 356 480 c 1,63,-1
 373 522 l 1,64,-1
 373 531 l 1,65,-1
 377 531 l 2,66,67
 209 527 209 527 209 514 c 2,68,-1
 209 396 l 1,69,-1
 193 329 l 1,70,-1
 125 359 l 1,71,72
 96 590 96 590 176 590 c 1,73,-1
 310 619 l 2,74,75
 310 612 310 612 222 712 c 1,76,77
 310 736 310 736 344 686 c 0,0,1
537 900 m 1,78,79
 596 882 596 882 596 858 c 2,80,-1
 596 812 l 1,81,-1
 524 800 l 2,82,83
 432 771 432 771 344 749 c 2,84,-1
 201 695 l 1,85,86
 268 816 268 816 537 900 c 1,78,79
592 796 m 1,87,-1
 634 796 l 2,88,89
 659 796 659 796 680 737 c 1,90,-1
 541 644 l 1,91,-1
 512 644 l 1,92,-1
 512 678 l 1,93,-1
 592 796 l 1,87,-1
382 779 m 1,94,-1
 419 779 l 1,95,96
 461 758 461 758 478 699 c 1,97,-1
 466 623 l 1,98,99
 382 686 382 686 382 745 c 2,100,-1
 382 779 l 1,94,-1
377 270 m 1,101,-1
 377 254 l 2,102,103
 377 250 377 250 466 199 c 1,104,105
 500 207 500 207 533 304 c 1,106,-1
 537 304 l 2,107,108
 503 304 503 304 377 270 c 1,101,-1
EndSplineSet
Validated: 37
EndChar

StartChar: uni7384
Encoding: 29572 29572 67
Width: 1044
VWidth: 1126
Flags: W
LayerCount: 2
Fore
SplineSet
441 862 m 1,0,1
 512 833 512 833 537 778 c 1,2,-1
 537 749 l 1,3,-1
 495 720 l 1,4,5
 466 720 466 720 424 820 c 1,6,-1
 441 862 l 1,0,1
747 749 m 0,7,8
 802 749 802 749 844 682 c 1,9,-1
 844 656 l 1,10,-1
 676 652 l 1,11,-1
 189 602 l 1,12,-1
 172 631 l 1,13,14
 172 681 172 681 558 728 c 0,15,16
 558 732 558 732 747 749 c 0,7,8
449 623 m 1,17,-1
 491 623 l 1,18,-1
 525 560 l 1,19,20
 466 494 466 494 403 426 c 2,21,-1
 374 396 l 1,22,23
 555 425 555 425 546 459 c 1,24,25
 605 572 605 572 651 434 c 1,26,27
 626 371 626 371 374 148 c 1,28,29
 374 152 374 152 378 152 c 0,30,31
 567 181 567 181 697 182 c 1,32,-1
 693 266 l 1,33,-1
 714 266 l 2,34,35
 785 266 785 266 823 64 c 1,36,-1
 823 43 l 2,37,38
 823 9 823 9 789 10 c 0,39,40
 743 10 743 10 718 85 c 1,41,-1
 647 85 l 1,42,-1
 222 39 l 1,43,-1
 214 77 l 1,44,-1
 214 110 l 1,45,46
 399 282 399 282 432 320 c 1,47,-1
 281 300 l 1,48,49
 231 321 231 321 231 350 c 2,50,-1
 231 388 l 1,51,52
 289 392 289 392 449 623 c 1,17,-1
EndSplineSet
Validated: 37
EndChar

StartChar: uni7389
Encoding: 29577 29577 68
Width: 1044
VWidth: 1126
Flags: W
LayerCount: 2
Fore
SplineSet
625 751 m 1,0,-1
 650 718 l 1,1,-1
 650 659 l 1,2,-1
 608 659 l 2,3,4
 507 651 507 651 508 638 c 2,5,-1
 516 482 l 1,6,-1
 575 482 l 1,7,-1
 638 499 l 1,8,-1
 667 445 l 1,9,-1
 667 407 l 1,10,11
 562 382 562 382 516 377 c 1,12,-1
 508 142 l 1,13,-1
 781 142 l 1,14,15
 848 159 848 159 932 104 c 1,16,-1
 932 71 l 2,17,18
 932 29 932 29 890 29 c 0,19,20
 823 50 823 50 797 50 c 2,21,-1
 650 50 l 2,22,23
 558 50 558 50 155 29 c 0,24,25
 121 37 121 37 100 37 c 1,26,-1
 100 117 l 1,27,28
 155 117 155 117 411 142 c 1,29,-1
 415 277 l 1,30,-1
 415 369 l 1,31,32
 373 369 373 369 319 356 c 1,33,34
 298 373 298 373 272 373 c 1,35,-1
 272 436 l 1,36,37
 419 457 419 457 419 470 c 0,38,39
 419 630 419 630 407 629 c 0,40,41
 281 625 281 625 281 655 c 2,42,-1
 281 713 l 1,43,-1
 352 726 l 1,44,-1
 470 730 l 1,45,-1
 625 751 l 1,0,-1
663 331 m 1,46,47
 785 302 785 302 802 243 c 1,48,-1
 776 172 l 1,49,50
 663 227 663 227 663 272 c 2,51,-1
 663 331 l 1,46,47
EndSplineSet
Validated: 33
EndChar

StartChar: uni73CD
Encoding: 29645 29645 69
Width: 1044
VWidth: 1126
Flags: W
LayerCount: 2
Fore
SplineSet
546 893 m 1,0,1
 592 792 592 792 798 666 c 1,2,3
 953 599 953 599 999 544 c 1,4,-1
 999 502 l 1,5,6
 806 531 806 531 550 750 c 1,7,-1
 554 750 l 1,8,9
 424 582 424 582 361 515 c 1,10,-1
 323 515 l 1,11,-1
 323 553 l 1,12,13
 437 687 437 687 546 893 c 1,0,1
314 687 m 1,14,-1
 327 653 l 1,15,-1
 327 611 l 1,16,17
 247 607 247 607 247 599 c 2,18,-1
 247 548 l 2,19,20
 247 544 247 544 319 540 c 1,21,-1
 319 490 l 1,22,23
 239 461 239 461 239 372 c 2,24,-1
 239 364 l 1,25,-1
 247 364 l 2,26,27
 255 364 255 364 369 410 c 1,28,-1
 369 359 l 1,29,30
 323 283 323 283 79 200 c 1,31,32
 50 213 50 213 29 212 c 1,33,-1
 29 275 l 1,34,35
 155 275 155 275 155 427 c 1,36,-1
 146 427 l 2,37,38
 116 419 116 419 104 418 c 0,39,40
 49 435 49 435 50 473 c 1,41,42
 160 515 160 515 168 527 c 0,43,44
 168 594 168 594 100 595 c 1,45,-1
 100 653 l 1,46,47
 264 687 264 687 314 687 c 1,14,-1
575 666 m 1,48,-1
 600 666 l 2,49,50
 634 653 634 653 634 628 c 2,51,-1
 634 620 l 1,52,53
 533 486 533 486 432 456 c 1,54,-1
 432 485 l 2,55,56
 432 494 432 494 575 666 c 1,48,-1
608 548 m 1,57,-1
 642 548 l 2,58,59
 680 540 680 540 680 511 c 2,60,-1
 680 490 l 1,61,62
 630 389 630 389 512 288 c 1,63,-1
 440 271 l 1,64,-1
 440 317 l 1,65,66
 608 498 608 498 608 548 c 1,57,-1
705 435 m 2,67,68
 726 422 726 422 756 422 c 1,69,70
 608 57 608 57 356 -65 c 1,71,-1
 285 -65 l 1,72,73
 576 187 576 187 672 435 c 1,74,-1
 705 435 l 2,67,68
EndSplineSet
Validated: 41
EndChar

StartChar: uni73E0
Encoding: 29664 29664 70
Width: 1044
VWidth: 1126
Flags: W
LayerCount: 2
Fore
SplineSet
545 934 m 1,0,-1
 583 934 l 1,1,2
 633 917 633 917 633 854 c 2,3,-1
 625 703 l 1,4,5
 743 690 743 690 742 644 c 2,6,-1
 742 619 l 1,7,8
 633 619 633 619 633 552 c 0,9,10
 625 539 625 539 625 505 c 1,11,-1
 633 505 l 1,12,13
 721 522 721 522 889 539 c 1,14,-1
 915 493 l 1,15,-1
 915 442 l 1,16,-1
 772 442 l 1,17,18
 625 421 625 421 625 400 c 2,19,-1
 625 358 l 1,20,21
 751 207 751 207 1011 136 c 1,22,-1
 1036 102 l 1,23,-1
 1036 69 l 1,24,-1
 986 69 l 2,25,26
 831 69 831 69 621 249 c 1,27,-1
 616 249 l 1,28,-1
 616 22 l 1,29,-1
 600 -66 l 1,30,-1
 558 -66 l 1,31,-1
 516 -53 l 1,32,-1
 528 6 l 1,33,-1
 528 174 l 2,34,35
 528 170 528 170 511 169 c 2,36,-1
 528 211 l 1,37,-1
 528 304 l 1,38,-1
 545 304 l 1,39,40
 394 140 394 140 360 140 c 2,41,-1
 322 140 l 1,42,-1
 322 174 l 1,43,44
 503 350 503 350 503 392 c 2,45,-1
 503 384 l 1,46,-1
 507 384 l 2,47,48
 473 384 473 384 373 367 c 1,49,50
 318 384 318 384 318 409 c 2,51,-1
 318 426 l 1,52,53
 431 514 431 514 432 665 c 2,54,-1
 432 741 l 1,55,-1
 465 741 l 1,56,57
 515 724 515 724 516 669 c 1,58,-1
 545 669 l 2,59,60
 562 669 562 669 562 858 c 2,61,-1
 562 867 l 1,62,-1
 545 934 l 1,0,-1
268 652 m 1,63,64
 318 631 318 631 318 594 c 1,65,66
 263 560 263 560 264 556 c 2,67,-1
 264 547 l 2,68,69
 264 513 264 513 369 442 c 1,70,71
 251 442 251 442 251 321 c 2,72,-1
 251 316 l 1,73,-1
 276 312 l 1,74,75
 360 320 360 320 398 321 c 1,76,-1
 398 287 l 1,77,78
 348 232 348 232 66 157 c 1,79,-1
 49 157 l 2,80,81
 11 157 11 157 12 190 c 2,82,-1
 12 220 l 1,83,84
 172 249 172 249 171 308 c 0,85,86
 179 321 179 321 180 342 c 2,87,-1
 171 392 l 1,88,-1
 104 384 l 2,89,90
 87 392 87 392 62 392 c 1,91,-1
 62 455 l 1,92,93
 180 468 180 468 180 489 c 2,94,-1
 180 539 l 1,95,-1
 100 589 l 1,96,-1
 100 636 l 1,97,-1
 268 652 l 1,63,64
448 476 m 1,98,-1
 448 468 l 1,99,-1
 469 468 l 2,100,101
 532 468 532 468 545 493 c 2,102,-1
 545 577 l 2,103,104
 545 581 545 581 537 581 c 0,105,106
 494 581 494 581 448 476 c 1,98,-1
EndSplineSet
Validated: 37
EndChar

StartChar: uni751F
Encoding: 29983 29983 71
Width: 1044
VWidth: 1126
Flags: W
LayerCount: 2
Fore
SplineSet
474 847 m 1,0,-1
 533 838 l 1,1,2
 583 792 583 792 571 595 c 1,3,-1
 697 599 l 2,4,5
 735 591 735 591 735 561 c 2,6,-1
 735 511 l 1,7,8
 571 511 571 511 571 485 c 2,9,-1
 571 380 l 1,10,-1
 617 380 l 2,11,12
 634 380 634 380 663 389 c 1,13,14
 722 364 722 364 726 330 c 2,15,-1
 726 288 l 1,16,17
 562 284 562 284 563 263 c 2,18,-1
 563 128 l 2,19,20
 563 115 563 115 579 116 c 2,21,-1
 684 112 l 2,22,23
 894 116 894 116 894 53 c 2,24,-1
 894 40 l 2,25,26
 894 -6 894 -6 848 -6 c 1,27,28
 827 23 827 23 638 15 c 0,29,30
 541 15 541 15 189 -19 c 0,31,32
 164 -6 164 -6 147 -6 c 2,33,-1
 134 44 l 2,34,35
 134 82 134 82 470 99 c 0,36,37
 474 112 474 112 474 254 c 1,38,-1
 458 254 l 2,39,40
 391 258 391 258 348 242 c 1,41,42
 289 259 289 259 290 288 c 2,43,-1
 290 313 l 1,44,45
 328 347 328 347 474 364 c 1,46,-1
 474 456 l 1,47,-1
 470 481 l 1,48,-1
 395 473 l 1,49,-1
 336 469 l 1,50,51
 206 272 206 272 122 271 c 1,52,-1
 122 313 l 1,53,54
 277 485 277 485 273 721 c 1,55,-1
 319 721 l 2,56,57
 357 721 357 721 361 569 c 1,58,-1
 424 569 l 2,59,60
 479 577 479 577 479 582 c 0,61,62
 478 725 478 725 474 847 c 1,0,-1
EndSplineSet
Validated: 33
EndChar

StartChar: uni7687
Encoding: 30343 30343 72
Width: 1044
VWidth: 1126
Flags: W
LayerCount: 2
Fore
SplineSet
491 883 m 1,0,-1
 533 829 l 1,1,-1
 533 791 l 1,2,3
 474 791 474 791 306 724 c 1,4,-1
 306 728 l 1,5,-1
 655 762 l 1,6,-1
 676 762 l 1,7,-1
 751 740 l 1,8,-1
 751 694 l 1,9,10
 667 466 667 466 642 446 c 1,11,-1
 550 459 l 1,12,-1
 294 404 l 1,13,14
 244 438 244 438 243 484 c 2,15,-1
 252 581 l 2,16,17
 244 657 244 657 226 694 c 1,18,19
 226 757 226 757 491 883 c 1,0,-1
323 652 m 1,20,21
 323 501 323 501 340 501 c 0,22,23
 621 539 621 539 621 577 c 1,24,25
 655 640 655 640 655 678 c 0,26,27
 655 682 655 682 638 682 c 0,28,29
 348 673 348 673 323 652 c 1,20,21
550 665 m 1,30,31
 613 648 613 648 613 619 c 2,32,-1
 613 581 l 1,33,-1
 382 556 l 2,34,35
 361 564 361 564 340 564 c 1,36,-1
 340 631 l 1,37,38
 449 636 449 636 550 665 c 1,30,31
575 421 m 1,39,-1
 579 421 l 2,40,41
 604 421 604 421 630 379 c 1,42,43
 630 337 630 337 504 325 c 1,44,-1
 504 320 l 2,45,46
 512 295 512 295 516 295 c 2,47,-1
 630 295 l 2,48,49
 697 295 697 295 718 241 c 1,50,-1
 718 211 l 1,51,52
 693 211 693 211 676 203 c 0,53,54
 596 211 596 211 562 211 c 0,55,56
 507 212 507 212 508 132 c 1,57,-1
 709 132 l 1,58,59
 919 111 919 111 919 18 c 1,60,61
 890 -3 890 -3 869 -3 c 0,62,63
 785 26 785 26 760 26 c 2,64,-1
 579 26 l 2,65,66
 407 26 407 26 180 -11 c 0,67,68
 117 -11 117 -11 105 31 c 2,69,-1
 105 60 l 1,70,-1
 130 60 l 1,71,72
 416 98 416 98 415 119 c 2,73,-1
 428 178 l 1,74,-1
 428 186 l 1,75,76
 378 186 378 186 264 169 c 1,77,-1
 264 211 l 1,78,79
 289 236 289 236 428 278 c 1,80,-1
 428 283 l 2,81,82
 428 300 428 300 310 308 c 1,83,-1
 310 342 l 2,84,85
 310 380 310 380 575 421 c 1,39,-1
EndSplineSet
Validated: 37
EndChar

StartChar: uni79CB
Encoding: 31179 31179 73
Width: 1044
VWidth: 1126
Flags: W
LayerCount: 2
Fore
SplineSet
580 810 m 1,0,-1
 605 810 l 2,1,2
 651 810 651 810 659 671 c 0,3,4
 658 650 658 650 642 486 c 1,5,-1
 756 617 l 1,6,-1
 810 617 l 1,7,-1
 810 592 l 2,8,9
 810 491 810 491 634 394 c 1,10,-1
 630 365 l 1,11,12
 730 180 730 180 978 62 c 1,13,-1
 991 33 l 1,14,-1
 991 -5 l 1,15,-1
 966 -5 l 1,16,17
 836 -30 836 -30 596 234 c 1,18,-1
 605 234 l 1,19,20
 454 24 454 24 399 24 c 2,21,-1
 365 24 l 1,22,-1
 365 58 l 1,23,24
 533 234 533 234 533 352 c 2,25,-1
 533 356 l 1,26,27
 508 356 508 356 466 499 c 1,28,-1
 466 537 l 1,29,-1
 516 537 l 1,30,-1
 563 486 l 1,31,-1
 558 486 l 1,32,33
 580 646 580 646 580 810 c 1,0,-1
298 793 m 1,34,35
 344 776 344 776 370 776 c 1,36,-1
 370 709 l 1,37,-1
 306 701 l 1,38,39
 323 659 323 659 323 600 c 1,40,-1
 340 600 l 1,41,-1
 399 608 l 1,42,43
 458 587 458 587 458 562 c 2,44,-1
 458 545 l 2,45,46
 458 511 458 511 416 512 c 2,47,-1
 332 512 l 1,48,-1
 332 444 l 1,49,-1
 428 360 l 1,50,-1
 428 318 l 1,51,-1
 399 318 l 2,52,53
 391 318 391 318 332 331 c 1,54,-1
 323 243 l 1,55,-1
 323 24 l 1,56,-1
 298 -26 l 1,57,58
 248 -22 248 -22 231 29 c 1,59,-1
 239 340 l 1,60,-1
 239 335 l 1,61,62
 159 226 159 226 84 226 c 1,63,-1
 84 264 l 1,64,65
 231 440 231 440 231 486 c 1,66,67
 190 486 190 486 34 466 c 1,68,-1
 21 499 l 1,69,-1
 21 545 l 1,70,71
 244 545 244 545 244 642 c 2,72,-1
 244 667 l 1,73,-1
 206 667 l 1,74,-1
 172 642 l 1,75,-1
 147 705 l 1,76,77
 298 780 298 780 298 793 c 1,34,35
EndSplineSet
Validated: 37
EndChar

StartChar: uni79F0
Encoding: 31216 31216 74
Width: 1044
VWidth: 1130
Flags: W
LayerCount: 2
Fore
SplineSet
546 804 m 1,0,-1
 592 778 l 1,1,2
 613 728 613 728 600 669 c 0,3,4
 587 644 587 644 575 644 c 1,5,6
 642 644 642 644 823 686 c 1,7,8
 844 669 844 669 861 669 c 1,9,10
 861 577 861 577 731 493 c 1,11,-1
 697 493 l 1,12,-1
 714 560 l 1,13,-1
 718 585 l 1,14,-1
 726 585 l 2,15,16
 554 581 554 581 466 417 c 1,17,-1
 432 493 l 1,18,19
 520 690 520 690 521 804 c 1,20,-1
 546 804 l 1,0,-1
306 736 m 0,21,22
 335 736 335 736 365 669 c 1,23,-1
 332 644 l 1,24,-1
 294 644 l 1,25,-1
 294 657 l 2,26,27
 286 577 286 577 311 568 c 0,28,29
 353 572 353 572 353 598 c 1,30,31
 445 564 445 564 445 535 c 2,32,-1
 445 497 l 1,33,-1
 369 497 l 2,34,35
 306 497 306 497 298 463 c 2,36,-1
 298 379 l 1,37,-1
 386 308 l 1,38,-1
 386 253 l 1,39,40
 352 253 352 253 285 274 c 1,41,-1
 298 274 l 1,42,-1
 298 157 l 1,43,-1
 281 -91 l 1,44,-1
 252 -91 l 1,45,46
 193 -49 193 -49 193 -24 c 0,47,48
 214 110 214 110 214 249 c 2,49,-1
 214 312 l 1,50,-1
 218 300 l 1,51,-1
 75 136 l 1,52,-1
 67 228 l 1,53,54
 193 417 193 417 193 451 c 1,55,-1
 172 451 l 1,56,-1
 101 434 l 1,57,58
 46 451 46 451 46 480 c 2,59,-1
 46 501 l 1,60,61
 214 530 214 530 214 543 c 2,62,-1
 222 619 l 2,63,64
 222 623 222 623 151 623 c 1,65,-1
 151 665 l 1,66,67
 268 736 268 736 306 736 c 0,21,22
617 518 m 1,68,69
 688 518 688 518 693 115 c 1,70,-1
 697 43 l 2,71,72
 697 -58 697 -58 659 -99 c 1,73,-1
 647 -99 l 1,74,75
 584 -120 584 -120 500 10 c 1,76,-1
 500 43 l 1,77,-1
 525 43 l 1,78,-1
 596 31 l 1,79,-1
 605 220 l 2,80,81
 605 254 605 254 584 505 c 1,82,-1
 617 518 l 1,68,69
508 325 m 1,83,-1
 558 253 l 1,84,85
 529 203 529 203 407 48 c 1,86,-1
 378 102 l 1,87,-1
 378 115 l 1,88,89
 466 304 466 304 508 325 c 1,83,-1
794 308 m 1,90,-1
 827 308 l 2,91,92
 882 300 882 300 970 207 c 1,93,-1
 970 190 l 2,94,95
 974 135 974 135 924 90 c 1,96,97
 798 233 798 233 794 274 c 2,98,-1
 794 308 l 1,90,-1
EndSplineSet
Validated: 37
EndChar

StartChar: uni7AE0
Encoding: 31456 31456 75
Width: 1044
VWidth: 1126
Flags: W
LayerCount: 2
Fore
SplineSet
469 931 m 0,0,1
 528 931 528 931 540 851 c 1,2,-1
 553 851 l 2,3,4
 570 851 570 851 662 872 c 0,5,6
 679 859 679 859 713 859 c 1,7,-1
 713 788 l 1,8,-1
 624 784 l 1,9,-1
 608 712 l 1,10,-1
 650 712 l 1,11,12
 902 733 902 733 902 670 c 2,13,-1
 902 662 l 2,14,15
 902 624 902 624 851 624 c 0,16,17
 733 637 733 637 679 624 c 0,18,19
 507 610 507 610 196 548 c 0,20,21
 141 548 141 548 141 624 c 1,22,23
 326 624 326 624 377 666 c 1,24,25
 377 746 377 746 301 792 c 1,26,27
 301 830 301 830 473 851 c 1,28,-1
 473 847 l 1,29,-1
 414 914 l 1,30,31
 461 931 461 931 469 931 c 0,0,1
448 767 m 1,32,-1
 448 746 l 2,33,34
 448 691 448 691 465 683 c 0,35,36
 528 725 528 725 528 767 c 1,37,-1
 448 767 l 1,32,-1
687 612 m 0,38,39
 716 599 716 599 746 599 c 1,40,-1
 746 557 l 1,41,42
 712 343 712 343 561 343 c 1,43,-1
 561 309 l 1,44,-1
 788 338 l 1,45,-1
 826 338 l 2,46,47
 910 338 910 338 931 288 c 1,48,-1
 931 271 l 1,49,-1
 918 238 l 1,50,51
 884 238 884 238 792 250 c 1,52,53
 607 237 607 237 566 238 c 1,54,-1
 561 196 l 1,55,-1
 561 74 l 2,56,57
 561 -6 561 -6 528 -107 c 1,58,-1
 477 -107 l 1,59,-1
 477 -27 l 2,60,61
 464 70 464 70 465 124 c 2,62,-1
 465 166 l 2,63,64
 465 212 465 212 456 212 c 0,65,66
 183 166 183 166 162 166 c 2,67,-1
 133 204 l 1,68,69
 213 246 213 246 465 301 c 1,70,-1
 477 313 l 1,71,-1
 477 322 l 1,72,-1
 461 322 l 2,73,74
 427 322 427 322 364 305 c 1,75,76
 318 334 318 334 309 515 c 0,77,78
 309 586 309 586 528 599 c 0,79,80
 527 608 527 608 687 612 c 0,38,39
402 506 m 2,81,-1
 402 498 l 1,82,-1
 398 498 l 2,83,84
 495 498 495 498 608 532 c 1,85,-1
 633 523 l 1,86,-1
 650 523 l 1,87,88
 650 523 l 1,89,-1
 650 536 l 1,90,-1
 641 536 l 1,91,92
 402 514 402 514 402 506 c 2,81,-1
402 389 m 1,93,-1
 402 397 l 2,94,95
 402 393 402 393 414 393 c 0,96,97
 624 427 624 427 624 448 c 1,98,-1
 620 448 l 2,99,100
 524 448 524 448 402 389 c 1,93,-1
EndSplineSet
Validated: 37
EndChar

StartChar: uni7ED3
Encoding: 32467 32467 76
Width: 1044
VWidth: 1126
Flags: W
LayerCount: 2
Fore
SplineSet
596 875 m 1,0,-1
 621 875 l 2,1,2
 676 875 676 875 688 736 c 0,3,4
 680 686 680 686 680 652 c 1,5,-1
 688 648 l 1,6,-1
 789 648 l 1,7,-1
 856 631 l 1,8,-1
 856 615 l 2,9,10
 856 573 856 573 676 543 c 1,11,-1
 667 493 l 1,12,-1
 667 463 l 1,13,-1
 764 451 l 1,14,-1
 772 413 l 1,15,-1
 772 384 l 1,16,-1
 508 342 l 2,17,18
 466 342 466 342 466 375.5 c 128,-1,19
 466 409 466 409 587 434 c 1,20,-1
 587 451 l 2,21,22
 587 447 587 447 562 447 c 1,23,-1
 587 489 l 1,24,-1
 587 535 l 1,25,-1
 566 543 l 1,26,-1
 533 543 l 2,27,28
 541 543 541 543 541 526 c 1,29,30
 503 543 503 543 482 543 c 1,31,-1
 482 602 l 1,32,-1
 596 631 l 1,33,-1
 596 875 l 1,0,-1
293 715 m 2,34,35
 322 715 322 715 348 678 c 1,36,37
 348 640 348 640 251 501 c 1,38,-1
 251 493 l 2,39,40
 251 485 251 485 306 480 c 1,41,42
 330 543 330 543 360 543 c 2,43,-1
 369 543 l 2,44,45
 402 535 402 535 402 505 c 2,46,-1
 402 484 l 1,47,48
 268 350 268 350 268 329 c 1,49,50
 348 312 348 312 348 274.5 c 128,-1,51
 348 237 348 237 163 203 c 1,52,53
 104 220 104 220 104 258 c 1,54,55
 205 363 205 363 205 379 c 2,56,-1
 188 388 l 1,57,-1
 146 379 l 2,58,59
 133 387 133 387 96 388 c 1,60,-1
 96 455 l 1,61,62
 264 568 264 568 264 699 c 1,63,-1
 293 715 l 2,34,35
848 325 m 0,64,65
 894 325 894 325 940 266 c 1,66,-1
 844 136 l 2,67,68
 836 136 836 136 886 69 c 1,69,-1
 886 27 l 1,70,71
 861 27 861 27 844 22.5 c 128,-1,72
 827 18 827 18 806 27 c 0,73,74
 709 19 709 19 650 18 c 2,75,-1
 592 18 l 1,76,-1
 508 -7 l 1,77,78
 474 43 474 43 444 220 c 0,79,80
 427 220 427 220 428 279 c 1,81,82
 756 325 756 325 848 325 c 0,64,65
533 211 m 1,83,-1
 533 211 l 1,84,-1
 533 220 l 1,85,86
 550 111 550 111 554 111 c 0,87,88
 772 111 772 111 772 190 c 1,89,90
 789 190 789 190 797 228 c 1,91,92
 780 241 780 241 755 241 c 2,93,-1
 751 241 l 1,94,95
 571 211 571 211 533 211 c 1,83,-1
436 220 m 1,96,-1
 436 182 l 1,97,98
 281 35 281 35 163 18 c 0,99,100
 130 18 130 18 130 52 c 2,101,-1
 130 81 l 1,102,103
 386 220 386 220 436 220 c 1,96,-1
EndSplineSet
Validated: 37
EndChar

StartChar: uni7F6A
Encoding: 32618 32618 77
Width: 1044
VWidth: 1126
Flags: W
LayerCount: 2
Fore
SplineSet
533 852 m 2,0,-1
 600 835 l 1,1,-1
 709 835 l 2,2,3
 793 835 793 835 793 772 c 0,4,5
 793 692 793 692 646 579 c 1,6,-1
 646 516 l 1,7,-1
 680 516 l 2,8,9
 672 516 672 516 672 528 c 1,10,11
 781 499 781 499 781 465 c 2,12,-1
 781 432 l 1,13,14
 647 424 647 424 646 411 c 2,15,-1
 646 373 l 1,16,17
 663 348 663 348 676 348 c 0,18,19
 718 366 718 366 718 386 c 1,20,21
 764 369 764 369 781 369 c 1,22,-1
 781 306 l 1,23,-1
 646 243 l 1,24,-1
 646 213 l 2,25,26
 646 209 646 209 655 209 c 2,27,-1
 873 247 l 2,28,29
 919 240 919 240 919 176 c 2,30,-1
 919 150 l 1,31,32
 898 150 898 150 848 159 c 0,33,34
 802 159 802 159 646 104 c 1,35,-1
 646 8 l 1,36,-1
 634 -60 l 1,37,-1
 609 -60 l 1,38,-1
 558 -22 l 1,39,-1
 562 66 l 1,40,-1
 558 134 l 2,41,42
 558 152 558 152 562 176 c 0,43,44
 558 260 558 260 558 314 c 2,45,-1
 558 411 l 1,46,-1
 546 470 l 2,47,48
 559 491 559 491 558 516 c 2,49,-1
 558 579 l 1,50,-1
 411 579 l 1,51,52
 424 466 424 466 424 398 c 2,53,-1
 424 272 l 2,54,55
 424 238 424 238 428 184 c 0,56,57
 394 -34 394 -34 357 -34 c 0,58,59
 332 -34 332 -34 302 16 c 1,60,61
 340 166 340 166 340 196 c 1,62,-1
 323 196 l 1,63,64
 163 134 163 134 105 134 c 1,65,-1
 105 188 l 2,66,67
 113 209 113 209 327 276 c 1,68,-1
 331 285 l 1,69,-1
 331 302 l 1,70,-1
 189 268 l 1,71,-1
 176 310 l 1,72,-1
 176 318 l 2,73,74
 176 364 176 364 331 390 c 1,75,-1
 331 398 l 2,76,77
 331 402 331 402 327 402 c 2,78,-1
 247 402 l 2,79,80
 260 402 260 402 260 386 c 1,81,82
 214 403 214 403 193 402 c 1,83,-1
 193 453 l 1,84,-1
 331 520 l 1,85,-1
 331 545 l 2,86,87
 331 549 331 549 298 562 c 1,88,-1
 252 545 l 1,89,90
 185 545 185 545 138 751 c 0,91,92
 138 780 138 780 193 839 c 1,93,-1
 218 814 l 1,94,95
 533 835 533 835 533 852 c 2,0,-1
541 684 m 1,96,-1
 533 684 l 2,97,98
 684 684 684 684 684 742 c 1,99,100
 663 760 663 760 583 764 c 0,101,102
 541 752 541 752 541 684 c 1,96,-1
428 755 m 1,103,-1
 428 663 l 1,104,-1
 432 663 l 2,105,106
 453 663 453 663 470 730 c 1,107,-1
 470 755 l 1,108,-1
 428 755 l 1,103,-1
226 726 m 0,109,110
 239 642 239 642 247 642 c 2,111,-1
 319 642 l 1,112,-1
 348 646 l 1,113,-1
 348 671 l 2,114,115
 348 747 348 747 319 747 c 1,116,117
 323 747 323 747 323 730 c 2,118,-1
 256 747 l 1,119,-1
 243 747 l 2,120,121
 234 747 234 747 226 726 c 0,109,110
EndSplineSet
Validated: 37
EndChar

StartChar: uni7FBD
Encoding: 32701 32701 78
Width: 1044
VWidth: 1126
Flags: W
LayerCount: 2
Fore
SplineSet
819 829 m 0,0,1
 882 829 882 829 919 757 c 1,2,3
 911 669 911 669 903 669 c 2,4,-1
 911 568 l 1,5,-1
 911 392 l 2,6,7
 911 43 911 43 852 43 c 1,8,9
 755 81 755 81 672 165 c 1,10,-1
 672 211 l 1,11,12
 802 161 802 161 798 161 c 2,13,-1
 823 190 l 1,14,-1
 823 354 l 2,15,16
 823 342 823 342 772 342 c 1,17,18
 822 380 822 380 831 468 c 1,19,-1
 814 472 l 1,20,-1
 558 228 l 1,21,-1
 525 278 l 1,22,-1
 525 304 l 1,23,24
 676 459 676 459 823 577 c 1,25,-1
 823 585 l 2,26,27
 823 610 823 610 802 631 c 1,28,-1
 823 694 l 1,29,-1
 823 736 l 1,30,-1
 806 736 l 2,31,32
 756 736 756 736 663 707 c 1,33,-1
 621 707 l 1,34,-1
 621 749 l 1,35,36
 664 787 664 787 819 829 c 0,0,1
512 824 m 1,37,38
 550 769 550 769 550 749 c 0,39,40
 508 648 508 648 491 190 c 0,41,42
 483 190 483 190 483 174 c 2,43,-1
 491 119 l 2,44,45
 483 94 483 94 483 68 c 1,46,-1
 453 68 l 2,47,48
 352 68 352 68 231 270 c 1,49,-1
 289 270 l 1,50,51
 381 182 381 182 394 182 c 0,52,53
 411 220 411 220 411 392 c 2,54,-1
 411 463 l 1,55,-1
 420 463 l 1,56,57
 181 236 181 236 121 236 c 1,58,-1
 105 266 l 1,59,-1
 105 291 l 1,60,61
 214 388 214 388 411 535 c 1,62,63
 436 665 436 665 436 707 c 2,64,-1
 436 715 l 1,65,-1
 445 715 l 2,66,67
 382 715 382 715 260 690 c 0,68,69
 243 694 243 694 210 694 c 1,70,-1
 210 745 l 1,71,-1
 512 824 l 1,37,38
596 619 m 2,72,-1
 617 619 l 1,73,74
 714 581 714 581 726 543 c 2,75,-1
 726 505 l 1,76,77
 621 505 621 505 562 568 c 1,78,-1
 562 585 l 2,79,80
 571 619 571 619 596 619 c 2,72,-1
226 594 m 2,81,82
 297 594 297 594 344 530 c 1,83,-1
 344 518 l 1,84,-1
 331 476 l 1,85,86
 163 526 163 526 163 556 c 2,87,-1
 163 581 l 1,88,-1
 226 594 l 2,81,82
EndSplineSet
Validated: 37
EndChar

StartChar: uni7FD4
Encoding: 32724 32724 79
Width: 1044
VWidth: 1126
Flags: W
LayerCount: 2
Fore
SplineSet
394 835 m 1,0,-1
 424 835 l 2,1,2
 462 827 462 827 462 801 c 2,3,-1
 462 776 l 1,4,5
 420 709 420 709 394 688 c 2,6,-1
 436 696 l 1,7,-1
 416 612 l 1,8,9
 374 591 374 591 352 583 c 1,10,-1
 357 545 l 2,11,12
 357 553 357 553 445 566 c 1,13,-1
 449 474 l 1,14,-1
 361 465 l 1,15,-1
 361 419 l 2,16,17
 362 415 362 415 374 415 c 0,18,19
 466 423 466 423 491 423 c 1,20,21
 516 381 516 381 516 343 c 1,22,23
 364 344 364 344 352 306 c 0,24,25
 306 100 306 100 176 3 c 1,26,-1
 147 3 l 1,27,-1
 147 41 l 1,28,29
 248 214 248 214 248 264 c 2,30,-1
 248 280 l 2,31,32
 252 280 252 280 239 289 c 0,33,34
 134 264 134 264 113 264 c 0,35,36
 88 272 88 272 67 272 c 1,37,-1
 67 318 l 1,38,39
 268 382 268 382 268 390 c 2,40,-1
 268 440 l 1,41,-1
 264 440 l 2,42,43
 256 440 256 440 243 432 c 0,44,45
 176 453 176 453 176 482 c 2,46,-1
 176 507 l 1,47,-1
 264 528 l 1,48,-1
 264 566 l 1,49,-1
 210 566 l 2,50,51
 176 566 176 566 176 608 c 2,52,-1
 176 625 l 1,53,54
 268 650 268 650 268 671 c 0,55,56
 209 751 209 751 210 801 c 2,57,-1
 210 826 l 1,58,-1
 243 826 l 1,59,60
 293 798 293 798 319 726 c 1,61,-1
 394 835 l 1,0,-1
898 763 m 0,62,63
 940 763 940 763 936 616 c 2,64,-1
 953 112 l 1,65,-1
 928 -26 l 1,66,-1
 886 -26 l 1,67,68
 777 92 777 92 777 112 c 2,69,-1
 785 150 l 1,70,-1
 814 150 l 1,71,-1
 848 116 l 1,72,-1
 856 125 l 1,73,-1
 861 297 l 2,74,75
 864 339 864 339 856 339 c 0,76,77
 835 339 835 339 768 188 c 1,78,-1
 697 188 l 1,79,-1
 697 217 l 2,80,81
 701 301 701 301 852 482 c 1,82,-1
 852 671 l 2,83,84
 852 679 852 679 747 667 c 1,85,-1
 747 730 l 1,86,87
 797 763 797 763 898 763 c 0,62,63
646 738 m 0,88,89
 701 734 701 734 701 650 c 2,90,-1
 693 402 l 2,91,92
 689 318 689 318 693 158 c 0,93,94
 685 45 685 45 659 -35 c 1,95,-1
 634 -35 l 1,96,97
 495 53 495 53 495 125 c 1,98,-1
 525 125 l 2,99,100
 575 116 575 116 592 116 c 0,101,102
 613 339 613 339 621 339 c 1,103,104
 487 175 487 175 470 175 c 0,105,106
 428 175 428 175 428 217 c 2,107,-1
 428 230 l 1,108,109
 525 377 525 377 617 486 c 1,110,111
 617 541 617 541 630 646 c 1,112,-1
 626 658 l 1,113,-1
 558 650 l 1,114,-1
 525 650 l 1,115,-1
 525 713 l 1,116,117
 625 738 625 738 646 738 c 0,88,89
520 558 m 1,118,119
 591 512 591 512 592 490 c 2,120,-1
 592 448 l 1,121,-1
 562 448 l 2,122,123
 494 448 494 448 478 516 c 1,124,-1
 478 520 l 2,125,126
 470 566 470 566 520 558 c 1,118,119
735 536 m 1,127,-1
 781 536 l 1,128,129
 840 502 840 502 840 478 c 0,130,131
 840 432 840 432 806 432 c 2,132,-1
 798 432 l 2,133,134
 769 432 769 432 718 494 c 1,135,-1
 735 536 l 1,127,-1
EndSplineSet
Validated: 37
EndChar

StartChar: uni80B2
Encoding: 32946 32946 80
Width: 1044
VWidth: 1126
Flags: W
LayerCount: 2
Fore
SplineSet
433 901 m 1,0,1
 538 872 538 872 546 842 c 2,2,-1
 546 809 l 1,3,4
 630 817 630 817 634 826 c 0,5,6
 848 834 848 834 848 788 c 2,7,-1
 848 775 l 2,8,9
 848 738 848 738 798 738 c 2,10,-1
 697 746 l 2,11,12
 508 746 508 746 479 687 c 2,13,-1
 412 607 l 1,14,-1
 412 616 l 1,15,-1
 416 616 l 2,16,17
 630 630 630 630 622 654 c 2,18,-1
 622 687 l 1,19,20
 790 628 790 628 811 578 c 1,21,-1
 811 561 l 1,22,-1
 790 523 l 1,23,24
 698 548 698 548 588.5 548 c 128,-1,25
 479 548 479 548 294 502 c 0,26,27
 281 510 281 510 239 511 c 1,28,-1
 239 553 l 1,29,30
 407 692 407 692 407 712 c 1,31,-1
 395 712 l 2,32,33
 273 699 273 699 231 700 c 0,34,35
 160 704 160 704 160 746 c 2,36,-1
 160 771 l 1,37,38
 412 778 412 778 462 800 c 1,39,40
 433 842 433 842 433 901 c 1,0,1
676 528 m 0,41,42
 768 528 768 528 731 -65 c 1,43,44
 702 -78 702 -78 672 -77 c 0,45,46
 559 -27 559 -27 508 19 c 1,47,-1
 508 57 l 1,48,-1
 605 32 l 1,49,-1
 643 44 l 1,50,-1
 647 183 l 1,51,52
 609 187 609 187 454 145 c 1,53,-1
 433 158 l 1,54,-1
 412 158 l 1,55,-1
 412 145 l 2,56,57
 412 -48 412 -48 357 -48 c 1,58,-1
 319 -18 l 1,59,-1
 323 82 l 2,60,61
 323 149 323 149 319 250 c 0,62,63
 323 342 323 342 323 473 c 1,64,65
 474 507 474 507 676 528 c 0,41,42
412 376 m 0,66,67
 416 360 l 1,68,69
 534 378 534 378 630 402 c 1,70,-1
 630 444 l 1,71,72
 412 456 412 456 412 376 c 0,66,67
416 284 m 1,73,-1
 416 284 l 1,74,-1
 412 250 l 1,75,-1
 412 234 l 2,76,77
 412 230 412 230 416 229 c 2,78,-1
 647 276 l 1,79,-1
 647 301 l 2,80,81
 647 305 647 305 634 313 c 2,82,-1
 416 284 l 1,73,-1
EndSplineSet
Validated: 37
EndChar

StartChar: uni817E
Encoding: 33150 33150 81
Width: 1044
VWidth: 1126
Flags: W
LayerCount: 2
Fore
SplineSet
576 926 m 1,0,-1
 627 926 l 1,1,2
 661 888 661 888 656 854 c 2,3,-1
 639 779 l 2,4,5
 639 775 639 775 635 774 c 2,6,-1
 727 879 l 1,7,8
 756 879 756 879 790 829 c 1,9,-1
 790 791 l 1,10,11
 744 791 744 791 719 753 c 1,12,-1
 736 699 l 1,13,14
 631 665 631 665 631 661 c 2,15,-1
 631 657 l 1,16,-1
 622 657 l 1,17,18
 765 678 765 678 782 678 c 2,19,-1
 803 678 l 2,20,21
 841 665 841 665 841 640 c 2,22,-1
 841 602 l 1,23,-1
 753 581 l 1,24,-1
 711 581 l 1,25,26
 711 547 711 547 988 464 c 1,27,-1
 988 426 l 1,28,29
 963 418 963 418 963 401 c 2,30,-1
 799 430 l 1,31,32
 749 384 749 384 736 346 c 1,33,34
 908 359 908 359 887 224 c 1,35,36
 782 -24 782 -24 706 -66 c 1,37,-1
 673 -66 l 1,38,39
 614 -41 614 -41 580 31 c 1,40,41
 597 31 597 31 597 48 c 2,42,-1
 677 31 l 1,43,-1
 685 31 l 1,44,45
 719 56 719 56 744 123 c 1,46,-1
 744 132 l 2,47,48
 744 136 744 136 732 144 c 0,49,50
 682 144 682 144 450 102 c 1,51,52
 370 119 370 119 370 153 c 2,53,-1
 370 191 l 1,54,-1
 429 191 l 1,55,-1
 748 228 l 2,56,57
 765 220 765 220 774 220 c 2,58,-1
 782 233 l 1,59,-1
 782 241 l 1,60,-1
 769 254 l 2,61,62
 735 267 735 267 677 258 c 0,63,64
 585 250 585 250 530 212 c 1,65,-1
 517 212 l 2,66,67
 479 212 479 212 480 254 c 2,68,-1
 522 405 l 1,69,-1
 555 405 l 2,70,71
 610 397 610 397 597 329 c 1,72,-1
 635 333 l 2,73,74
 648 333 648 333 669 409 c 1,75,-1
 669 413 l 2,76,77
 669 417 669 417 660 417 c 2,78,-1
 635 417 l 1,79,80
 429 396 429 396 412 371 c 1,81,-1
 370 371 l 1,82,-1
 370 405 l 1,83,84
 433 476 433 476 442 497 c 2,85,-1
 442 518 l 1,86,-1
 370 518 l 1,87,-1
 370 590 l 1,88,89
 471 590 471 590 509 636 c 1,90,-1
 509 632 l 1,91,92
 475 632 475 632 454 690 c 1,93,94
 471 724 471 724 471 745 c 2,95,-1
 471 758 l 1,96,-1
 454 816 l 1,97,-1
 492 833 l 1,98,-1
 509 833 l 2,99,100
 538 833 538 833 547 774 c 1,101,-1
 555 774 l 2,102,103
 563 774 563 774 576 858 c 2,104,-1
 576 926 l 1,0,-1
303 774 m 0,105,106
 332 774 332 774 383 711 c 1,107,108
 358 669 358 669 358 632 c 2,109,-1
 358 573 l 2,110,111
 354 384 354 384 366 384 c 2,112,-1
 366 44 l 1,113,-1
 354 -24 l 1,114,-1
 316 -24 l 1,115,116
 203 77 203 77 202 132 c 1,117,118
 206 132 206 132 207 136 c 2,119,-1
 270 132 l 1,120,121
 262 161 262 161 278 161 c 2,122,-1
 274 228 l 1,123,-1
 274 308 l 1,124,125
 131 308 131 308 131 186 c 1,126,127
 81 94 81 94 30 65 c 1,128,-1
 -12 65 l 1,129,130
 110 283 110 283 110 615 c 2,131,-1
 110 707 l 1,132,133
 131 757 131 757 303 774 c 0,105,106
198 636 m 2,134,-1
 194 560 l 1,135,136
 194 560 l 1,137,-1
 265 560 l 1,138,-1
 274 577 l 1,139,140
 274 682 274 682 265 682 c 0,141,142
 194 682 194 682 198 636 c 2,134,-1
543 485 m 2,143,-1
 543 493 l 1,144,-1
 606 493 l 1,145,-1
 685 501 l 1,146,-1
 685 497 l 1,147,148
 618 556 618 556 601 556 c 0,149,150
 543 531 543 531 543 485 c 2,143,-1
194 459 m 1,151,-1
 194 405 l 1,152,-1
 265 405 l 2,153,154
 269 405 269 405 274 417 c 2,155,-1
 274 451 l 2,156,157
 274 464 274 464 253 468 c 2,158,-1
 194 459 l 1,151,-1
EndSplineSet
Validated: 37
EndChar

StartChar: uni81F4
Encoding: 33268 33268 82
Width: 1044
VWidth: 1126
Flags: W
LayerCount: 2
Fore
SplineSet
529 822 m 1,0,-1
 575 822 l 2,1,2
 600 822 600 822 629 729 c 1,3,4
 608 683 608 683 608 654 c 1,5,-1
 613 654 l 2,6,7
 689 654 689 654 797 700 c 1,8,9
 814 683 814 683 835 683 c 1,10,-1
 835 608 l 1,11,12
 717 608 717 608 718 385 c 1,13,14
 663 276 663 276 663 251 c 2,15,-1
 663 230 l 1,16,17
 772 83 772 83 919 87 c 1,18,19
 974 53 974 53 974 32 c 2,20,-1
 974 -1 l 1,21,-1
 860 -10 l 2,22,23
 755 -10 755 -10 617 154 c 1,24,-1
 613 154 l 2,25,26
 596 154 596 154 344 -6 c 1,27,-1
 314 -6 l 1,28,-1
 314 32 l 1,29,30
 537 204 537 204 537 255 c 0,31,32
 524 301 524 301 411 381 c 1,33,-1
 411 414 l 1,34,35
 520 599 520 599 537 700 c 1,36,-1
 529 822 l 1,0,-1
361 788 m 1,37,-1
 398 788 l 1,38,-1
 398 742 l 1,39,40
 301 679 301 679 239 536 c 1,41,-1
 239 528 l 1,42,-1
 251 528 l 2,43,44
 331 536 331 536 331 645 c 1,45,46
 444 582 444 582 445 473 c 2,47,-1
 445 452 l 1,48,-1
 331 456 l 2,49,50
 323 456 323 456 319 444 c 2,51,-1
 319 423 l 1,52,-1
 398 360 l 1,53,54
 398 335 398 335 327 288 c 1,55,-1
 327 259 l 2,56,57
 327 242 327 242 403 238 c 1,58,-1
 403 192 l 1,59,60
 214 49 214 49 83 49 c 2,61,-1
 58 49 l 1,62,-1
 58 112 l 1,63,-1
 218 188 l 2,64,65
 226 188 226 188 235 267 c 1,66,-1
 230 276 l 1,67,-1
 138 255 l 1,68,-1
 121 293 l 1,69,-1
 121 322 l 1,70,71
 226 343 226 343 226 360 c 2,72,-1
 226 410 l 1,73,-1
 201 423 l 1,74,-1
 138 398 l 1,75,76
 109 411 109 411 92 410 c 1,77,-1
 92 444 l 1,78,79
 205 578 205 578 205 650 c 2,80,-1
 205 666 l 2,81,82
 205 658 205 658 155 708 c 1,83,84
 155 767 155 767 361 788 c 1,37,-1
495 423 m 0,85,86
 495 419 495 419 600 314 c 0,87,88
 621 314 621 314 655 540 c 1,89,-1
 642 553 l 1,90,91
 562 553 562 553 495 423 c 0,85,86
EndSplineSet
Validated: 37
EndChar

StartChar: uni8352
Encoding: 33618 33618 83
Width: 1044
VWidth: 1126
Flags: W
LayerCount: 2
Fore
SplineSet
461 531 m 1,0,-1
 423 556 l 2,1,2
 406 556 406 556 360 619 c 1,3,-1
 414 657 l 1,4,-1
 587 514 l 1,5,6
 465 577 465 577 461 531 c 1,0,-1
448 669 m 2,7,8
 456 682 l 1,9,-1
 465 682 l 2,10,11
 356 669 356 669 356 653 c 2,12,-1
 364 598 l 1,13,-1
 322 569 l 1,14,15
 288 569 288 569 272 657 c 1,16,17
 184 661 184 661 184 699 c 2,18,-1
 184 728 l 1,19,20
 264 732 264 732 263 737 c 0,21,22
 254 762 254 762 246 808 c 0,23,24
 250 825 250 825 251 858 c 1,25,-1
 288 858 l 1,26,27
 343 803 343 803 347 745 c 1,28,-1
 360 745 l 1,29,30
 520 770 520 770 520 800 c 2,31,-1
 520 909 l 1,32,-1
 553 921 l 1,33,34
 612 921 612 921 612 816 c 2,35,-1
 612 808 l 1,36,-1
 641 808 l 2,37,38
 717 808 717 808 717 711 c 1,39,-1
 633 711 l 2,40,41
 562 711 562 711 473 602 c 1,42,-1
 431 623 l 1,43,-1
 448 669 l 2,7,8
629 581 m 0,44,45
 654 585 654 585 654 606 c 1,46,47
 751 568 751 568 755 531 c 2,48,-1
 755 493 l 1,49,50
 738 493 738 493 738 485 c 1,51,52
 696 493 696 493 688 493 c 0,53,54
 356 476 356 476 356 447 c 2,55,-1
 335 359 l 1,56,-1
 343 363 l 1,57,58
 490 397 490 397 658 405 c 1,59,-1
 692 363 l 1,60,-1
 692 325 l 1,61,-1
 633 325 l 1,62,-1
 633 291 l 2,63,64
 633 224 633 224 629 123 c 0,65,66
 633 52 633 52 725 39 c 0,67,68
 813 35 813 35 826 90 c 2,69,-1
 830 207 l 1,70,-1
 881 207 l 1,71,72
 910 22 910 22 935 23 c 1,73,74
 935 -48 935 -48 797 -57 c 0,75,76
 536 -74 536 -74 540 128 c 2,77,-1
 540 254 l 1,78,-1
 545 308 l 1,79,80
 503 300 503 300 494 300 c 2,81,-1
 490 207 l 1,82,83
 498 -28 498 -28 448 -28 c 0,84,85
 427 -28 427 -28 402 18 c 1,86,-1
 402 31 l 2,87,88
 406 128 406 128 406 178 c 2,89,-1
 406 283 l 2,90,91
 406 279 406 279 372 275 c 2,92,-1
 377 275 l 1,93,94
 364 199 364 199 322 123 c 0,95,96
 234 18 234 18 192 -9 c 128,-1,97
 150 -36 150 -36 125 -36 c 1,98,-1
 125 31 l 1,99,100
 234 132 234 132 263 207 c 2,101,-1
 276 245 l 1,102,103
 238 232 238 232 209 296 c 1,104,105
 230 321 230 321 272 430 c 1,106,-1
 272 438 l 1,107,-1
 137 430 l 1,108,-1
 125 464 l 1,109,-1
 125 489 l 1,110,111
 234 522 234 522 629 581 c 0,44,45
EndSplineSet
Validated: 37
EndChar

StartChar: uni8863
Encoding: 34915 34915 84
Width: 1044
VWidth: 1126
Flags: W
LayerCount: 2
Fore
SplineSet
390 830 m 1,0,1
 495 822 495 822 512 780 c 1,2,-1
 507 717 l 1,3,-1
 478 717 l 1,4,5
 390 763 390 763 390 792 c 2,6,-1
 390 830 l 1,0,1
743 738 m 1,7,8
 798 721 798 721 797 692 c 2,9,-1
 797 633 l 1,10,-1
 713 650 l 1,11,-1
 646 650 l 2,12,13
 457 642 457 642 457 608 c 0,14,15
 436 537 436 537 360 431 c 1,16,-1
 360 188 l 1,17,-1
 411 204 l 1,18,-1
 444 204 l 1,19,-1
 335 -18 l 1,20,21
 293 -10 293 -10 272 41 c 1,22,-1
 272 120 l 2,23,24
 276 296 276 296 281 347 c 1,25,26
 277 334 277 334 293 339 c 2,27,-1
 251 318 l 1,28,-1
 113 221 l 1,29,-1
 79 221 l 1,30,-1
 79 255 l 1,31,32
 365 545 365 545 365 616 c 1,33,-1
 264 603 l 2,34,35
 268 603 268 603 268 587 c 1,36,37
 188 633 188 633 188 654 c 2,38,-1
 188 683 l 1,39,-1
 281 683 l 1,40,41
 634 738 634 738 743 738 c 1,7,8
726 578 m 1,42,43
 772 536 772 536 772 507 c 1,44,45
 663 423 663 423 566 364 c 1,46,47
 759 200 759 200 961 167 c 1,48,-1
 961 108 l 1,49,-1
 848 99 l 1,50,51
 676 107 676 107 381 419 c 1,52,-1
 402 461 l 1,53,54
 457 444 457 444 507 410 c 1,55,-1
 516 410 l 1,56,57
 684 578 684 578 726 578 c 1,42,43
EndSplineSet
Validated: 37
EndChar

StartChar: uni88F3
Encoding: 35059 35059 85
Width: 1044
VWidth: 1126
Flags: W
LayerCount: 2
Fore
SplineSet
391 934 m 1,0,-1
 424 934 l 2,1,2
 474 934 474 934 475 854 c 1,3,-1
 496 854 l 1,4,-1
 567 917 l 1,5,-1
 588 917 l 2,6,7
 622 909 622 909 622 875 c 2,8,-1
 622 871 l 2,9,10
 622 842 622 842 450 766 c 1,11,-1
 391 766 l 1,12,13
 391 787 391 787 374 787 c 2,14,-1
 391 825 l 1,15,-1
 391 934 l 1,0,-1
265 871 m 1,16,-1
 302 871 l 2,17,18
 336 871 336 871 361 774 c 1,19,-1
 324 753 l 2,20,21
 299 753 299 753 265 816 c 1,22,-1
 265 871 l 1,16,-1
651 783 m 1,23,24
 870 749 870 749 870 678 c 1,25,26
 740 619 740 619 676 568 c 1,27,-1
 626 568 l 1,28,-1
 626 606 l 1,29,-1
 714 682 l 1,30,-1
 697 690 l 1,31,-1
 588 690 l 1,32,33
 256 656 256 656 223 619 c 1,34,-1
 223 522 l 2,35,36
 223 480 223 480 189.5 480 c 128,-1,37
 156 480 156 480 139 522 c 1,38,-1
 139 598 l 2,39,40
 140 627 140 627 114 749 c 1,41,-1
 164 749 l 1,42,43
 210 707 210 707 206 707 c 2,44,-1
 252 707 l 1,45,46
 403 749 403 749 651 783 c 1,23,24
584 644 m 1,47,-1
 605 606 l 1,48,-1
 605 564 l 1,49,50
 563 493 563 493 462 426 c 1,51,-1
 462 421 l 1,52,53
 479 392 479 392 487 388 c 2,54,-1
 546 388 l 1,55,-1
 626 409 l 1,56,57
 689 396 689 396 689 358 c 0,58,59
 689 308 689 308 361 287 c 1,60,61
 348 262 348 262 348.5 251.5 c 128,-1,62
 349 241 349 241 361 241 c 2,63,-1
 349 174 l 1,64,-1
 349 81 l 1,65,-1
 353 43 l 1,66,-1
 361 43 l 2,67,68
 390 43 390 43 458 102 c 1,69,-1
 504 102 l 1,70,-1
 504 77 l 1,71,72
 382 -66 382 -66 302 -66 c 1,73,74
 277 -24 277 -24 277 6 c 2,75,-1
 277 119 l 1,76,-1
 269 169 l 1,77,78
 206 93 206 93 147 64 c 1,79,-1
 101 64 l 1,80,81
 219 228 219 228 256 262 c 1,82,-1
 256 258 l 1,83,-1
 198 295 l 1,84,85
 198 337 198 337 391 367 c 1,86,-1
 391 371 l 2,87,88
 390 421 390 421 302 421 c 1,89,-1
 265 497 l 1,90,-1
 277 526 l 1,91,-1
 265 577 l 2,92,93
 265 615 265 615 584 644 c 1,47,-1
349 543 m 1,94,-1
 349 539 l 2,95,96
 349 497 349 497 361 497 c 0,97,98
 483 522 483 522 483 539 c 2,99,-1
 483 547 l 1,100,-1
 454 560 l 2,101,102
 437 560 437 560 349 543 c 1,94,-1
744 316 m 1,103,-1
 756 274 l 1,104,-1
 756 241 l 1,105,106
 626 216 626 216 626 195 c 128,-1,107
 626 174 626 174 819 136 c 0,108,109
 886 136 886 136 903 85 c 1,110,-1
 903 56 l 1,111,112
 836 39 836 39 836 48 c 0,113,114
 584 82 584 82 395 220 c 1,115,-1
 382 249 l 1,116,-1
 382 283 l 1,117,-1
 408 283 l 2,118,119
 442 283 442 283 538 237 c 1,120,121
 584 270 584 270 744 316 c 1,103,-1
EndSplineSet
Validated: 37
EndChar

StartChar: uni8BA9
Encoding: 35753 35753 86
Width: 1044
VWidth: 1126
Flags: W
LayerCount: 2
Fore
SplineSet
508 792 m 1,0,-1
 575 767 l 2,1,2
 630 733 630 733 622 658 c 2,3,-1
 622 511 l 2,4,5
 614 507 614 507 634 507 c 2,6,-1
 756 524 l 1,7,8
 777 507 777 507 806 507 c 1,9,-1
 806 440 l 1,10,11
 621 412 621 412 622 394 c 2,12,-1
 622 200 l 1,13,14
 639 200 639 200 638 196 c 2,15,-1
 693 200 l 1,16,-1
 857 200 l 2,17,18
 949 200 949 200 970 133 c 1,19,-1
 970 95 l 1,20,-1
 634 95 l 1,21,22
 424 78 424 78 315 62 c 0,23,24
 298 70 298 70 277 70 c 1,25,-1
 277 129 l 1,26,27
 516 167 516 167 512 200 c 0,28,29
 512 288 512 288 521 574 c 2,30,-1
 521 679 l 1,31,-1
 508 792 l 1,0,-1
185 746 m 1,32,-1
 244 746 l 1,33,34
 307 712 307 712 307 679 c 128,-1,35
 307 646 307 646 273 646 c 0,36,37
 206 646 206 646 185 700 c 1,38,-1
 185 746 l 1,32,-1
202 570 m 1,39,-1
 227 570 l 1,40,-1
 256 549 l 1,41,-1
 239 234 l 2,42,43
 252 234 252 234 332 347 c 1,44,-1
 378 347 l 1,45,-1
 378 297 l 1,46,47
 252 66 252 66 218 16 c 1,48,49
 142 37 142 37 143 70 c 0,50,51
 160 137 160 137 160 461 c 2,52,-1
 160 473 l 1,53,-1
 76 473 l 2,54,55
 38 473 38 473 38 507 c 128,-1,56
 38 541 38 541 202 570 c 1,39,-1
EndSplineSet
Validated: 37
EndChar

StartChar: uni8C03
Encoding: 35843 35843 87
Width: 1044
VWidth: 1126
Flags: W
LayerCount: 2
Fore
SplineSet
827 868 m 1,0,1
 890 826 890 826 928 759 c 1,2,3
 928 679 928 679 932 524 c 2,4,-1
 932 377 l 2,5,6
 928 356 928 356 932 226 c 0,7,8
 945 -72 945 -72 882 -72 c 1,9,10
 781 -9 781 -9 764 33 c 1,11,-1
 764 62 l 1,12,13
 861 24 861 24 832 24 c 1,14,-1
 844 83 l 1,15,-1
 848 427 l 1,16,-1
 840 432 l 1,17,-1
 697 432 l 1,18,19
 470 403 470 403 470 369 c 0,20,21
 470 205 470 205 319 37 c 1,22,-1
 277 37 l 1,23,-1
 277 79 l 1,24,25
 420 289 420 289 420 587 c 2,26,-1
 420 730 l 2,27,28
 420 768 420 768 454 768 c 0,29,30
 509 768 509 768 508 633 c 0,31,32
 508 595 508 595 496 465 c 1,33,-1
 508 465 l 1,34,35
 617 490 617 490 617 528 c 2,36,-1
 609 583 l 1,37,-1
 563 583 l 2,38,39
 529 583 529 583 529 620.5 c 128,-1,40
 529 658 529 658 617 675 c 1,41,-1
 617 751 l 2,42,43
 617 755 617 755 601 755 c 0,44,45
 517 738 517 738 487 738 c 1,46,-1
 475 780 l 1,47,-1
 475 810 l 1,48,49
 499 809 499 809 827 868 c 1,0,1
680 772 m 1,50,-1
 680 755 l 2,51,52
 680 688 680 688 735 688 c 1,53,54
 731 688 731 688 731 717 c 1,55,56
 769 688 769 688 794 688 c 1,57,-1
 794 663 l 2,58,59
 794 638 794 638 697 595 c 1,60,61
 689 519 689 519 689 528 c 2,62,-1
 823 528 l 2,63,64
 840 528 840 528 848 545 c 2,65,-1
 848 730 l 2,66,67
 835 785 835 785 815 784 c 0,68,69
 768 785 768 785 680 772 c 1,50,-1
164 738 m 1,70,-1
 269 717 l 1,71,-1
 269 671 l 1,72,-1
 244 629 l 1,73,74
 164 654 164 654 164 688 c 2,75,-1
 164 738 l 1,70,-1
193 600 m 1,76,-1
 277 549 l 1,77,-1
 260 507 l 1,78,-1
 256 306 l 2,79,80
 256 302 256 302 260 301 c 2,81,-1
 265 301 l 1,82,-1
 294 322 l 1,83,-1
 323 322 l 1,84,-1
 323 272 l 1,85,86
 281 175 281 175 235 41 c 1,87,-1
 206 41 l 2,88,89
 189 41 189 41 164 87 c 1,90,91
 177 368 177 368 172 478 c 2,92,-1
 172 490 l 1,93,-1
 76 495 l 1,94,-1
 76 549 l 1,95,96
 193 571 193 571 193 600 c 1,76,-1
769 415 m 1,97,98
 824 394 824 394 823 369 c 2,99,-1
 823 360 l 1,100,101
 773 150 773 150 718 150 c 2,102,-1
 554 142 l 1,103,104
 525 192 525 192 500 348 c 1,105,106
 618 415 618 415 769 415 c 1,97,98
592 285 m 1,107,108
 609 235 609 235 617 234 c 0,109,110
 730 234 730 234 731 318 c 0,111,112
 731 326 731 326 714 335 c 0,113,114
 600 335 600 335 592 285 c 1,107,108
EndSplineSet
Validated: 37
EndChar

StartChar: uni9053
Encoding: 36947 36947 88
Width: 1044
VWidth: 1126
Flags: W
LayerCount: 2
Fore
SplineSet
646 938 m 1,0,-1
 684 938 l 2,1,2
 713 938 713 938 730 887 c 0,3,4
 730 862 730 862 680 808 c 1,5,-1
 680 803 l 1,6,-1
 734 803 l 2,7,8
 755 804 755 804 776 808 c 0,9,10
 856 787 856 787 856 753 c 128,-1,11
 856 719 856 719 822 719 c 2,12,-1
 755 719 l 2,13,14
 654 719 654 719 654 644 c 1,15,-1
 634 640 l 1,16,-1
 634 623 l 1,17,-1
 663 623 l 2,18,19
 776 622 776 622 776 324 c 2,20,-1
 776 236 l 2,21,22
 772 131 772 131 730 131 c 1,23,24
 684 165 684 165 671 165 c 0,25,26
 502 144 502 144 444 144 c 1,27,28
 444 165 444 165 428 165 c 2,29,-1
 444 203 l 2,30,31
 444 220 444 220 436 220 c 2,32,-1
 444 308 l 1,33,-1
 444 430 l 2,34,35
 436 514 436 514 436 581 c 1,36,37
 550 602 550 602 550 665 c 0,38,39
 546 682 546 682 550 682 c 1,40,41
 407 653 407 653 386 652 c 0,42,43
 336 673 336 673 327 707 c 2,44,-1
 327 736 l 1,45,-1
 495 753 l 1,46,-1
 495 770 l 1,47,-1
 453 828 l 1,48,-1
 453 887 l 1,49,-1
 508 887 l 1,50,-1
 566 803 l 1,51,-1
 570 803 l 1,52,53
 646 862 646 862 646 938 c 1,0,-1
180 686 m 1,54,-1
 218 686 l 2,55,56
 239 686 239 686 293 610 c 1,57,-1
 293 572 l 1,58,-1
 260 572 l 1,59,60
 180 615 180 615 180 686 c 1,54,-1
528 518 m 2,61,-1
 528 501 l 1,62,-1
 533 501 l 2,63,64
 680 504 680 504 680 534 c 1,65,-1
 659 543 l 1,66,-1
 608 543 l 2,67,68
 528 531 528 531 528 518 c 2,61,-1
92 501 m 1,69,-1
 130 501 l 2,70,71
 260 501 260 501 260 442 c 2,72,-1
 260 421 l 2,73,74
 260 140 260 140 394 119 c 1,75,76
 549 70 549 70 877 52 c 0,77,78
 894 60 894 60 915 60 c 0,79,80
 965 39 965 39 995 39 c 1,81,-1
 995 1 l 2,82,83
 987 -41 987 -41 898 -41 c 2,84,-1
 743 -41 l 2,85,86
 730 -41 730 -41 705 -58 c 1,87,88
 646 -58 646 -58 176 89 c 1,89,90
 42 89 42 89 41 140 c 0,91,92
 49 178 49 178 79 178 c 2,93,-1
 218 178 l 1,94,-1
 218 182 l 1,95,96
 190 300 190 300 172 413 c 1,97,98
 92 413 92 413 92 459 c 2,99,-1
 92 501 l 1,69,-1
528 404 m 1,100,-1
 528 383 l 1,101,102
 528 383 l 1,103,104
 616 400 616 400 629 400 c 0,105,106
 688 379 688 379 688 354 c 2,107,-1
 688 350 l 2,108,109
 688 312 688 312 533 278 c 1,110,-1
 533 245 l 1,111,-1
 575 245 l 2,112,113
 617 245 617 245 684 257 c 1,114,-1
 684 425 l 1,115,-1
 671 425 l 1,116,-1
 528 404 l 1,100,-1
EndSplineSet
Validated: 5
EndChar

StartChar: uni91CD
Encoding: 37325 37325 89
Width: 1044
VWidth: 1126
Flags: W
LayerCount: 2
Fore
SplineSet
567 852 m 1,0,1
 596 835 596 835 596 814 c 2,2,-1
 596 805 l 2,3,4
 596 755 596 755 290 700 c 1,5,-1
 517 852 l 1,6,-1
 567 852 l 1,0,1
458 667 m 2,7,-1
 462 742 l 1,8,-1
 533 746 l 1,9,-1
 563 692 l 1,10,-1
 785 696 l 2,11,12
 915 696 915 696 924 650 c 2,13,-1
 924 620 l 1,14,-1
 907 591 l 1,15,16
 752 608 752 608 676 608 c 2,17,-1
 554 608 l 1,18,-1
 554 587 l 1,19,-1
 701 587 l 1,20,21
 768 566 768 566 769 532 c 0,22,23
 769 264 769 264 559 264 c 1,24,-1
 554 259 l 1,25,-1
 554 238 l 1,26,-1
 659 238 l 2,27,28
 730 238 730 238 731 188 c 2,29,-1
 731 163 l 1,30,31
 546 163 546 163 546 100 c 2,32,-1
 546 79 l 1,33,34
 907 79 907 79 907 7 c 2,35,-1
 907 -14 l 1,36,-1
 890 -43 l 1,37,38
 659 -9 659 -9 525 -26 c 0,39,40
 479 -34 479 -34 374 -43 c 2,41,-1
 172 -52 l 1,42,-1
 151 -22 l 1,43,-1
 151 32 l 1,44,45
 462 57 462 57 462 79 c 2,46,-1
 462 121 l 1,47,48
 386 108 386 108 365 108 c 2,49,-1
 328 108 l 1,50,-1
 328 188 l 1,51,52
 462 206 462 206 462 222 c 2,53,-1
 462 247 l 1,54,-1
 399 247 l 1,55,-1
 357 217 l 1,56,57
 269 242 269 242 269 373 c 2,58,-1
 269 532 l 1,59,-1
 319 532 l 1,60,61
 353 444 353 444 378 444 c 0,62,63
 470 469 470 469 462 469 c 2,64,-1
 462 499 l 1,65,-1
 336 499 l 1,66,-1
 336 524 l 2,67,68
 336 558 336 558 458 578 c 1,69,-1
 462 591 l 2,70,71
 462 587 462 587 441 583 c 0,72,73
 281 545 281 545 181 545 c 2,74,-1
 143 545 l 2,75,76
 109 545 109 545 84 608 c 1,77,78
 458 654 458 654 458 667 c 2,7,-1
554 503 m 2,79,-1
 554 499 l 2,80,81
 558 491 558 491 563 490 c 0,82,83
 613 486 613 486 664 486 c 1,84,-1
 668 415 l 1,85,86
 555 390 555 390 554 385 c 2,87,-1
 554 352 l 1,88,89
 672 352 672 352 672 469 c 1,90,91
 680 468 680 468 680 494 c 0,92,93
 680 498 680 498 664 507 c 2,94,-1
 563 507 l 2,95,96
 554 507 554 507 554 503 c 2,79,-1
370 360 m 1,97,-1
 370 322 l 1,98,-1
 382 322 l 2,99,100
 462 336 462 336 462 348 c 2,101,-1
 462 368 l 1,102,-1
 420 368 l 1,103,-1
 370 360 l 1,97,-1
EndSplineSet
Validated: 37
EndChar

StartChar: uni91D1
Encoding: 37329 37329 90
Width: 1040
VWidth: 1130
Flags: W
LayerCount: 2
Fore
SplineSet
464 811 m 1,0,1
 548 698 548 698 766 546 c 1,2,3
 989 449 989 449 1014 412 c 1,4,-1
 1014 370 l 1,5,-1
 989 370 l 1,6,7
 796 387 796 387 460 681 c 1,8,-1
 464 681 l 1,9,10
 199 320 199 320 103 299 c 1,11,-1
 82 345 l 1,12,13
 170 412 170 412 363 698 c 0,14,15
 435 811 435 811 464 811 c 1,0,1
565 534 m 1,16,-1
 632 521 l 1,17,-1
 632 483 l 1,18,-1
 527 420 l 1,19,-1
 527 378 l 2,20,21
 527 374 527 374 523 374 c 1,22,23
 561 374 561 374 661 395 c 1,24,25
 707 366 707 366 707.5 340.5 c 128,-1,26
 708 315 708 315 523 261 c 1,27,-1
 519 101 l 1,28,-1
 527 105 l 2,29,30
 540 105 540 105 674 273 c 1,31,32
 716 273 716 273 716 236 c 2,33,-1
 729 189 l 2,34,35
 729 155 729 155 561 38 c 1,36,-1
 569 42 l 2,37,38
 548 42 548 42 565 47 c 2,39,-1
 687 55 l 2,40,41
 809 55 809 55 838 -33 c 1,42,-1
 800 -63 l 1,43,44
 695 -42 695 -42 598 -42 c 0,45,46
 539 -42 539 -42 174 -71 c 1,47,-1
 162 -33 l 1,48,-1
 162 5 l 1,49,50
 187 5 187 5 237 13 c 2,51,-1
 309 17 l 2,52,53
 435 34 435 34 435 30 c 2,54,-1
 439 257 l 1,55,-1
 447 257 l 2,56,57
 409 257 409 257 296 240 c 0,58,59
 275 253 275 253 254 252 c 1,60,-1
 254 303 l 1,61,62
 439 345 439 345 439 357 c 2,63,-1
 439 404 l 1,64,65
 422 417 422 417 334 420 c 1,66,-1
 334 492 l 1,67,68
 368 492 368 492 565 534 c 1,16,-1
292 194 m 1,69,-1
 330 194 l 2,70,71
 376 194 376 194 405 34 c 1,72,-1
 363 34 l 2,73,74
 342 34 342 34 292 131 c 1,75,-1
 292 194 l 1,69,-1
EndSplineSet
Validated: 37
EndChar

StartChar: uni95EE
Encoding: 38382 38382 91
Width: 1044
VWidth: 1126
Flags: W
LayerCount: 2
Fore
SplineSet
710 827 m 0,0,1
 798 828 798 828 848 748 c 1,2,-1
 848 634 l 1,3,4
 865 420 865 420 865 239 c 1,5,6
 831 -68 831 -68 743 -67 c 1,7,8
 621 -33 621 -33 537 71 c 1,9,-1
 588 71 l 1,10,-1
 705 63 l 1,11,-1
 735 63 l 2,12,13
 764 63 764 63 773 210 c 0,14,15
 773 458 773 458 768.5 592 c 128,-1,16
 764 726 764 726 756 731 c 2,17,-1
 676 726 l 2,18,19
 621 726 621 726 479 718 c 1,20,-1
 479 752 l 2,21,22
 479 793 479 793 710 827 c 0,0,1
248 798 m 0,23,24
 361 764 361 764 361 718 c 1,25,26
 323 693 323 693 302 693 c 0,27,28
 226 718 226 718 210 764 c 1,29,30
 219 798 219 798 248 798 c 0,23,24
210 651 m 1,31,-1
 243 617 l 1,32,-1
 235 504 l 1,33,-1
 243 67 l 2,34,35
 243 8 243 8 197 8 c 1,36,37
 155 50 155 50 151 76 c 2,38,-1
 151 80 l 2,39,40
 147 651 147 651 210 651 c 1,31,-1
571 584 m 0,41,42
 663 588 663 588 684 516 c 1,43,-1
 634 361 l 1,44,-1
 647 306 l 1,45,-1
 588 294 l 1,46,-1
 533 302 l 2,47,48
 457 302 457 302 424 256 c 1,49,-1
 403 256 l 2,50,51
 357 256 357 256 340 525 c 1,52,53
 411 584 411 584 571 584 c 0,41,42
420 474 m 0,54,55
 420 449 420 449 432 395 c 1,56,-1
 546 395 l 2,57,58
 563 395 563 395 592 479 c 1,59,-1
 592 504 l 1,60,-1
 571 512 l 1,61,62
 420 495 420 495 420 474 c 0,54,55
EndSplineSet
Validated: 33
EndChar

StartChar: uni95F0
Encoding: 38384 38384 92
Width: 1044
VWidth: 1126
Flags: W
LayerCount: 2
Fore
SplineSet
748 848 m 1,0,1
 824 814 824 814 841 772 c 1,2,-1
 841 680 l 2,3,4
 841 592 841 592 849.5 386 c 128,-1,5
 858 180 858 180 849 66 c 0,6,7
 828 -56 828 -56 790 -56 c 0,8,9
 630 3 630 3 568 66 c 1,10,-1
 568 104 l 1,11,-1
 614 104 l 1,12,13
 676 87 676 87 706 87 c 2,14,-1
 748 87 l 1,15,-1
 740 751 l 1,16,17
 648 742 648 742 602 742 c 2,18,-1
 564 742 l 2,19,20
 568 742 568 742 568 730 c 1,21,22
 488 746 488 746 488 784 c 2,23,-1
 488 818 l 1,24,-1
 748 848 l 1,0,1
215 822 m 1,25,26
 337 801 337 801 337 768 c 2,27,-1
 337 734 l 1,28,29
 302 734 302 734 286 726 c 0,30,31
 198 742 198 742 198 784 c 2,32,-1
 198 793 l 1,33,-1
 215 822 l 1,25,26
135 680 m 1,34,-1
 169 680 l 2,35,36
 224 680 224 680 228 528 c 2,37,-1
 228 66 l 2,38,39
 215 53 215 53 215 24 c 1,40,-1
 177 24 l 2,41,42
 164 24 164 24 118 70 c 1,43,-1
 131 96 l 1,44,-1
 135 680 l 1,34,-1
538 667 m 1,45,-1
 564 667 l 2,46,47
 582 667 582 667 602 629 c 1,48,49
 602 579 602 579 513 579 c 2,50,-1
 501 579 l 1,51,52
 497 512 497 512 505 512 c 2,53,-1
 513 512 l 2,54,55
 534 512 534 512 551 516 c 0,56,57
 602 503 602 503 602 474 c 2,58,-1
 602 440 l 1,59,-1
 501 432 l 1,60,-1
 501 369 l 1,61,-1
 496 314 l 2,62,63
 500 297 500 297 501 306 c 2,64,-1
 580 306 l 1,65,-1
 639 314 l 1,66,67
 706 293 706 293 706 264 c 2,68,-1
 706 213 l 1,69,70
 686 213 686 213 686 205 c 2,71,-1
 652 213 l 1,72,-1
 568 213 l 2,73,74
 551 213 551 213 530 209 c 2,75,-1
 513 213 l 1,76,77
 308 200 308 200 308 188 c 1,78,79
 270 196 270 196 244 196 c 1,80,-1
 244 230 l 2,81,82
 244 268 244 268 412 293 c 1,83,-1
 412 402 l 1,84,-1
 324 402 l 1,85,-1
 324 470 l 1,86,87
 425 487 425 487 425 495 c 2,88,-1
 425 512 l 2,89,90
 425 571 425 571 333 570 c 1,91,-1
 333 608 l 2,92,93
 332 642 332 642 538 667 c 1,45,-1
EndSplineSet
Validated: 33
EndChar

StartChar: uni9633
Encoding: 38451 38451 93
Width: 1044
VWidth: 1130
Flags: W
LayerCount: 2
Fore
SplineSet
411 790 m 0,0,1
 432 782 432 782 457 782 c 1,2,3
 457 722 457 722 357 592 c 1,4,5
 483 445 483 445 483 366 c 0,6,7
 458 244 458 244 420 227 c 1,8,-1
 256 286 l 1,9,-1
 252 286 l 1,10,-1
 252 261 l 2,11,12
 252 185 252 185 256 105 c 2,13,-1
 252 30 l 2,14,15
 248 -46 248 -46 210 -46 c 0,16,17
 189 -46 189 -46 163 -4 c 1,18,-1
 168 424 l 2,19,20
 164 588 164 588 159 647 c 2,21,-1
 155 714 l 1,22,-1
 155 760 l 1,23,24
 281 782 281 782 411 790 c 0,0,1
861 710 m 2,25,-1
 861 332 l 2,26,27
 861 290 861 290 869 240 c 1,28,29
 852 215 852 215 852 198 c 1,30,-1
 814 198 l 1,31,-1
 772 223 l 1,32,33
 600 202 600 202 562.5 202 c 128,-1,34
 525 202 525 202 504 261 c 1,35,-1
 520 320 l 1,36,-1
 520 597 l 1,37,-1
 508 647 l 1,38,39
 525 698 525 698 567 698 c 1,40,41
 613 648 613 648 617 530 c 1,42,43
 781 534 781 534 781 550 c 2,44,-1
 781 689 l 1,45,-1
 777 693 l 1,46,-1
 756 693 l 2,47,48
 710 693 710 693 562 681 c 1,49,-1
 562 714 l 2,50,51
 562 764 562 764 764 769 c 1,52,53
 861 802 861 802 861 710 c 2,25,-1
239 693 m 1,54,-1
 239 672 l 1,55,56
 260 588 260 588 260 366 c 0,57,58
 260 352 260 352 378 340 c 1,59,-1
 378 416 l 2,60,61
 378 462 378 462 268 584 c 1,62,63
 331 664 331 664 331 698 c 1,64,-1
 331 698 l 1,65,66
 273 694 273 694 239 693 c 1,54,-1
604 441 m 2,67,-1
 604 303 l 1,68,69
 650 303 650 303 768 332 c 1,70,-1
 768 458 l 1,71,72
 604 445 604 445 604 441 c 2,67,-1
EndSplineSet
Validated: 37
EndChar

StartChar: uni96E8
Encoding: 38632 38632 94
Width: 1044
VWidth: 1126
Flags: W
LayerCount: 2
Fore
SplineSet
633 800 m 2,0,1
 658 800 658 800 692 745 c 1,2,3
 692 703 692 703 545 695 c 1,4,-1
 558 594 l 1,5,-1
 726 602 l 1,6,7
 940 577 940 577 940 506 c 2,8,-1
 940 485 l 1,9,10
 890 279 890 279 768 56 c 1,11,-1
 730 56 l 1,12,13
 671 106 671 106 646 157 c 1,14,-1
 646 191 l 1,15,-1
 688 191 l 2,16,17
 730 199 730 199 780.5 318.5 c 128,-1,18
 831 438 831 438 831 489 c 1,19,20
 814 510 814 510 684 510 c 128,-1,21
 554 510 554 510 554 506 c 0,22,23
 558 359 558 359 554 178 c 1,24,-1
 541 111 l 1,25,-1
 478 111 l 1,26,27
 478 136 478 136 457 174 c 1,28,-1
 457 489 l 1,29,-1
 453 489 l 2,30,31
 424 489 424 489 293 472 c 0,32,33
 255 459 255 459 226 497 c 2,34,-1
 184 552 l 1,35,36
 457 560 457 560 457 577 c 2,37,-1
 457 586 l 1,38,39
 474 699 474 699 415 695 c 2,40,-1
 327 690 l 1,41,-1
 268 791 l 1,42,-1
 474 791 l 1,43,-1
 633 800 l 2,0,1
100 548 m 1,44,-1
 129 548 l 2,45,46
 247 548 247 548 247 254 c 2,47,-1
 255 98 l 1,48,-1
 213 98 l 1,49,50
 154 119 154 119 134 401 c 0,51,52
 113 468 113 468 100 548 c 1,44,-1
293 455 m 1,53,54
 394 454 394 454 419 396 c 1,55,-1
 419 367 l 1,56,57
 398 367 398 367 373 359 c 0,58,59
 293 376 293 376 293 409 c 2,60,-1
 293 455 l 1,53,54
625 468 m 2,61,-1
 633 468 l 2,62,63
 692 468 692 468 722 413 c 1,64,65
 722 376 722 376 684 376 c 2,66,-1
 633 376 l 2,67,68
 612 376 612 376 587 413 c 1,69,-1
 587 430 l 2,70,71
 600 468 600 468 625 468 c 2,61,-1
318 334 m 1,72,73
 423 305 423 305 423 258 c 2,74,-1
 423 237 l 1,75,76
 398 237 398 237 381 224 c 0,77,78
 310 224 310 224 276 304 c 1,79,-1
 318 334 l 1,72,73
575 342 m 1,80,-1
 642 342 l 1,81,82
 713 300 713 300 713 270.5 c 128,-1,83
 713 241 713 241 675 241 c 2,84,-1
 654 241 l 2,85,86
 575 241 575 241 575 342 c 1,80,-1
EndSplineSet
Validated: 33
EndChar

StartChar: uni9E1F
Encoding: 40479 40479 95
Width: 1044
VWidth: 1140
Flags: W
LayerCount: 2
Fore
SplineSet
399 863 m 1,0,-1
 433 863 l 2,1,2
 471 863 471 863 470 817 c 2,3,-1
 466 779 l 1,4,-1
 475 775 l 2,5,6
 488 775 488 775 676 813 c 0,7,8
 701 813 701 813 769 729 c 1,9,-1
 651 414 l 1,10,-1
 722 414 l 2,11,12
 894 414 894 414 895 300 c 2,13,-1
 895 280 l 1,14,15
 819 28 819 28 727 -73 c 0,16,17
 702 -115 702 -115 647 -115 c 1,18,19
 475 -31 475 -31 441 23 c 1,20,21
 483 40 483 40 500 40 c 0,22,23
 618 2 618 2 647 2 c 2,24,-1
 668 2 l 1,25,26
 693 -16 693 -16 794 258 c 0,27,28
 802 296 802 296 790 313 c 0,29,30
 714 330 714 330 584 322 c 2,31,-1
 273 284 l 1,32,-1
 252 326 l 1,33,34
 302 444 302 444 328 599 c 1,35,-1
 374 599 l 1,36,-1
 399 536 l 2,37,38
 399 498 399 498 357 372 c 1,39,-1
 357 372 l 1,40,41
 546 389 546 389 546 397 c 0,42,43
 449 460 449 460 449 481 c 2,44,-1
 449 519 l 1,45,-1
 479 519 l 1,46,-1
 563 494 l 1,47,48
 660 620 660 620 655 720 c 1,49,-1
 647 725 l 1,50,51
 441 708 441 708 323 620 c 0,52,53
 315 620 315 620 273 578 c 1,54,-1
 231 578 l 1,55,-1
 231 607 l 1,56,57
 399 800 399 800 399 863 c 1,0,-1
433 683 m 1,58,-1
 487 683 l 2,59,60
 571 682 571 682 588 636 c 1,61,-1
 588 594 l 1,62,63
 571 594 571 594 571 582 c 1,64,65
 432 599 432 599 433 649 c 2,66,-1
 433 683 l 1,58,-1
605 254 m 1,67,68
 655 229 655 229 680 204 c 1,69,-1
 655 170 l 1,70,71
 495 174 495 174 155 137 c 1,72,-1
 113 187 l 1,73,74
 336 254 336 254 605 254 c 1,67,68
EndSplineSet
Validated: 37
EndChar

StartChar: uni9EC4
Encoding: 40644 40644 96
Width: 1044
VWidth: 1126
Flags: W
LayerCount: 2
Fore
SplineSet
525 918 m 1,0,-1
 550 918 l 2,1,2
 613 918 613 918 621 775 c 1,3,4
 713 779 713 779 714 737 c 2,5,-1
 714 725 l 2,6,7
 714 687 714 687 609 674 c 0,8,9
 605 670 605 670 596 611 c 1,10,-1
 760 611 l 2,11,12
 966 611 966 611 966 557 c 2,13,-1
 966 498 l 1,14,15
 806 527 806 527 752 527 c 2,16,-1
 659 527 l 2,17,18
 609 527 609 527 533 506 c 1,19,-1
 533 490 l 2,20,21
 537 486 537 486 545.5 485.5 c 128,-1,22
 554 485 554 485 621 502 c 1,23,24
 768 473 768 473 768 435 c 2,25,-1
 768 414 l 1,26,27
 722 355 722 355 688 242 c 1,28,-1
 693 162 l 1,29,-1
 621 145 l 1,30,31
 390 141 390 141 390 145 c 1,32,33
 411 107 411 107 411 86 c 2,34,-1
 411 57 l 1,35,36
 298 -61 298 -61 193 -86 c 1,37,-1
 164 -36 l 1,38,39
 298 31 298 31 327 107 c 1,40,-1
 327 112 l 1,41,42
 293 112 293 112 277 191 c 1,43,-1
 277 414 l 2,44,45
 277 431 277 431 323 456 c 1,46,-1
 403 452 l 2,47,48
 449 460 449 460 449 468 c 2,49,-1
 449 485 l 1,50,51
 449 485 l 1,52,-1
 441 485 l 1,53,54
 155 443 155 443 126 443 c 0,55,56
 67 443 67 443 54 481 c 2,57,-1
 54 510 l 1,58,59
 344 548 344 548 344 561 c 2,60,-1
 344 632 l 1,61,62
 260 687 260 687 260 708 c 2,63,-1
 260 733 l 1,64,-1
 319 733 l 2,65,66
 323 733 323 733 323 737 c 2,67,-1
 323 750 l 1,68,-1
 306 830 l 1,69,-1
 361 830 l 2,70,71
 386 830 386 830 428 742 c 1,72,-1
 420 742 l 2,73,74
 533 754 533 754 533 762 c 0,75,76
 533 804 533 804 525 918 c 1,0,-1
432 649 m 2,77,-1
 432 624 l 2,78,79
 432 586 432 586 441 586 c 2,80,-1
 483 586 l 1,81,82
 517 603 517 603 516 662 c 2,83,-1
 516 658 l 1,84,-1
 441 658 l 2,85,86
 436 658 436 658 432 649 c 2,77,-1
533 389 m 1,87,-1
 533 389 l 1,88,89
 533 381 533 381 537 380 c 2,90,-1
 642 380 l 1,91,-1
 642 401 l 1,92,-1
 550 401 l 2,93,94
 546 402 546 402 533 389 c 1,87,-1
361 359 m 2,95,-1
 361 342 l 2,96,97
 365 338 365 338 361 338 c 2,98,-1
 374 338 l 2,99,100
 437 338 437 338 449 359 c 0,101,102
 449 388 449 388 449 380 c 2,103,-1
 458 380 l 2,104,105
 362 380 362 380 361 359 c 2,95,-1
516 246 m 2,106,-1
 516 242 l 1,107,108
 516 242 l 1,109,110
 582 242 582 242 604 284 c 1,111,-1
 604 296 l 1,112,-1
 571 296 l 2,113,114
 516 296 516 296 516 246 c 2,106,-1
361 212 m 0,115,116
 365 208 365 208 361 208 c 2,117,-1
 403 208 l 2,118,119
 437 208 437 208 441 225 c 2,120,-1
 441 246 l 2,121,122
 441 254 441 254 424 263 c 2,123,-1
 420 263 l 2,124,125
 361 262 361 262 361 212 c 0,115,116
613 112 m 1,126,-1
 676 112 l 1,127,128
 806 41 806 41 836 -2 c 1,129,130
 849 -69 849 -69 806 -69 c 2,131,-1
 785 -69 l 1,132,133
 651 19 651 19 613 82 c 1,134,-1
 613 112 l 1,126,-1
EndSplineSet
Validated: 37
EndChar

StartChar: uni9F99
Encoding: 40857 40857 97
Width: 1044
VWidth: 1126
Flags: W
LayerCount: 2
Fore
SplineSet
605 826 m 0,0,1
 702 797 702 797 726 742 c 1,2,-1
 697 670 l 1,3,4
 537 762 537 762 537 809 c 2,5,-1
 537 834 l 1,6,7
 584 834 584 834 605 826 c 0,0,1
374 821 m 1,8,-1
 407 821 l 2,9,10
 462 821 462 821 462 674 c 2,11,-1
 458 637 l 2,12,13
 458 633 458 633 462 632 c 2,14,-1
 512 632 l 2,15,16
 520 632 520 632 697 666 c 1,17,-1
 718 666 l 2,18,19
 747 666 747 666 760 624 c 2,20,-1
 760 582 l 1,21,22
 483 548 483 548 437 498 c 1,23,24
 324 175 324 175 147 57 c 2,25,-1
 96 23 l 1,26,-1
 67 23 l 1,27,-1
 67 57 l 1,28,29
 298 309 298 309 327 511 c 1,30,31
 222 528 222 528 231 557 c 2,32,-1
 231 586 l 1,33,34
 370 586 370 586 374 620 c 2,35,-1
 382 725 l 2,36,37
 374 779 374 779 374 821 c 1,8,-1
516 523 m 1,38,-1
 558 523 l 2,39,40
 592 523 592 523 596 435 c 1,41,-1
 592 431 l 1,42,-1
 680 506 l 1,43,-1
 701 506 l 2,44,45
 730 498 730 498 756 448 c 1,46,47
 643 356 643 356 584 305 c 1,48,-1
 579 208 l 2,49,50
 575 95 575 95 735 95 c 2,51,-1
 836 95 l 1,52,53
 840 150 840 150 846 215 c 128,-1,54
 852 280 852 280 886 280 c 0,55,56
 928 272 928 272 920 242 c 2,57,-1
 941 162 l 2,58,59
 949 112 949 112 949 53 c 128,-1,60
 949 -6 949 -6 819 -6 c 2,61,-1
 680 -6 l 1,62,63
 470 32 470 32 487 246 c 1,64,-1
 483 242 l 1,65,66
 441 229 441 229 340 191 c 1,67,-1
 340 233 l 1,68,69
 495 334 495 334 508 389 c 2,70,-1
 516 523 l 1,38,-1
EndSplineSet
Validated: 33
EndChar
